<svg xmlns="http://www.w3.org/2000/svg" viewBox="0 0 64 64" width="512px" height="512px"><radialGradient id="KcNPUBi68FYF93mR~e2JNa" cx="36" cy="32" r="26.875" gradientUnits="userSpaceOnUse" spreadMethod="reflect"><stop offset="0" stop-color="#f4e9c3"/><stop offset=".219" stop-color="#f8eecd"/><stop offset=".644" stop-color="#fdf4dc"/><stop offset="1" stop-color="#fff6e1"/></radialGradient><path fill="url(#KcNPUBi68FYF93mR~e2JNa)" d="M5.5,61L5.5,61C3.015,61,1,58.985,1,56.5v0C1,54.015,3.015,52,5.5,52h0 c2.485,0,4.5,2.015,4.5,4.5v0C10,58.985,7.985,61,5.5,61z"/><radialGradient id="KcNPUBi68FYF93mR~e2JNb" cx="32" cy="31.5" r="30.775" gradientUnits="userSpaceOnUse" spreadMethod="reflect"><stop offset="0" stop-color="#f4e9c3"/><stop offset=".219" stop-color="#f8eecd"/><stop offset=".644" stop-color="#fdf4dc"/><stop offset="1" stop-color="#fff6e1"/></radialGradient><path fill="url(#KcNPUBi68FYF93mR~e2JNb)" d="M64,24L64,24c0-2.761-2.239-5-5-5h-5c-2.761,0-5-2.238-5-5v0c0-2.762,2.238-5,5-5h0.565 C56.48,9,58,7.48,58,5.605L58,5.5C58,3.567,56.433,2,54.5,2l-38,0c-1.926,0-3.49,1.556-3.5,3.483L13,5.5 C12.99,7.43,14.552,9,16.483,9H17c2.209,0,4,1.791,4,4v0c0,2.209-1.791,4-4,4H5c-2.761,0-5,2.239-5,5v0c0,2.761,2.239,5,5,5h1 c2.209,0,4,1.791,4,4v0c0,2.209-1.791,4-4,4H5.5C2.462,35,0,37.462,0,40.5v0C0,43.538,2.462,46,5.5,46H19c1.657,0,3,1.343,3,3v0 c0,1.657-1.343,3-3,3h-1.5c-2.485,0-4.5,2.015-4.5,4.5v0c0,2.485,2.015,4.5,4.5,4.5H33h22c2.209,0,4-1.791,4-4v0 c0-2.209-1.791-4-4-4h-6.5c-1.933,0-3.5-1.567-3.5-3.5v0c0-1.933,1.567-3.5,3.5-3.5H60c2.209,0,4-1.791,4-4v0c0-2.209-1.791-4-4-4 h-1.5c-2.485,0-4.5-2.015-4.5-4.5v0c0-2.485,2.015-4.5,4.5-4.5H59C61.761,29,64,26.761,64,24z"/><linearGradient id="KcNPUBi68FYF93mR~e2JNc" x1="18.002" x2="18.002" y1="53.541" y2="18.55" gradientUnits="userSpaceOnUse" spreadMethod="reflect"><stop offset="0" stop-color="#155cde"/><stop offset=".278" stop-color="#1f7fe5"/><stop offset=".569" stop-color="#279ceb"/><stop offset=".82" stop-color="#2cafef"/><stop offset="1" stop-color="#2eb5f0"/></linearGradient><path fill="url(#KcNPUBi68FYF93mR~e2JNc)" d="M19.323,37.782l-1.32,7.215l-8.239-4.9c-0.876-0.521-1.027-1.729-0.306-2.45l1.064-1.064 c0.497-0.497,1.218-0.696,1.899-0.526L19.323,37.782z M25.218,43.677l-7.215,1.32l4.9,8.239c0.521,0.876,1.729,1.027,2.45,0.306 l1.064-1.064c0.497-0.497,0.696-1.218,0.526-1.899L25.218,43.677z"/><linearGradient id="KcNPUBi68FYF93mR~e2JNd" x1="29.5" x2="29.5" y1="60.032" y2="-2.548" gradientUnits="userSpaceOnUse" spreadMethod="reflect"><stop offset="0" stop-color="#155cde"/><stop offset=".278" stop-color="#1f7fe5"/><stop offset=".569" stop-color="#279ceb"/><stop offset=".82" stop-color="#2cafef"/><stop offset="1" stop-color="#2eb5f0"/></linearGradient><path fill="url(#KcNPUBi68FYF93mR~e2JNd)" d="M28.775,29.822L10.971,19.14c-1.116-0.669-1.305-2.209-0.385-3.129l1.425-1.425 c0.477-0.477,1.162-0.681,1.822-0.544l22.942,4.78L28.775,29.822z M33.178,34.226L43.86,52.029c0.669,1.116,2.209,1.305,3.129,0.385 l1.425-1.425c0.477-0.477,0.681-1.162,0.544-1.822l-4.78-22.942L33.178,34.226z"/><linearGradient id="KcNPUBi68FYF93mR~e2JNe" x1="34.408" x2="34.408" y1="9" y2="48.183" gradientUnits="userSpaceOnUse" spreadMethod="reflect"><stop offset="0" stop-color="#40daf2"/><stop offset=".259" stop-color="#3bd3ef"/><stop offset=".624" stop-color="#2ec1e8"/><stop offset="1" stop-color="#1ba7dd"/></linearGradient><path fill="url(#KcNPUBi68FYF93mR~e2JNe)" d="M48.9,9c-1.857,0-3.637,0.737-4.95,2.05L31.402,23.598c-1.601,1.601-3.126,3.275-4.571,5.017 L14.817,43.101l3.187,1.895l1.895,3.187l14.486-12.014c1.742-1.445,3.416-2.97,5.017-4.571L51.95,19.05 c1.313-1.313,2.05-3.093,2.05-4.95V11c0-1.105-0.895-2-2-2H48.9z"/></svg>