<svg fill="#3676cc" xmlns="http://www.w3.org/2000/svg" viewBox="0 0 50 50" width="250px" height="250px">
    <path
        d="M 13 1.9980469 L 13 8.9980469 L 8 8.9980469 L 8 12.998047 L 11 17.998047 L 8 17.998047 L 8 31.998047 L 4 31.998047 L 4 44.998047 L 35 44.998047 L 35 35.998047 L 40 35.998047 L 40 44.998047 L 45 44.998047 L 45 31.998047 L 20 31.998047 L 20 17.998047 L 17 17.998047 L 20 12.998047 L 20 8.9980469 L 15 8.9980469 L 15 1.9980469 L 13 1.9980469 z M 30.318359 3.7363281 L 37.087891 10.556641 L 33.580078 12.050781 L 29 10.769531 L 31.462891 14.033203 L 32.101562 18.074219 L 34.353516 13.878906 L 37.863281 12.382812 L 38.072266 21.998047 L 42.783203 10.283203 L 46.427734 8.7285156 C 46.930734 8.5145156 47.164219 7.9317344 46.949219 7.4277344 C 46.734219 6.9237344 46.154391 6.6882969 45.650391 6.9042969 L 42.007812 8.4570312 L 30.318359 3.7363281 z M 8 35.998047 L 19 35.998047 L 19 39.998047 L 8 39.998047 L 8 35.998047 z M 21 35.998047 L 32 35.998047 L 32 39.998047 L 21 39.998047 L 21 35.998047 z" />
    </svg>