<svg xmlns="http://www.w3.org/2000/svg" viewBox="0 0 100 100" width="500px" height="500px"><path fill="#c7ede6" d="M87.215,56.71C88.35,54.555,89,52.105,89,49.5c0-6.621-4.159-12.257-10.001-14.478 C78.999,35.015,79,35.008,79,35c0-11.598-9.402-21-21-21c-9.784,0-17.981,6.701-20.313,15.757C36.211,29.272,34.638,29,33,29 c-7.692,0-14.023,5.793-14.89,13.252C12.906,43.353,9,47.969,9,53.5C9,59.851,14.149,65,20.5,65c0.177,0,0.352-0.012,0.526-0.022 C21.022,65.153,21,65.324,21,65.5C21,76.822,30.178,86,41.5,86c6.437,0,12.175-2.972,15.934-7.614C59.612,80.611,62.64,82,66,82 c4.65,0,8.674-2.65,10.666-6.518C77.718,75.817,78.837,76,80,76c6.075,0,11-4.925,11-11C91,61.689,89.53,58.727,87.215,56.71z"/><path fill="#fff" d="M17.5 52h-10C7.224 52 7 51.776 7 51.5S7.224 51 7.5 51h10c.276 0 .5.224.5.5S17.777 52 17.5 52zM20.5 52h-1c-.276 0-.5-.224-.5-.5s.224-.5.5-.5h1c.276 0 .5.224.5.5S20.777 52 20.5 52zM25.491 54H16.5c-.276 0-.5-.224-.5-.5s.224-.5.5-.5h8.991c.276 0 .5.224.5.5S25.767 54 25.491 54zM14.5 54h-1c-.276 0-.5-.224-.5-.5s.224-.5.5-.5h1c.276 0 .5.224.5.5S14.777 54 14.5 54zM11.5 54h-2C9.224 54 9 53.776 9 53.5S9.224 53 9.5 53h2c.276 0 .5.224.5.5S11.777 54 11.5 54zM17.5 56h-2c-.276 0-.5-.224-.5-.5s.224-.5.5-.5h2c.276 0 .5.224.5.5S17.776 56 17.5 56zM20.5 47c-.177 0-.823 0-1 0-.276 0-.5.224-.5.5 0 .276.224.5.5.5.177 0 .823 0 1 0 .276 0 .5-.224.5-.5C21 47.224 20.776 47 20.5 47zM20.5 49c-.177 0-4.823 0-5 0-.276 0-.5.224-.5.5 0 .276.224.5.5.5.177 0 4.823 0 5 0 .276 0 .5-.224.5-.5C21 49.224 20.776 49 20.5 49zM25.5 51c-.177 0-2.823 0-3 0-.276 0-.5.224-.5.5 0 .276.224.5.5.5.177 0 2.823 0 3 0 .276 0 .5-.224.5-.5C26 51.224 25.776 51 25.5 51z"/><g><path fill="#fff" d="M66.5 20h-10c-.276 0-.5-.224-.5-.5s.224-.5.5-.5h10c.276 0 .5.224.5.5S66.776 20 66.5 20zM70.5 20h-2c-.276 0-.5-.224-.5-.5s.224-.5.5-.5h2c.276 0 .5.224.5.5S70.776 20 70.5 20zM75.5 22h-10c-.276 0-.5-.224-.5-.5s.224-.5.5-.5h10c.276 0 .5.224.5.5S75.777 22 75.5 22zM63.5 22h-1c-.276 0-.5-.224-.5-.5s.224-.5.5-.5h1c.276 0 .5.224.5.5S63.776 22 63.5 22zM60.47 22H58.5c-.276 0-.5-.224-.5-.5s.224-.5.5-.5h1.97c.276 0 .5.224.5.5S60.746 22 60.47 22zM69.5 18h-5c-.276 0-.5-.224-.5-.5s.224-.5.5-.5h5c.276 0 .5.224.5.5S69.777 18 69.5 18zM66.5 24h-2c-.276 0-.5-.224-.5-.5s.224-.5.5-.5h2c.276 0 .5.224.5.5S66.776 24 66.5 24z"/></g><g><path fill="#fdfcef" d="M42.5,31.5c0,0,1.567,0,3.5,0s3.5-1.567,3.5-3.5c0-1.781-1.335-3.234-3.055-3.455 C46.473,24.366,46.5,24.187,46.5,24c0-1.933-1.567-3.5-3.5-3.5c-1.032,0-1.95,0.455-2.59,1.165 c-0.384-1.808-1.987-3.165-3.91-3.165c-2.209,0-4,1.791-4,4c0,0.191,0.03,0.374,0.056,0.558C32.128,22.714,31.592,22.5,31,22.5 c-1.228,0-2.245,0.887-2.455,2.055C28.366,24.527,28.187,24.5,28,24.5c-1.933,0-3.5,1.567-3.5,3.5s1.567,3.5,3.5,3.5s7.5,0,7.5,0 V32h7V31.5z"/><path fill="#472b29" d="M44.25 27C44.112 27 44 26.888 44 26.75c0-1.223.995-2.218 2.218-2.218.034.009.737-.001 1.244.136.133.036.212.173.176.306-.036.134-.173.213-.306.176-.444-.12-1.1-.12-1.113-.118-.948 0-1.719.771-1.719 1.718C44.5 26.888 44.388 27 44.25 27zM37.5 31A.5.5 0 1 0 37.5 32 .5.5 0 1 0 37.5 31z"/><path fill="#472b29" d="M46,32h-3.5c-0.276,0-0.5-0.224-0.5-0.5s0.224-0.5,0.5-0.5H46c1.654,0,3-1.346,3-3 c0-1.496-1.125-2.768-2.618-2.959c-0.134-0.018-0.255-0.088-0.336-0.196s-0.115-0.244-0.094-0.377C45.975,24.314,46,24.16,46,24 c0-1.654-1.346-3-3-3c-0.85,0-1.638,0.355-2.219,1c-0.125,0.139-0.321,0.198-0.5,0.148c-0.182-0.049-0.321-0.195-0.36-0.379 C39.58,20.165,38.141,19,36.5,19c-1.93,0-3.5,1.57-3.5,3.5c0,0.143,0.021,0.28,0.041,0.418c0.029,0.203-0.063,0.438-0.242,0.54 c-0.179,0.102-0.396,0.118-0.556-0.01C31.878,23.155,31.449,23,31,23c-0.966,0-1.792,0.691-1.963,1.644 c-0.048,0.267-0.296,0.446-0.569,0.405C28.314,25.025,28.16,25,28,25c-1.654,0-3,1.346-3,3s1.346,3,3,3h7.5 c0.276,0,0.5,0.224,0.5,0.5S35.776,32,35.5,32H28c-2.206,0-4-1.794-4-4s1.794-4,4-4c0.059,0,0.116,0.002,0.174,0.006 C28.588,22.82,29.711,22,31,22c0.349,0,0.689,0.061,1.011,0.18C32.176,19.847,34.126,18,36.5,18c1.831,0,3.466,1.127,4.153,2.774 C41.333,20.276,42.155,20,43,20c2.206,0,4,1.794,4,4c0,0.048-0.001,0.095-0.004,0.142C48.739,24.59,50,26.169,50,28 C50,30.206,48.206,32,46,32z"/><path fill="#472b29" d="M40.5,31c-0.159,0-0.841,0-1,0c-0.276,0-0.5,0.224-0.5,0.5c0,0.276,0.224,0.5,0.5,0.5 c0.159,0,0.841,0,1,0c0.276,0,0.5-0.224,0.5-0.5C41,31.224,40.776,31,40.5,31z"/></g><g><path fill="#88cdd7" d="M41.204,75.331c-0.032,0-0.139-0.009-0.198-0.117l-3.736-6.939 c-0.106-0.197-0.301-0.332-0.523-0.361c-0.604-0.082-1.197-0.387-1.669-0.858c-0.472-0.472-0.776-1.064-0.857-1.668 c-0.03-0.223-0.165-0.417-0.362-0.523l-6.939-3.737c-0.086-0.046-0.109-0.123-0.115-0.164c-0.006-0.041-0.006-0.121,0.063-0.189 l2.12-2.119c0.042-0.043,0.098-0.065,0.158-0.065l7.56,1.883c0.057,0.015,0.113,0.021,0.17,0.021c0.215,0,0.422-0.1,0.557-0.275 l5.778-7.576c0.215-0.282,0.458-0.541,0.7-0.799c0.142-0.151,0.21-0.358,0.185-0.565c-0.025-0.206-0.142-0.391-0.316-0.503 L27.342,40.208l2.384-2.49l22.385,5.413c0.055,0.014,0.11,0.021,0.165,0.021c0.184,0,0.362-0.072,0.495-0.205l10.08-10.079 c1.606-1.606,3.946-1.944,5.625-1.944c0.877,0,1.478,0.098,1.483,0.099c0.59,0.099,1.185,0.706,1.272,1.299 c0.006,0.042,0.603,4.394-1.906,6.902l-10.14,10.139c-0.173,0.173-0.243,0.423-0.185,0.66l5.431,22.326l-2.411,2.453 L51.359,58.357c-0.112-0.175-0.297-0.291-0.503-0.315c-0.028-0.004-0.057-0.006-0.085-0.006c-0.177,0-0.35,0.067-0.48,0.19 c-0.264,0.249-0.53,0.497-0.819,0.718l-7.555,5.76c-0.223,0.17-0.323,0.455-0.255,0.727l1.876,7.504 c0.019,0.075-0.003,0.157-0.059,0.213l-2.119,2.118C41.306,75.319,41.245,75.331,41.204,75.331z"/><path fill="#472b29" d="M68.476,31.623c0.811,0,1.365,0.088,1.367,0.089c0.289,0.049,0.653,0.42,0.696,0.707 c0.006,0.04,0.545,4.056-1.708,6.31L58.691,48.866c-0.345,0.345-0.486,0.846-0.37,1.321l5.346,21.978l-1.581,1.581L51.949,57.979 c-0.225-0.35-0.595-0.582-1.008-0.633c-0.057-0.007-0.113-0.01-0.17-0.01c-0.355,0-0.7,0.135-0.961,0.382 c-0.255,0.241-0.506,0.474-0.763,0.67l-7.555,5.759c-0.445,0.339-0.645,0.91-0.509,1.453l1.811,7.242l-1.475,1.475l-3.432-6.375 c-0.213-0.395-0.602-0.664-1.046-0.724c-0.453-0.061-0.903-0.295-1.267-0.659c-0.364-0.365-0.598-0.814-0.659-1.268 c-0.06-0.445-0.329-0.833-0.724-1.046l-6.375-3.433l1.475-1.475l7.244,1.811c0.113,0.028,0.227,0.042,0.34,0.042 c0.43,0,0.845-0.199,1.113-0.551l5.778-7.576c0.181-0.237,0.394-0.468,0.654-0.744c0.285-0.303,0.42-0.717,0.369-1.13 c-0.051-0.413-0.283-0.781-0.632-1.007L28.386,40.047l1.581-1.581l21.978,5.346c0.11,0.027,0.221,0.04,0.331,0.04 c0.367,0,0.724-0.145,0.99-0.41l10.079-10.079C64.858,31.849,67.209,31.623,68.476,31.623 M68.476,30.223 c-1.672,0-4.302,0.331-6.121,2.149L52.276,42.451L29.95,37.021c-0.06-0.015-0.12-0.022-0.18-0.022 c-0.2,0-0.395,0.079-0.539,0.224l-2.394,2.394c-0.344,0.344-0.282,0.918,0.127,1.181l16.435,10.565 c-0.259,0.276-0.517,0.552-0.746,0.854l-5.778,7.576l-7.506-1.876c-0.074-0.019-0.149-0.028-0.224-0.028 c-0.242,0-0.478,0.095-0.653,0.27l-2.119,2.119c-0.437,0.437-0.329,1.172,0.215,1.466l6.939,3.737 c0.098,0.727,0.455,1.469,1.057,2.071c0.602,0.602,1.344,0.959,2.071,1.057l3.736,6.939c0.171,0.317,0.49,0.486,0.814,0.486 c0.233,0,0.468-0.087,0.651-0.271l2.119-2.119c0.229-0.229,0.321-0.562,0.243-0.876l-1.876-7.505l7.555-5.759 c0.308-0.235,0.593-0.499,0.875-0.765l10.564,16.433c0.148,0.23,0.394,0.35,0.642,0.35c0.193,0,0.388-0.073,0.538-0.223 l2.394-2.394c0.188-0.188,0.265-0.461,0.202-0.719l-5.431-22.326L69.82,39.718c2.798-2.798,2.104-7.5,2.104-7.5 c-0.131-0.889-0.963-1.738-1.85-1.887C70.074,30.331,69.431,30.223,68.476,30.223L68.476,30.223z"/><path fill="#472b29" d="M34.919 67.913c-.179 0-.358-.068-.495-.205-.273-.273-.273-.717 0-.99l6.059-6.059c.273-.273.717-.273.99 0s.273.717 0 .99l-6.059 6.059C35.277 67.845 35.098 67.913 34.919 67.913zM43.67 52.229c-.128 0-.256-.049-.354-.146-.195-.195-.195-.512 0-.707l2.693-2.692c.195-.195.512-.195.707 0s.195.512 0 .707l-2.693 2.692C43.926 52.181 43.798 52.229 43.67 52.229zM47.709 48.19c-.128 0-.256-.049-.354-.146-.195-.195-.195-.512 0-.707l2.693-2.692c.195-.195.512-.195.707 0s.195.512 0 .707l-2.693 2.692C47.965 48.142 47.837 48.19 47.709 48.19zM50.402 58.962c-.128 0-.256-.049-.354-.146-.195-.195-.195-.512 0-.707l4.713-4.713c.195-.195.512-.195.707 0s.195.512 0 .707l-4.713 4.713C50.658 58.913 50.53 58.962 50.402 58.962zM57.135 52.229c-.128 0-.256-.049-.354-.146-.195-.195-.195-.512 0-.707l2.02-2.02c.195-.195.512-.195.707 0s.195.512 0 .707l-2.02 2.02C57.391 52.181 57.263 52.229 57.135 52.229zM67.905 38.093c-.276 0-.5-.224-.5-.5 0-1.741-1.125-2.866-2.866-2.866-.276 0-.5-.224-.5-.5s.224-.5.5-.5c2.313 0 3.866 1.554 3.866 3.866C68.405 37.869 68.182 38.093 67.905 38.093zM63.866 73.521c-.084 0-.166-.042-.213-.119l-4.289-6.97c-.072-.117-.036-.271.082-.344.118-.071.272-.036.344.082l4.289 6.97c.072.117.036.271-.082.344C63.956 73.51 63.911 73.521 63.866 73.521zM58.519 64.831c-.084 0-.166-.042-.213-.119l-1.725-2.803c-.072-.117-.036-.271.082-.344.119-.072.272-.036.344.082l1.725 2.803c.072.117.036.271-.082.344C58.608 64.819 58.563 64.831 58.519 64.831z"/><path fill="#472b29" d="M55.765 60.357c-.084 0-.166-.042-.213-.119l-2.669-4.339c-.072-.117-.036-.271.082-.344s.272-.036.344.082l2.669 4.339c.072.117.036.271-.082.344C55.854 60.346 55.81 60.357 55.765 60.357zM37.292 43.705c-.045 0-.09-.012-.131-.037l-8.432-5.189c-.118-.072-.154-.227-.082-.344.072-.119.229-.154.344-.082l8.432 5.189c.118.072.154.227.082.344C37.458 43.663 37.376 43.705 37.292 43.705z"/><g><path fill="#472b29" d="M46.363,49.287c-0.045,0-0.09-0.012-0.131-0.037l-6.845-4.213 c-0.118-0.072-0.154-0.227-0.082-0.344c0.073-0.118,0.228-0.154,0.344-0.082l6.845,4.213c0.118,0.072,0.154,0.227,0.082,0.344 C46.529,49.245,46.447,49.287,46.363,49.287z"/></g></g><g><path fill="#fdfcef" d="M76.5,65.5V66h3v-0.5c0,0,4.242,0,5.5,0c2.485,0,4.5-2.015,4.5-4.5 c0-2.333-1.782-4.229-4.055-4.455C85.467,56.364,85.5,56.187,85.5,56c0-2.485-2.015-4.5-4.5-4.5c-1.438,0-2.703,0.686-3.527,1.736 C77.333,50.6,75.171,48.5,72.5,48.5c-2.761,0-5,2.239-5,5c0,0.446,0.077,0.87,0.187,1.282C67.045,54.005,66.086,53.5,65,53.5 c-1.781,0-3.234,1.335-3.455,3.055C61.364,56.533,61.187,56.5,61,56.5c-2.485,0-4.5,2.015-4.5,4.5s2.015,4.5,4.5,4.5s9.5,0,9.5,0 H76.5z"/><path fill="#472b29" d="M72.5,48c-3.033,0-5.5,2.467-5.5,5.5c0,0.016,0,0.031,0,0.047C66.398,53.192,65.71,53,65,53 c-1.831,0-3.411,1.261-3.858,3.005C61.095,56.002,61.048,56,61,56c-2.757,0-5,2.243-5,5s2.243,5,5,5h15.5 c0.276,0,0.5-0.224,0.5-0.5S76.776,65,76.5,65H61c-2.206,0-4-1.794-4-4s1.794-4,4-4c0.117,0,0.23,0.017,0.343,0.032l0.141,0.019 c0.021,0.003,0.041,0.004,0.062,0.004c0.246,0,0.462-0.185,0.495-0.437C62.232,55.125,63.504,54,65,54 c0.885,0,1.723,0.401,2.301,1.1c0.098,0.118,0.241,0.182,0.386,0.182c0.078,0,0.156-0.018,0.228-0.056 c0.209-0.107,0.314-0.346,0.254-0.573C68.054,54.218,68,53.852,68,53.5c0-2.481,2.019-4.5,4.5-4.5 c2.381,0,4.347,1.872,4.474,4.263c0.011,0.208,0.15,0.387,0.349,0.45c0.05,0.016,0.101,0.024,0.152,0.024 c0.15,0,0.296-0.069,0.392-0.192C78.638,52.563,79.779,52,81,52c2.206,0,4,1.794,4,4c0,0.117-0.017,0.23-0.032,0.343l-0.019,0.141 c-0.016,0.134,0.022,0.268,0.106,0.373c0.084,0.105,0.207,0.172,0.34,0.185C87.451,57.247,89,58.949,89,61c0,2.206-1.794,4-4,4 h-5.5c-0.276,0-0.5,0.224-0.5,0.5s0.224,0.5,0.5,0.5H85c2.757,0,5-2.243,5-5c0-2.397-1.689-4.413-4.003-4.877 C85.999,56.082,86,56.041,86,56c0-2.757-2.243-5-5-5c-1.176,0-2.293,0.416-3.183,1.164C77.219,49.76,75.055,48,72.5,48L72.5,48z"/><path fill="#472b29" d="M71 55c-1.403 0-2.609.999-2.913 2.341C67.72 57.119 67.301 57 66.875 57c-1.202 0-2.198.897-2.353 2.068C64.319 59.022 64.126 59 63.937 59c-1.529 0-2.811 1.2-2.918 2.732C61.01 61.87 61.114 61.99 61.251 62c.006 0 .012 0 .018 0 .13 0 .24-.101.249-.232.089-1.271 1.151-2.268 2.419-2.268.229 0 .47.042.738.127.022.007.045.01.067.01.055 0 .11-.02.156-.054C64.962 59.537 65 59.455 65 59.375c0-1.034.841-1.875 1.875-1.875.447 0 .885.168 1.231.473.047.041.106.063.165.063.032 0 .063-.006.093-.019.088-.035.148-.117.155-.212C68.623 56.512 69.712 55.5 71 55.5c.208 0 .425.034.682.107.023.007.047.01.07.01.109 0 .207-.073.239-.182.038-.133-.039-.271-.172-.309C71.517 55.04 71.256 55 71 55L71 55zM84.883 56.5c-1.326 0-2.508.897-2.874 2.182-.038.133.039.271.172.309C82.205 58.997 82.228 59 82.25 59c.109 0 .209-.072.24-.182C82.795 57.748 83.779 57 84.883 57c.117 0 .23.014.342.029.012.002.023.003.035.003.121 0 .229-.092.246-.217.019-.137-.077-.263-.214-.281C85.158 56.516 85.022 56.5 84.883 56.5L84.883 56.5z"/></g></svg>