<?xml version="1.0" encoding="UTF-8"?><svg version="1.1" xmlns="http://www.w3.org/2000/svg" xmlns:xlink="http://www.w3.org/1999/xlink" viewBox="0 0 1200 1600" width="1200" height="1600" x="0px" y="0px">
              
              <!-- ITEM 0 -->
<g transform="translate(163.0 196.0) rotate(0.0 441.5 879.0) scale(1.1868295521902583 1.1855668364990035)">
<g transform="translate(-0.0 -0.0)">
<g clip-path="url(#clipPathId-collage-item-0)">
		<defs>
			<clipPath id="clipPathId-collage-item-0">
				<rect x="0.0" y="0.0" width="743.999" height="1482.835"/>
			</clipPath>
		</defs>

  <title>rocket</title>
  <g id="Слой_2-i0" data-name="Слой 2">
    <g id="Слой_1-2-i0" data-name="Слой 1">
      <g>
        <path d="M196.166,1219.5a367.274,367.274,0,0,0-11.239-42.3,3.692,3.692,0,0,0-4.442-2.522,3.779,3.779,0,0,0-2.5,2.431,12.925,12.925,0,0,0-5.227-6.043,9.4,9.4,0,0,0-4.7-1.5,9.574,9.574,0,0,0-5.04.225,16.054,16.054,0,0,0-3.255,1.463,9.667,9.667,0,0,0-3.167-.413,14.277,14.277,0,0,0-6.636,1.864,156.04,156.04,0,0,1-2.621-1.128l-1.856-1.434a9.4,9.4,0,0,0-4.7-1.5,6.364,6.364,0,0,0-3.36,0,9.4,9.4,0,0,0-4.7,1.5,16.555,16.555,0,0,0-3.015,2.481l-.492-.637a9.475,9.475,0,0,0-4.068-2.614,6.292,6.292,0,0,0-3.19-.862,9.574,9.574,0,0,0-5.04.225,14.5,14.5,0,0,0-4.894,2.667c-.143-.151-.275-.307-.43-.451l-2.558-1.977a9.409,9.409,0,0,0-4.7-1.5,6.368,6.368,0,0,0-3.361,0,9.409,9.409,0,0,0-4.7,1.5l-2.558,1.977c-.166.167-.323.338-.478.511a8.762,8.762,0,0,0-.871-.252,12.791,12.791,0,0,0-9.739,1.274,13.751,13.751,0,0,0-4.372,4.423c-.083.05-.17.087-.251.139l-.062.048q1.934-4.578,4.057-9.074a3.711,3.711,0,0,0-1.3-4.94,3.642,3.642,0,0,0-4.941,1.295c-1.025,2.161-2,4.339-2.965,6.526a3.675,3.675,0,0,0-3.872,2.6c-4.192,12.62-7.949,25.388-11.04,38.323a341.283,341.283,0,0,0-7.1,39.6,258.739,258.739,0,0,0-1.721,38.788,223.121,223.121,0,0,0,4.5,38.058A187.958,187.958,0,0,0,65.17,1364.8q.939,2.162,1.937,4.294c.98,2.1,4.183,2.3,5.672.731A76.4,76.4,0,0,0,86.055,1349.7c.375,17.9,4.137,35.624,8.533,52.928,2.445,9.626,4.977,19.238,7.672,28.8a282.485,282.485,0,0,0,9.178,27.832c2.056,5.168,4.306,10.265,6.854,15.21q.9,1.754,1.857,3.48c.956,1.733,2.123,3.547,4.254,3.75a3.632,3.632,0,0,0,5.725-.594c11.114-15.518,17.884-33.687,22.819-52,2.53-9.387,4.613-18.889,6.618-28.4q3.339-15.834,6.224-31.759,1.536-8.479,2.939-16.984a77.706,77.706,0,0,0,8.18,16.863,81.282,81.282,0,0,0,6.783,9.007,3.642,3.642,0,0,0,4.377.565c4.339-2.638,6.077-7.441,7.176-12.146q.772-2.005,1.345-4.09c.634-2.307,1.169-4.647,1.64-7,1.76-6.207,2.265-12.986,2.964-18.986a365.885,365.885,0,0,0,2.436-38.769A374.675,374.675,0,0,0,196.166,1219.5Z" fill="#e59f22"/>
        <path d="M152.54,1238.512a56.469,56.469,0,0,0-3.193-14.263c-2.023-5.08-4.881-9.838-9.248-13.244a29.1,29.1,0,0,0-4.314-2.8,22.026,22.026,0,0,0-7.376-3.393,27.178,27.178,0,0,0-10.477-.339,27.792,27.792,0,0,0-16.256,8.924c-9.521,10.489-12.049,25.722-9.47,39.312,1.473,7.767,5.245,14.824,8.353,22.028a234.69,234.69,0,0,1,12.67,39.821q1.3,5.852,2.3,11.764a5.114,5.114,0,0,0,3.137,3.511,5.478,5.478,0,0,0,4.821-.273c8.032-4.044,12.634-12.06,15.967-20.048,1.689-4.048,3.095-8.217,4.481-12.375,1.557-4.668,3-9.374,4.271-14.13a139.638,139.638,0,0,0,4.866-29.958A90.257,90.257,0,0,0,152.54,1238.512Z" fill="#c12700"/>
        <path d="M674.738,1219.5a367.07,367.07,0,0,0-11.239-42.3,3.692,3.692,0,0,0-4.442-2.522,3.779,3.779,0,0,0-2.5,2.431,12.936,12.936,0,0,0-5.227-6.043,9.4,9.4,0,0,0-4.7-1.5,9.574,9.574,0,0,0-5.04.225,16.054,16.054,0,0,0-3.255,1.463,9.66,9.66,0,0,0-3.167-.413,14.277,14.277,0,0,0-6.636,1.864,156.04,156.04,0,0,1-2.621-1.128l-1.856-1.434a9.4,9.4,0,0,0-4.7-1.5,6.364,6.364,0,0,0-3.36,0,9.4,9.4,0,0,0-4.7,1.5,16.555,16.555,0,0,0-3.015,2.481l-.492-.637a9.475,9.475,0,0,0-4.068-2.614,6.291,6.291,0,0,0-3.189-.862,9.577,9.577,0,0,0-5.041.225,14.5,14.5,0,0,0-4.894,2.667c-.143-.151-.275-.307-.43-.451l-2.558-1.977a9.409,9.409,0,0,0-4.7-1.5,6.364,6.364,0,0,0-3.36,0,9.413,9.413,0,0,0-4.7,1.5l-2.558,1.977c-.165.167-.323.338-.477.511a8.859,8.859,0,0,0-.872-.252,12.791,12.791,0,0,0-9.739,1.274,13.751,13.751,0,0,0-4.372,4.423c-.083.05-.17.087-.251.139l-.062.048q1.933-4.578,4.057-9.074a3.711,3.711,0,0,0-1.3-4.94,3.642,3.642,0,0,0-4.941,1.295c-1.024,2.161-2,4.339-2.965,6.526a3.675,3.675,0,0,0-3.872,2.6c-4.192,12.62-7.949,25.388-11.04,38.323a341.283,341.283,0,0,0-7.1,39.6,258.739,258.739,0,0,0-1.721,38.788,223.221,223.221,0,0,0,4.5,38.058,188.1,188.1,0,0,0,11.592,36.53q.939,2.162,1.937,4.294c.98,2.1,4.184,2.3,5.672.731a76.4,76.4,0,0,0,13.276-20.118c.375,17.9,4.137,35.624,8.533,52.928,2.445,9.626,4.977,19.238,7.672,28.8a282.485,282.485,0,0,0,9.178,27.832c2.056,5.168,4.306,10.265,6.855,15.21q.9,1.754,1.856,3.48c.956,1.733,2.123,3.547,4.255,3.75a3.631,3.631,0,0,0,5.724-.594c11.114-15.518,17.885-33.687,22.819-52,2.53-9.387,4.613-18.889,6.618-28.4q3.339-15.834,6.224-31.759,1.536-8.479,2.94-16.984a77.656,77.656,0,0,0,8.179,16.863,81.167,81.167,0,0,0,6.784,9.007,3.641,3.641,0,0,0,4.376.565c4.339-2.638,6.078-7.441,7.176-12.146q.773-2.005,1.345-4.09c.635-2.307,1.169-4.647,1.64-7,1.76-6.207,2.266-12.986,2.964-18.986a365.885,365.885,0,0,0,2.436-38.769A374.675,374.675,0,0,0,674.738,1219.5Z" fill="#e59f22"/>
        <path d="M631.113,1238.512a56.514,56.514,0,0,0-3.194-14.263c-2.023-5.08-4.881-9.838-9.248-13.244a29.046,29.046,0,0,0-4.314-2.8,22.017,22.017,0,0,0-7.376-3.393,27.178,27.178,0,0,0-10.477-.339,27.787,27.787,0,0,0-16.255,8.924c-9.522,10.489-12.049,25.722-9.471,39.312,1.474,7.767,5.245,14.824,8.353,22.028a234.783,234.783,0,0,1,12.671,39.821q1.3,5.852,2.3,11.764a5.11,5.11,0,0,0,3.136,3.511,5.478,5.478,0,0,0,4.821-.273c8.033-4.044,12.635-12.06,15.967-20.048,1.689-4.048,3.095-8.217,4.481-12.375,1.557-4.668,3-9.374,4.271-14.13a139.638,139.638,0,0,0,4.866-29.958A90.372,90.372,0,0,0,631.113,1238.512Z" fill="#c12700"/>
        <path d="M607.718,1098.907c-43.523,26.781-127.247,25.907-245.155,24.679-114.889-1.192-181.069-1.885-219.435-24.679C-5.3,1010.727,65.58,474.7,196.308,185.176,246,75.126,304.335.7,362.563.005c60.446-.715,122.675,78.01,176.115,193.867C672.938,484.926,751.764,1010.279,607.718,1098.907Z" fill="#3b301b"/>
        <path d="M249.418,1174.341c-14.823,9.833-47.6,9.984-113.148,10.286-61.926.285-92.89.428-106.29-8.572C-51.984,1121.007,50.161,728.8,143.985,729.482,237.178,730.158,333.525,1118.549,249.418,1174.341Z" fill="#c12700"/>
        <path d="M711.724,1176.688c-14.824,9.833-47.6,9.985-113.148,10.287-61.927.285-92.89.428-106.29-8.572-81.964-55.048,20.181-447.254,114.005-446.573C699.484,732.506,795.831,1120.9,711.724,1176.688Z" fill="#c12700"/>
        <path d="M538.678,193.872C496.614,232.18,437.49,256.015,372,256.015c-70.319,0-133.3-27.482-175.688-70.839C246,75.126,304.335.7,362.563.005,423.009-.71,485.238,78.015,538.678,193.872Z" fill="#e59f22"/>
        <circle cx="372.321" cy="500.597" r="141.72" fill="#c12700"/>
        <circle cx="372.321" cy="500.643" r="95.754" fill="#eae2c2"/>
        <path d="M401.48,454.663a6.861,6.861,0,0,0-1.987-4.147,7.425,7.425,0,0,0-8.752-1.13,305.355,305.355,0,0,1-34.414,17.276q-2.812,1.173-5.646,2.293,2.42-3.2,4.867-6.37,11.922-15.394,24.467-30.292a7.728,7.728,0,0,0,2.115-5.107,7.353,7.353,0,0,0-2.115-5.107,7.267,7.267,0,0,0-5.107-2.115,7.108,7.108,0,0,0-5.108,2.115q-18.557,22.031-35.778,45.144-4.689,6.285-9.273,12.648-.363.864-.728,1.726l-.258,1.92a7.327,7.327,0,0,0,9.143,6.964,314.594,314.594,0,0,0,36.837-14.023c-4.9,5.929-9.922,11.763-14.9,17.628-8.217,9.678-16.33,19.477-23.669,29.845a189.354,189.354,0,0,0-11.062,17.47,7.546,7.546,0,0,0-.728,5.565,7.369,7.369,0,0,0,3.319,4.316c3.4,1.8,7.924.937,9.882-2.591a209.912,209.912,0,0,1,17.045-25.566c6.3-8.115,12.962-15.938,19.623-23.756,7.161-8.406,14.268-16.848,21-25.607,3.62-4.713,7.1-9.531,10.374-14.494A6.85,6.85,0,0,0,401.48,454.663Z" fill="#f7f4e7"/>
        <path d="M436.507,461.042a7.369,7.369,0,0,0-3.319-4.316,7.288,7.288,0,0,0-5.566-.728,8.1,8.1,0,0,0-4.316,3.319L394.751,500.36,366.2,541.4l-16.081,23.115a7.224,7.224,0,0,0,8.156,10.61,8.109,8.109,0,0,0,4.317-3.319q14.277-20.521,28.555-41.044T419.7,489.722l16.082-23.115A7.315,7.315,0,0,0,436.507,461.042Z" fill="#f7f4e7"/>
        <path d="M477.344,429.1c-7.13-12.081-17.087-21.993-28.384-30.186-11.546-8.372-24.654-14.384-38.026-19.208-7.56-2.727-15.268-5.021-23.024-7.117a9.369,9.369,0,0,0-6.957.91,9.027,9.027,0,0,0-3.239,12.352,9.383,9.383,0,0,0,5.4,4.149,258.429,258.429,0,0,1,31.319,10.334,131.063,131.063,0,0,1,27.305,15.592,94.511,94.511,0,0,1,15.181,15.046,80.592,80.592,0,0,1,4.838,7.242,9.361,9.361,0,0,0,5.4,4.149,9.23,9.23,0,0,0,6.957-.91,9.112,9.112,0,0,0,4.149-5.4A9.4,9.4,0,0,0,477.344,429.1Z" fill="#cf4327"/>
        <path d="M498.067,476.156a48.424,48.424,0,0,0-3.416-9.259,9.089,9.089,0,0,0-5.4-4.149,9.23,9.23,0,0,0-6.957.91,9.119,9.119,0,0,0-4.149,5.4q-.161,1.2-.322,2.4a8.982,8.982,0,0,0,1.233,4.556c.019.042.036.084.056.125a37.261,37.261,0,0,1,2.043,7.436c.078.816.139,1.632.164,2.452a9.433,9.433,0,0,0,2.644,6.384,9.028,9.028,0,0,0,15.412-6.384A49,49,0,0,0,498.067,476.156Z" fill="#cf4327"/>
        <path d="M334.269,607.7l-1.412-1.827a9.015,9.015,0,0,0-3.984-2.322c-.282-.113-.562-.231-.843-.346a120.579,120.579,0,0,1-24.785-14.488,126.4,126.4,0,0,1-20.979-20.984,123.77,123.77,0,0,1-14.793-25.256,118.343,118.343,0,0,1-4.345-12.527,9.378,9.378,0,0,0-4.149-5.4,9.029,9.029,0,0,0-12.353,3.239,9.354,9.354,0,0,0-.91,6.957,127.929,127.929,0,0,0,20.18,41.08,139.21,139.21,0,0,0,15.69,17.973,137.334,137.334,0,0,0,18.768,14.935,129.771,129.771,0,0,0,23.719,12.224c2.035.813,5.149.148,6.957-.91a9.027,9.027,0,0,0,3.239-12.352Z" fill="#cf4327"/>
        <path d="M389.709,620.017a6.73,6.73,0,0,0-1.071-3.357,9.112,9.112,0,0,0-5.4-4.149l-2.4-.322a8.964,8.964,0,0,0-3.866.888,17.4,17.4,0,0,1-1.93.522,17.7,17.7,0,0,1-2.073,0c-.36-.075-.719-.159-1.075-.257a6.838,6.838,0,0,0-3.6-.161,6.726,6.726,0,0,0-3.357,1.071,10.107,10.107,0,0,0-4.149,5.4,9.144,9.144,0,0,0,.91,6.957,9.425,9.425,0,0,0,5.4,4.149,31.954,31.954,0,0,0,5.148.847,16.942,16.942,0,0,0,3.1.037,31.828,31.828,0,0,0,5.162-.773,30.81,30.81,0,0,0,4.895-1.856,8.695,8.695,0,0,0,4.31-8.995Z" fill="#cf4327"/>
        <path d="M683.068,928.346q-2.457-17.028-6.171-33.841-3.716-16.8-8.677-33.287-4.956-16.474-11.132-32.548c-3.977-10.347-8.093-20.814-13.776-30.367a96.656,96.656,0,0,0-10.483-14.358,67.256,67.256,0,0,0-13.343-11.42c-.955-.634-1.935-1.227-2.933-1.788a12.093,12.093,0,0,0-6.042-1.928,16.694,16.694,0,0,0-16.192,7.758c-1.993,3.771-2.992,8.34-1.639,12.522a16.748,16.748,0,0,0,7.469,9.712,46.828,46.828,0,0,1,4,2.527,56.4,56.4,0,0,1,6.861,6.97,108.826,108.826,0,0,1,11.539,20.946c5.316,12.843,9.9,26.018,13.94,39.31q6.543,21.511,10.969,43.591,2.477,12.359,4.274,24.841A18.19,18.19,0,0,0,659.2,946.7a12.1,12.1,0,0,0,6.042,1.928,12.309,12.309,0,0,0,6.48-.29c3.932-1.273,7.726-3.709,9.712-7.468l1.638-3.882A16.365,16.365,0,0,0,683.068,928.346Z" fill="#cf4327"/>
        <path d="M696.768,995.2a16.7,16.7,0,0,0-16.251-16.251l-4.32.581a16.237,16.237,0,0,0-7.171,4.179L666.485,987a16.187,16.187,0,0,0-2.219,8.2q1.016,7.7,2.03,15.388a16.7,16.7,0,0,0,16.251,16.251l4.32-.581a16.237,16.237,0,0,0,7.171-4.179l2.541-3.289a16.176,16.176,0,0,0,2.218-8.2Q697.783,1002.892,696.768,995.2Z" fill="#cf4327"/>
        <path d="M704.181,1078.814a16.7,16.7,0,0,0-14.851-9.989c-4.2.188-8.562,1.568-11.491,4.759a17.167,17.167,0,0,0-4.76,11.491c-.206,10.007-.463,20.034-1.649,29.979a100.64,100.64,0,0,1-5.531,21.45c-.158.346-.3.7-.467,1.04a12.1,12.1,0,0,0-1.928,6.042,16.7,16.7,0,0,0,7.758,16.192c3.772,1.992,8.341,2.991,12.522,1.638l3.882-1.638a16.327,16.327,0,0,0,5.83-5.83,106.532,106.532,0,0,0,8.691-26.659,210.592,210.592,0,0,0,3-28.344c.2-4.621.3-9.245.4-13.87A12.249,12.249,0,0,0,704.181,1078.814Z" fill="#cf4327"/>
        <path d="M200.2,838.027a229.17,229.17,0,0,0-23.591-48.335,237.981,237.981,0,0,0-19.27-25.557,12.188,12.188,0,0,0-5.23-3.36,14.7,14.7,0,0,0-12.523,0,12.179,12.179,0,0,0-5.229,3.36c-2.843,3.1-4.954,7.163-4.76,11.491q.29,2.16.58,4.32a16.233,16.233,0,0,0,4.18,7.171c1.987,2.3,3.909,4.662,5.794,7.05A209.764,209.764,0,0,1,161.1,828.218c1.445,2.948,2.8,5.938,4.11,8.949a210.463,210.463,0,0,1,11.842,39.426q.945,4.846,1.653,9.735c.18,1.455.35,2.911.5,4.37a15.688,15.688,0,0,0,9.99,14.851,12.245,12.245,0,0,0,6.261,1.4c4.2-.189,8.561-1.569,11.491-4.76l2.541-3.289a16.176,16.176,0,0,0,2.218-8.2A225.96,225.96,0,0,0,200.2,838.027Z" fill="#cf4327"/>
        <path d="M227.052,955.984a59.141,59.141,0,0,0-1.044-7.277,23.89,23.89,0,0,0-.9-3.078,59.034,59.034,0,0,0-2.844-6.621,18.178,18.178,0,0,0-9.712-7.468,12.309,12.309,0,0,0-6.48-.291,12.1,12.1,0,0,0-6.042,1.929l-3.289,2.541a16.237,16.237,0,0,0-4.179,7.171q-.291,2.16-.581,4.32a16.164,16.164,0,0,0,2.07,7.925q.334,1.038.576,2.1c.026.65.031,1.3.006,1.953a15.686,15.686,0,0,0,9.989,14.851,12.239,12.239,0,0,0,6.261,1.4l4.32-.581a16.231,16.231,0,0,0,7.171-4.179l2.541-3.289a16.177,16.177,0,0,0,2.219-8.2A24.5,24.5,0,0,0,227.052,955.984Z" fill="#cf4327"/>
        <path d="M240.008,1051.663a15.688,15.688,0,0,0-9.99-14.851,12.239,12.239,0,0,0-6.261-1.4c-4.2.188-8.562,1.569-11.491,4.76l-2.541,3.289a16.171,16.171,0,0,0-2.219,8.2,244.077,244.077,0,0,1,.859,46.881q-.428,5.454-1.106,10.884a85.645,85.645,0,0,1-4.351,17.84,43.168,43.168,0,0,1-3.3,5.787,32.866,32.866,0,0,1-2.681,2.715,16.776,16.776,0,0,0-5.278,21.892c2.237,3.47,5.568,6.525,9.711,7.469l4.321.58a16.177,16.177,0,0,0,8.2-2.219,47.549,47.549,0,0,0,9.407-8.267,58.248,58.248,0,0,0,6.964-10.082,79.9,79.9,0,0,0,7.172-20.367c.6-2.879,1.065-5.783,1.459-8.7.694-5.13,1.356-10.257,1.806-15.416q1-11.475.912-23.011A244.552,244.552,0,0,0,240.008,1051.663Z" fill="#cf4327"/>
        <path d="M461.72,118.3c-7.465-14.89-14.98-29.874-24.776-43.4A150.69,150.69,0,0,0,418.751,53.47a148.108,148.108,0,0,0-12.2-10.064,88.575,88.575,0,0,0-9.238-6.175,109.622,109.622,0,0,0-15.594-7.218,68.087,68.087,0,0,0-12-3.406,15.045,15.045,0,0,0-7.92-.355,14.781,14.781,0,0,0-7.385,2.357,15.009,15.009,0,0,0-5.572,5.115,14.953,14.953,0,0,0-3.555,6.755q-.356,2.64-.71,5.28a19.768,19.768,0,0,0,2.712,10.025L350.4,59.8a19.848,19.848,0,0,0,8.764,5.108,68.567,68.567,0,0,1,11.785,3.336,84.466,84.466,0,0,1,13.866,8.208A112.467,112.467,0,0,1,401.2,93.02c8.069,10.8,14.646,22.614,20.795,34.589,1.832,3.568,3.631,7.155,5.429,10.741a15.013,15.013,0,0,0,5.116,5.573,17.832,17.832,0,0,0,14.674,3.909,14.778,14.778,0,0,0,7.385-2.357l4.02-3.1a19.857,19.857,0,0,0,5.108-8.765q.354-2.64.709-5.28A19.768,19.768,0,0,0,461.72,118.3Z" fill="#f1c24e"/>
        <path d="M492.147,187.44q-.355-2.64-.71-5.28a19.844,19.844,0,0,0-5.108-8.764l-4.02-3.106a19.772,19.772,0,0,0-10.024-2.712h-1.143A22.1,22.1,0,0,0,457.1,173.4a14.9,14.9,0,0,0-4.107,6.392,14.965,14.965,0,0,0-1.71,7.652q.354,2.64.709,5.281a19.854,19.854,0,0,0,5.108,8.764l4.02,3.106a19.777,19.777,0,0,0,10.025,2.711h1.143a19.175,19.175,0,0,0,18.151-12.209A14.957,14.957,0,0,0,492.147,187.44Z" fill="#f1c24e"/>
        <path d="M595.871,455.46q-3.6-17.721-8.158-35.229-4.58-17.58-10.113-34.893-5.507-17.224-11.94-34.134c-4.877-12.817-10.145-25.494-15.708-38.028q-7.333-16.53-15.562-32.642-1.023-2-2.06-4a19.134,19.134,0,0,0-19.791-9.482,14.777,14.777,0,0,0-7.384,2.357l-4.02,3.1a19.848,19.848,0,0,0-5.108,8.765q-.355,2.64-.71,5.28a19.788,19.788,0,0,0,2.712,10.025q9.52,18.344,17.893,37.252,1.782,4.027,3.506,8.081,9.51,22.782,17.333,46.219,8.166,24.509,14.416,49.6,3.5,14.071,6.389,28.285a22.213,22.213,0,0,0,9.128,11.87,14.774,14.774,0,0,0,7.384,2.357,15.044,15.044,0,0,0,7.92-.354l4.745-2a19.958,19.958,0,0,0,7.126-7.125q1-2.373,2-4.745A20,20,0,0,0,595.871,455.46Z" fill="#574730"/>
        <path d="M630.945,621.74a568.213,568.213,0,0,0-8.637-58.112q-3.03-14.892-6.936-29.585a22.221,22.221,0,0,0-9.128-11.871,14.788,14.788,0,0,0-7.385-2.357,15.045,15.045,0,0,0-7.92.355l-4.744,2a19.961,19.961,0,0,0-7.126,7.126l-2,4.745a20,20,0,0,0,0,10.56q6.5,24.479,10.585,49.513c.626,3.848,1.2,7.705,1.737,11.566a517.124,517.124,0,0,1,4.117,53.708q.193,8.033.134,16.068A20.415,20.415,0,0,0,613.5,695.32l5.28-.709a19.857,19.857,0,0,0,8.765-5.108l3.105-4.02a19.768,19.768,0,0,0,2.712-10.025A516.347,516.347,0,0,0,630.945,621.74Z" fill="#574730"/>
      </g>
    </g>
  </g>

</g>
</g>
</g>

<!-- ITEM 1 -->
<g transform="translate(377.0 460.0) rotate(301.40950234826016 56.5 67.5) scale(1.1169760591503075 1.115306130879109)">
<g transform="translate(-0.0 -0.0)">
<g clip-path="url(#clipPathId-collage-item-1)">
		<defs>
			<clipPath id="clipPathId-collage-item-1">
				<rect x="0.0" y="0.0" width="101.166" height="121.043"/>
			</clipPath>
		</defs>

  <title>screwdriver</title>
  <g id="Слой_2-i1" data-name="Слой 2">
    <g id="Слой_1-2-i1" data-name="Слой 1">
      <g>
        <path d="M62.337,51.542A31.939,31.939,0,0,0,52.164,45.8c-5.478-2.513-13.105-4.785-17.611-.139-.047.049-.088.1-.134.148a4.882,4.882,0,0,0-2.446,5.145,10.932,10.932,0,0,0,1.1,5.687c-.72,2.686-3.23,5.111-5.127,6.988-3.667,3.629-7.465,7.135-11.2,10.7C10.965,79.851,4.569,85.4,1.613,93.05c-2.628,6.8-2.34,15.351,3.08,20.77a15.493,15.493,0,0,0,2.054,1.7,4.193,4.193,0,0,0,1.2,1.486,17.36,17.36,0,0,0,14.313,3.71,20.143,20.143,0,0,0,5.378-.987c12.223-1.837,20.676-14.865,25.179-26.016C54.1,90.553,55.3,87,57.676,84.479c2.6-2.757,6.722-2.847,9.564-5.316.17-.148.307-.307.462-.46a10.824,10.824,0,0,0,5.618-8.622C73.84,62.7,67.632,55.86,62.337,51.542Z" fill="#cf4327"/>
        <path d="M91.714,2.314a482.207,482.207,0,0,1-36.191,49.02c-4.119,4.894,2.92,12,7.07,7.071A502.411,502.411,0,0,0,100.348,7.361C103.849,1.938,95.2-3.081,91.714,2.314Z" fill="#eae2c2"/>
        <path d="M55.355,65.893a18.54,18.54,0,0,1-9.268-4.827c-4.632-4.472-11.712,2.591-7.071,7.071a28.243,28.243,0,0,0,13.68,7.4,5.117,5.117,0,0,0,6.151-3.492A5.051,5.051,0,0,0,55.355,65.893Z" fill="#db6653"/>
        <path d="M39.2,86.651a27.057,27.057,0,0,1-15.26,15.337c-2.507,1.059-3,4.713-1.793,6.841,1.475,2.593,4.367,2.839,6.841,1.794A36.6,36.6,0,0,0,48.841,89.309C51.092,83.271,41.43,80.664,39.2,86.651Z" fill="#db6653"/>
      </g>
    </g>
  </g>

</g>
</g>
</g>

<!-- ITEM 2 -->
<g transform="translate(804.0 734.0) rotate(14.71297655785439 -196.5 419.0) scale(-0.8904961627092836 0.8893983294594623)">
<g transform="translate(-0.0 -0.0)">
<g clip-path="url(#clipPathId-collage-item-2)">
		<defs>
			<clipPath id="clipPathId-collage-item-2">
				<rect x="0.0" y="0.0" width="441.327" height="942.21"/>
			</clipPath>
		</defs>

  <title>Staircase</title>
  <g id="Слой_2-i2" data-name="Слой 2">
    <g id="Слой_1-2-i2" data-name="Слой 1">
      <g>
        <path d="M252.5.548c-10.469-2.384-21.756,3.143-24.6,13.969q-22.156,84.248-44.312,168.494L139.268,351.505,94.955,520,50.423,689.328,6.11,857.822Q3.37,868.249.627,878.675c-2.658,10.106,3.354,22.185,13.968,24.6,10.469,2.384,21.756-3.143,24.6-13.969L83.51,720.815l44.313-168.494,44.313-168.495Q194.4,299.163,216.668,214.5L260.98,46l5.484-20.853C269.122,15.045,263.11,2.966,252.5.548Z" fill="#1483ab"/>
        <path d="M390.37,128.091c-2.4-3.726-6-7.048-10.459-8.042q-26.755-5.967-53.2-13.214t-52.5-15.774q-14.692-4.8-29.249-10.01a13.257,13.257,0,0,0-6.978-.312,13.03,13.03,0,0,0-6.507,2.077c-3.63,2.124-7.092,6.286-8.042,10.458-1.021,4.48-.8,9.508,1.764,13.485l2.736,3.542a17.483,17.483,0,0,0,7.722,4.5q25.815,9.225,52.053,17.2t52.823,14.662q14.991,3.773,30.08,7.134a18.49,18.49,0,0,0,13.485-1.764c3.63-2.124,7.092-6.286,8.042-10.458C393.154,137.1,392.934,132.067,390.37,128.091Z" fill="#309ac0"/>
        <path d="M368.969,254.081c-2.389-3.706-6.006-7.093-10.458-8.043a620.239,620.239,0,0,1-87.975-25.675q-10.781-4.034-21.4-8.474-14.31-6.1-28.308-12.894a13.03,13.03,0,0,0-6.507-2.077,13.247,13.247,0,0,0-6.978.313,17.845,17.845,0,0,0-10.459,8.042c-2.146,4.062-3.221,8.982-1.764,13.485,1.343,4.148,3.979,8.482,8.042,10.458,18.87,9.176,38.206,17.455,57.855,24.815q27.579,10.332,56.057,18.011,15.961,4.3,32.135,7.746a18.57,18.57,0,0,0,13.485-1.764c3.63-2.124,7.092-6.287,8.042-10.459C371.754,263.086,371.533,258.057,368.969,254.081Z" fill="#309ac0"/>
        <path d="M316.546,392.168l-2.737-3.542a17.486,17.486,0,0,0-7.722-4.5q-38.769-14-76.942-29.578-9.618-3.927-19.193-7.96-13.724-5.808-27.363-11.813a13.03,13.03,0,0,0-6.507-2.077,13.258,13.258,0,0,0-6.978.313,17.846,17.846,0,0,0-10.458,8.042c-2.146,4.062-3.222,8.982-1.765,13.485q.882,2.089,1.765,4.18A17.584,17.584,0,0,0,164.923,365q26.514,11.685,53.337,22.655,24.831,10.163,49.926,19.656,14.259,5.393,28.6,10.568a13.261,13.261,0,0,0,6.979.312,13.022,13.022,0,0,0,6.506-2.076c3.631-2.125,7.092-6.287,8.043-10.459C319.33,401.173,319.109,396.145,316.546,392.168Z" fill="#309ac0"/>
        <path d="M284.248,539.314l-2.736-3.542a17.492,17.492,0,0,0-7.722-4.5l-49.264-19.911-49.262-19.91L147.51,480.234a13.251,13.251,0,0,0-6.979-.313A13.026,13.026,0,0,0,134.025,482c-3.63,2.124-7.092,6.287-8.042,10.459-1.021,4.479-.8,9.508,1.764,13.484l2.736,3.542a17.494,17.494,0,0,0,7.722,4.5l49.263,19.91,49.264,19.91,27.753,11.218a13.257,13.257,0,0,0,6.978.312,13.028,13.028,0,0,0,6.507-2.076c3.63-2.125,7.092-6.287,8.042-10.459C287.032,548.319,286.812,543.291,284.248,539.314Z" fill="#309ac0"/>
        <path d="M258.058,658.079l-2.736-3.542a17.477,17.477,0,0,0-7.722-4.5q-26.034-9.734-52.425-18.471-26.5-8.769-53.328-16.515-15.042-4.343-30.176-8.361a18.191,18.191,0,0,0-13.484,1.765c-3.63,2.124-7.092,6.286-8.042,10.458-1.021,4.48-.8,9.508,1.763,13.485a18.131,18.131,0,0,0,10.459,8.042q26.862,7.135,53.44,15.289,26.685,8.192,53.043,17.406,14.78,5.166,29.446,10.652a13.256,13.256,0,0,0,6.978.312,13.023,13.023,0,0,0,6.506-2.077c3.63-2.124,7.092-6.286,8.042-10.458C260.843,667.084,260.622,662.056,258.058,658.079Z" fill="#309ac0"/>
        <path d="M217.482,808.867c-1.324-4.088-3.973-8.594-8.043-10.459q-26.66-12.21-53.609-23.776-28.806-12.361-57.9-24.051Q82.51,744.4,67,738.429a13.247,13.247,0,0,0-6.978-.313,13.023,13.023,0,0,0-6.506,2.077c-3.631,2.124-7.093,6.286-8.043,10.458-1.02,4.48-.8,9.509,1.764,13.485l2.737,3.542a17.472,17.472,0,0,0,7.722,4.5q27.821,10.713,55.373,22.106,6.966,2.88,13.913,5.812,25.173,10.653,50.105,21.866,7.353,3.309,14.685,6.668a13.023,13.023,0,0,0,6.506,2.077,13.267,13.267,0,0,0,6.978-.313,17.849,17.849,0,0,0,10.459-8.042C217.863,818.29,218.939,813.37,217.482,808.867Z" fill="#309ac0"/>
        <path d="M426.732,38.933c-10.469-2.385-21.756,3.142-24.6,13.969Q379.972,137.148,357.817,221.4L313.5,389.89,269.191,558.384,224.659,727.712,180.346,896.206q-2.74,10.428-5.484,20.854c-2.657,10.106,3.354,22.184,13.969,24.6,10.469,2.384,21.756-3.143,24.6-13.969L257.746,759.2l44.313-168.494,44.313-168.494q22.264-84.665,44.531-169.329L435.216,84.388,440.7,63.535C443.358,53.429,437.346,41.35,426.732,38.933Z" fill="#1483ab"/>
        <path d="M431.934,60.7c-2.034-5.272-7.7-9.548-13.539-7.6-2.476.827-4.354,3.486-3.492,6.151.8,2.465,3.494,4.379,6.151,3.492.086-.028.182-.053.278-.079.06.034.118.068.178.1a7.293,7.293,0,0,0,.659.621c.07.1.148.214.161.237s.108.228.177.352c.022.066.044.132.063.2.023.083.109.6.153.8,0,.072.007.132.007.147,0,.23.009.46.006.69s-.019.461-.027.692c0,.022-.011.152-.019.269s-.03.227-.034.25c-.059.308-.116.615-.183.922-.117.539-.254,1.073-.4,1.605-.551,2.039-1.195,4.055-1.8,6.077l-7.5,24.97-4.287,14.269a5.05,5.05,0,0,0,3.492,6.15,5.1,5.1,0,0,0,6.151-3.492l8.431-28.061q2.073-6.9,4.144-13.793C432.123,70.938,433.807,65.56,431.934,60.7Z" fill="#309ac0"/>
        <path d="M395.531,194.4c-2.89-.658-5.106.886-6.15,3.493a469.461,469.461,0,0,0-16.523,48.834c-.837,3.011-1.632,6.033-2.408,9.06-.075.107-.162.2-.23.314a10.347,10.347,0,0,0-1.1,7.61c1.051,4.842,8.5,4.69,9.643,0a469.309,469.309,0,0,1,14.968-49.334q2.537-6.954,5.293-13.826C400,198.118,397.962,194.955,395.531,194.4Z" fill="#309ac0"/>
        <path d="M366.594,296.322a5,5,0,1,0,5,5A5.057,5.057,0,0,0,366.594,296.322Z" fill="#309ac0"/>
        <path d="M252.659,15.406a5.082,5.082,0,0,0-6.15-3.492c-6.5,1.922-9.92,7.756-11.9,13.839-.948,2.912-1.591,5.917-2.392,8.871q-1.477,5.452-3.239,10.82a5.04,5.04,0,0,0,3.492,6.151,5.113,5.113,0,0,0,6.15-3.492c1.984-6.064,3.431-12.251,5.222-18.365q.5-1.711,1.144-3.373c.123-.247.231-.5.355-.748.272-.545.566-1.079.891-1.6.142-.227.3-.444.443-.669l.01-.01c.348-.369.7-.723,1.063-1.078.183-.112.359-.242.545-.349.094-.055.192-.105.289-.155.254-.087.56-.2.584-.2A5.071,5.071,0,0,0,252.659,15.406Z" fill="#309ac0"/>
        <path d="M175.767,260.149c-2.905-.661-5.088.892-6.15,3.492a247.393,247.393,0,0,0-13.549,44.983c-.005.025-.014.047-.019.071-.048.24-.1.481-.147.721-.5,2.559.726,5.52,3.493,6.151,2.493.567,5.592-.752,6.151-3.493A247.314,247.314,0,0,1,179.259,266.3C180.252,263.872,178.185,260.7,175.767,260.149Z" fill="#309ac0"/>
        <path d="M122.213,456.383c-2.409-.548-5.7.733-6.15,3.493a580.958,580.958,0,0,1-18.98,79.84q-3.506,11.163-7.46,22.176a5.029,5.029,0,0,0,3.492,6.151,5.129,5.129,0,0,0,6.151-3.492,581.092,581.092,0,0,0,22.189-79.009q2.358-11.46,4.251-23.008C126.128,459.963,125.037,457.026,122.213,456.383Z" fill="#309ac0"/>
      </g>
    </g>
  </g>

</g>
</g>
</g>

<!-- ITEM 3 -->
<g transform="translate(443.0 518.0) rotate(0.0 183.5 158.5) scale(0.8596075786002215 0.8620361456922667)">
<g transform="translate(-0.0 -0.0)">
<g clip-path="url(#clipPathId-collage-item-3)">
		<defs>
			<clipPath id="clipPathId-collage-item-3">
				<rect x="0.0" y="0.0" width="426.939" height="367.734"/>
			</clipPath>
		</defs>

<g>
	<path style="fill:#E59F22;" d="M118.938,144.803c-17.266,0-43.755-3.383-69.165-20.102c-12.829-8.442-23.885-19.237-32.858-32.085   c-2.644-3.786-1.719-8.999,2.068-11.643c3.785-2.642,8.998-1.719,11.643,2.067c7.754,11.103,17.289,20.419,28.34,27.691   c25.868,17.022,53.2,18.032,67.189,17.118c4.619-0.298,8.587,3.191,8.887,7.799c0.301,4.608-3.19,8.588-7.799,8.888   C124.808,144.695,122.019,144.803,118.938,144.803z"/>
	<path style="fill:#E59F22;" d="M195.533,148.477c-2.551,0-4.783-0.083-6.645-0.196c-4.609-0.281-8.118-4.244-7.837-8.854   c0.281-4.609,4.251-8.114,8.854-7.837c12.616,0.767,45.08-0.083,73.967-24.526c28.217-23.876,34.743-54.958,36.239-67.214   c0.56-4.584,4.723-7.849,9.313-7.287c4.584,0.56,7.846,4.729,7.287,9.313c-1.736,14.211-9.305,50.256-42.037,77.953   C245.43,144.574,213.031,148.477,195.533,148.477z"/>
	<path style="fill:#E59F22;" d="M129.076,364.267c-3.288,0-6.406-1.951-7.735-5.18c-1.759-4.27,0.277-9.157,4.548-10.915   l8.851-3.644c-6.279-10.707-10.746-22.238-13.314-34.401c-5.312-25.147-1.06-46.719,3.442-60.387   c1.444-4.387,6.173-6.768,10.557-5.327c4.386,1.445,6.771,6.171,5.327,10.557c-3.859,11.716-7.506,30.197-2.964,51.701   c2.807,13.292,8.273,25.711,16.245,36.911c1.478,2.077,1.929,4.716,1.222,7.166c-0.707,2.45-2.493,4.444-4.851,5.414l-18.147,7.472   C131.215,364.064,130.136,364.267,129.076,364.267z"/>
	<path style="fill:#E59F22;" d="M245.319,367.734c-3.205,0-6.262-1.852-7.646-4.97c-1.874-4.22,0.027-9.161,4.248-11.035   l6.307-2.801c-5.73-10.861-11.844-27.229-11.59-47.333c0.263-20.738,7.115-37.082,12.816-47.14   c2.277-4.018,7.379-5.429,11.397-3.151c4.018,2.277,5.428,7.38,3.151,11.397c-4.735,8.354-10.425,21.919-10.643,39.107   c-0.277,21.837,8.533,38.392,13.808,46.316c1.365,2.052,1.757,4.6,1.068,6.967c-0.687,2.367-2.384,4.309-4.636,5.309l-14.893,6.613   C247.605,367.503,246.453,367.734,245.319,367.734z"/>
	<path style="fill:#CF4427;" d="M246.752,213.643c0.281,1.162,0.718,2.571,1.209,3.921c0.25,0.68,0.531,1.36,0.796,2.041   l0.899,2.018c1.25,2.676,2.773,5.211,4.469,7.573c3.363,4.779,7.663,8.637,12.553,11.586l0.451,0.291l0.481,0.24l0.961,0.486   l1.92,0.986l2.004,0.833c0.661,0.299,1.369,0.479,2.05,0.732c2.761,0.898,5.622,1.601,8.547,1.915   c2.921,0.327,5.881,0.381,8.826,0.154c2.943-0.247,5.848-0.828,8.67-1.657c2.829-0.817,5.545-1.974,8.088-3.408l0.964-0.524   l0.918-0.594l0.921-0.591l0.463-0.294l0.51-0.358c1.288-0.907,2.436-1.8,3.571-2.774c4.491-3.887,8.037-8.616,9.977-13.867   c1.98-5.272,2.368-10.895,1.21-16.863c-0.578-2.982-1.483-6.027-2.647-9.138c-1.168-3.123-2.551-6.275-4.032-9.651   c-0.734-1.679-1.491-3.43-2.223-5.299c-0.729-1.868-1.454-3.847-2.011-6.187c-0.53-2.318-0.987-5.074-0.451-8.395   c0.155-0.824,0.382-1.679,0.645-2.5c0.338-0.82,0.658-1.67,1.113-2.421c0.882-1.529,2.01-2.892,3.313-3.999   c0.66-0.535,1.337-1.101,2.039-1.475c0.698-0.406,1.421-0.83,2.107-1.081c0.692-0.279,1.415-0.586,2.066-0.741   c0.656-0.171,1.365-0.396,1.977-0.479c2.58-0.498,4.856-0.522,6.991-0.441c2.144,0.082,4.154,0.299,6.083,0.571   c1.942,0.264,3.8,0.586,5.627,0.911c3.641,0.653,7.141,1.346,10.495,1.837c1.681,0.253,3.318,0.445,4.885,0.549   c1.581,0.124,3.062,0.112,4.396-0.005c1.335-0.114,2.498-0.368,3.293-0.737c0.811-0.355,1.324-0.786,1.777-1.338   c0.414-0.544,0.701-1.153,0.814-2.206c0.119-1.027,0.037-2.373-0.214-3.842c-0.503-2.966-1.574-6.319-2.628-9.849   c-1.043-3.547-2.146-7.301-2.648-11.485c-0.247-2.086-0.338-4.28-0.127-6.539c0.21-2.254,0.736-4.577,1.66-6.757   c0.93-2.172,2.201-4.192,3.728-5.92c1.521-1.734,3.26-3.18,5.066-4.374c3.632-2.385,7.487-3.835,11.292-4.886   c3.816-1.021,7.622-1.638,11.398-2.023c7.555-0.758,15.002-0.67,22.371-0.249c2.09,0.119,3.687,1.91,3.568,3.999   c-0.116,2.03-1.809,3.595-3.821,3.574l-0.022,0c-7.108-0.087-14.202,0.168-21.041,1.172c-3.414,0.503-6.755,1.215-9.901,2.213   c-3.128,1.012-6.067,2.336-8.424,4.057c-2.368,1.718-4.035,3.81-4.902,6.179c-0.861,2.357-0.923,5.09-0.42,8.103   c0.492,3.006,1.547,6.21,2.709,9.556c1.156,3.365,2.511,6.867,3.436,11.014c0.444,2.081,0.785,4.368,0.641,6.959   c-0.02,0.634-0.139,1.325-0.222,1.984c-0.13,0.678-0.29,1.367-0.485,2.048c-0.443,1.368-1.041,2.741-1.858,3.955   c-1.588,2.44-3.912,4.435-6.365,5.659c-2.455,1.257-4.884,1.813-7.136,2.133c-2.262,0.312-4.417,0.394-6.454,0.336   c-2.052-0.043-4.027-0.19-5.941-0.388c-3.84-0.388-7.482-0.946-11-1.411c-1.753-0.23-3.48-0.449-5.138-0.596   c-1.669-0.161-3.273-0.25-4.752-0.236c-1.482,0.002-2.854,0.127-3.822,0.388c-1.002,0.249-1.477,0.592-1.559,0.73   c-0.064,0.075-0.08,0.151-0.094,0.193c-0.025,0.017,0.039,0.052-0.001,0.053c0.021,0.048,0.016,0.075,0.002,0.137   c-0.01,0.278,0.061,1.184,0.416,2.365c0.334,1.175,0.902,2.593,1.563,4.069c0.657,1.478,1.406,3.024,2.198,4.631   c3.163,6.408,6.748,13.56,8.713,21.771c1.004,4.085,1.525,8.462,1.428,12.891c-0.095,4.433-0.852,8.894-2.215,13.117   c-1.353,4.236-3.313,8.26-5.727,11.904c-2.402,3.659-5.222,6.967-8.327,9.912c-3.148,2.973-6.357,5.435-10.094,7.778   c-3.668,2.293-7.587,4.173-11.657,5.572c-16.244,5.753-34.727,4.49-50.284-3.686c-7.744-4.129-14.682-9.905-20.005-16.74   c-2.692-3.398-5.073-7.008-7.076-10.81l-1.449-2.884c-0.446-0.984-0.899-1.962-1.32-2.964c-0.839-2.02-1.593-4.039-2.28-6.369   l-0.007-0.022c-1.821-6.175,1.708-12.656,7.883-14.478c6.175-1.821,12.656,1.708,14.477,7.883   C246.653,213.259,246.709,213.471,246.752,213.643z"/>
	<path style="fill:#E59F22;" d="M127.411,278.764c-18.912-18.453-19.737-44.442-20.87-80.132   c-0.906-28.54,2.763-52.121,5.396-68.564c2.066-12.904,4.373-23.608,6.171-31.231C96.772,84.257,81.538,70.106,71.593,59.895   c-23.96-24.603-22.024-30.706-21.31-32.27c3.373-7.395,20.601-6.251,35.983-5.229c11.048,0.734,30.16,2.18,53.575,12.346   c22.508,9.772,36.912,22.357,49.357,33.411c3.348,2.973,19.421,17.416,33.494,36.542c29.438,40.009,70.044,127.582,36.517,165.983   c-10.015,11.471-24.211,15.768-42.359,21.26c-14.036,4.248-37.05,11.214-62.776,2.323   C148.05,292.179,137.182,288.297,127.411,278.764z"/>
	
		<ellipse transform="matrix(0.9747 -0.2233 0.2233 0.9747 -5.2383 47.158)" style="fill:#E59F22;" cx="205.899" cy="46.741" rx="50.445" ry="46.527"/>
	
		<ellipse transform="matrix(0.4573 -0.8893 0.8893 0.4573 19.7785 146.4059)" style="fill:#3B301B;" cx="129.849" cy="56.997" rx="17.393" ry="17.59"/>
	<path style="fill:#CF4427;" d="M169.802,278.709c-0.872,0-1.762-0.023-2.644-0.068c-1.472-0.076-2.604-1.33-2.528-2.802   c0.075-1.473,1.357-2.607,2.802-2.528c2.257,0.116,4.498,0.066,6.716-0.148c1.442-0.134,2.77,0.934,2.911,2.402   c0.14,1.467-0.935,2.77-2.402,2.911C173.051,278.631,171.417,278.709,169.802,278.709z M160.245,277.754   c-0.176,0-0.353-0.018-0.532-0.054c-2.47-0.5-4.902-1.188-7.233-2.045c-1.384-0.509-2.092-2.043-1.584-3.426   c0.51-1.385,2.046-2.09,3.426-1.584c2.076,0.764,4.246,1.378,6.449,1.823c1.444,0.292,2.378,1.701,2.086,3.145   C162.601,276.881,161.488,277.754,160.245,277.754z M184.82,276.274c-1.113,0-2.152-0.701-2.528-1.814   c-0.472-1.397,0.277-2.911,1.673-3.383c2.126-0.719,4.185-1.608,6.121-2.645c1.298-0.694,2.917-0.206,3.612,1.094   c0.695,1.299,0.205,2.916-1.094,3.612c-2.194,1.175-4.526,2.183-6.929,2.995C185.392,276.228,185.103,276.274,184.82,276.274z    M143.918,270.974c-0.515,0-1.037-0.149-1.496-0.461c-2.104-1.428-4.078-3.035-5.869-4.779c-1.056-1.028-1.079-2.717-0.051-3.773   c1.029-1.055,2.718-1.078,3.773-0.051c1.568,1.526,3.298,2.934,5.144,4.187c1.219,0.828,1.537,2.487,0.709,3.707   C145.613,270.564,144.774,270.974,143.918,270.974z M197.293,269.569c-0.79,0-1.572-0.349-2.098-1.018   c-0.912-1.157-0.712-2.835,0.446-3.747c1.723-1.356,3.346-2.887,4.825-4.548c0.981-1.102,2.667-1.198,3.767-0.219   c1.101,0.98,1.198,2.667,0.219,3.767c-1.687,1.896-3.542,3.642-5.51,5.192C198.452,269.382,197.87,269.569,197.293,269.569z    M133.783,261.107c-0.83,0-1.648-0.386-2.169-1.111c-1.429-1.989-2.737-4.16-3.884-6.453c-0.659-1.318-0.126-2.921,1.192-3.58   c1.315-0.661,2.92-0.126,3.58,1.192c1.021,2.04,2.18,3.966,3.445,5.724c0.86,1.197,0.587,2.864-0.608,3.725   C134.868,260.943,134.322,261.107,133.783,261.107z M208.518,255.948c-0.424,0-0.855-0.102-1.255-0.316   c-1.3-0.694-1.79-2.312-1.095-3.611c1.031-1.928,1.967-4.003,2.781-6.165c0.518-1.379,2.057-2.075,3.437-1.557   c1.379,0.519,2.076,2.058,1.557,3.437c-0.896,2.38-1.929,4.668-3.069,6.801C210.393,255.436,209.472,255.948,208.518,255.948z    M126.322,245.056c-1.165,0-2.235-0.768-2.567-1.946c-0.632-2.244-1.176-4.586-1.66-7.161c-0.273-1.449,0.68-2.844,2.128-3.117   c1.454-0.273,2.844,0.681,3.117,2.128c0.456,2.419,0.963,4.611,1.553,6.702c0.399,1.418-0.427,2.892-1.845,3.292   C126.805,245.023,126.561,245.056,126.322,245.056z M213.572,242.674c-0.218,0-0.439-0.026-0.66-0.083   c-1.428-0.364-2.291-1.816-1.928-3.245c0.549-2.154,1.01-4.418,1.369-6.728c0.226-1.457,1.599-2.455,3.046-2.226   c1.457,0.227,2.453,1.59,2.226,3.046c-0.385,2.476-0.879,4.907-1.469,7.225C215.849,241.871,214.764,242.674,213.572,242.674z    M123.624,231.089c-1.322,0-2.47-0.982-2.644-2.328c-0.19-1.474-0.355-2.894-0.512-4.242l-0.046-0.397   c-0.077-0.665-0.175-1.508-0.274-2.508c-0.147-1.466,0.923-2.773,2.39-2.92c1.45-0.162,2.773,0.923,2.92,2.39   c0.097,0.967,0.191,1.782,0.265,2.424l0.047,0.395c0.155,1.327,0.317,2.725,0.504,4.177c0.188,1.462-0.845,2.799-2.306,2.988   C123.853,231.082,123.738,231.089,123.624,231.089z M215.97,225.062c-0.029,0-0.058,0-0.087-0.001   c-1.472-0.047-2.629-1.279-2.582-2.752c0.032-1.018,0.045-1.96,0.045-2.807c0-1.881-0.059-3.279-0.094-4.115   c-0.016-0.372,0.047-0.73,0.17-1.058c-0.162-0.313-0.264-0.662-0.291-1.035c-0.16-2.22-0.435-4.517-0.816-6.824   c-0.24-1.454,0.745-2.828,2.198-3.068c1.443-0.242,2.827,0.744,3.068,2.198c0.407,2.467,0.701,4.926,0.874,7.309   c0.029,0.4-0.032,0.787-0.166,1.139c0.174,0.335,0.279,0.714,0.296,1.116c0.034,0.82,0.097,2.345,0.097,4.338   c0,0.898-0.012,1.895-0.047,2.977C218.59,223.923,217.405,225.062,215.97,225.062z M122.238,213.361   c-1.474,0-2.668-1.194-2.668-2.668v-0.214c0-2.399,0.085-4.787,0.255-7.095c0.107-1.47,1.36-2.587,2.856-2.466   c1.47,0.107,2.574,1.386,2.466,2.856c-0.159,2.179-0.241,4.435-0.241,6.705v0.214C124.906,212.167,123.712,213.361,122.238,213.361   z M123.306,199.178c-0.14,0-0.283-0.011-0.425-0.034c-1.456-0.233-2.447-1.601-2.213-3.056c0.397-2.482,0.908-4.913,1.517-7.223   c0.376-1.426,1.842-2.273,3.261-1.9c1.426,0.376,2.276,1.836,1.9,3.261c-0.565,2.141-1.039,4.397-1.408,6.705   C125.727,198.243,124.594,199.178,123.306,199.178z M212.553,198.304c-1.153,0-2.215-0.752-2.558-1.913   c-0.651-2.206-1.399-4.407-2.221-6.542c-0.53-1.375,0.155-2.92,1.53-3.449c1.376-0.531,2.92,0.155,3.449,1.53   c0.874,2.268,1.668,4.606,2.36,6.949c0.417,1.413-0.39,2.898-1.803,3.315C213.058,198.269,212.803,198.304,212.553,198.304z    M207.435,185.027c-0.99,0-1.941-0.553-2.403-1.504c-1.014-2.092-2.115-4.125-3.27-6.042c-0.761-1.262-0.355-2.902,0.908-3.663   c1.264-0.762,2.902-0.355,3.663,0.908c1.239,2.055,2.417,4.231,3.502,6.467c0.643,1.327,0.09,2.923-1.236,3.566   C208.222,184.941,207.825,185.027,207.435,185.027z M128.358,182.178c-0.378,0-0.762-0.081-1.126-0.251   c-1.336-0.623-1.913-2.211-1.29-3.546c1.07-2.295,2.29-4.498,3.622-6.547c0.803-1.236,2.457-1.586,3.692-0.782   c1.235,0.803,1.586,2.457,0.782,3.692c-1.198,1.842-2.295,3.824-3.261,5.894C130.324,181.608,129.362,182.178,128.358,182.178z    M136.114,170.311c-0.633,0-1.269-0.224-1.778-0.68c-1.098-0.982-1.193-2.669-0.211-3.768c1.668-1.866,3.498-3.615,5.44-5.198   c1.141-0.932,2.823-0.76,3.755,0.381c0.931,1.142,0.76,2.823-0.382,3.755c-1.726,1.407-3.352,2.961-4.834,4.619   C137.578,170.009,136.847,170.311,136.114,170.311z M197.853,170.091c-0.757,0-1.509-0.32-2.037-0.944   c-1.499-1.768-3.076-3.406-4.69-4.869c-1.092-0.99-1.176-2.677-0.185-3.769c0.989-1.092,2.677-1.175,3.769-0.186   c1.787,1.619,3.529,3.427,5.178,5.374c0.953,1.125,0.814,2.809-0.311,3.761C199.076,169.883,198.463,170.091,197.853,170.091z    M187.299,160.615c-0.5,0-1.005-0.14-1.456-0.434c-1.89-1.234-3.853-2.273-5.833-3.088c-1.363-0.561-2.013-2.121-1.452-3.483   c0.563-1.363,2.126-2.012,3.484-1.452c2.289,0.942,4.549,2.137,6.718,3.553c1.234,0.806,1.582,2.459,0.777,3.693   C189.025,160.189,188.171,160.615,187.299,160.615z M150.145,159.51c-0.963,0-1.892-0.522-2.369-1.434   c-0.681-1.306-0.176-2.919,1.132-3.6c2.276-1.188,4.607-2.183,6.928-2.959c1.396-0.466,2.91,0.288,3.377,1.686   c0.467,1.398-0.288,2.91-1.686,3.377c-2.054,0.686-4.124,1.571-6.15,2.628C150.982,159.413,150.56,159.51,150.145,159.51z    M163.594,155.083c-1.312,0-2.456-0.968-2.64-2.305c-0.201-1.46,0.819-2.806,2.279-3.008c2.56-0.353,5.144-0.441,7.655-0.259   c1.471,0.106,2.576,1.384,2.47,2.854c-0.107,1.47-1.41,2.579-2.854,2.469c-2.144-0.154-4.348-0.079-6.542,0.223   C163.838,155.074,163.715,155.083,163.594,155.083z"/>
	<path style="fill:#3B301B;" d="M83.053,50.853c-0.78,0-1.536-0.411-1.944-1.141c-1.861-3.336-1.589-7.336,0.676-9.952   c0.404-0.464,2.564-2.743,5.586-2.604c4.213,0.208,7.667,4.902,7.864,10.685c0.042,1.227-0.919,2.256-2.147,2.298   c-1.22,0.059-2.255-0.919-2.298-2.147c-0.132-3.856-2.208-6.323-3.639-6.394c-0.864-0.053-1.753,0.784-2.007,1.076   c-1.043,1.203-1.104,3.162-0.152,4.87c0.598,1.073,0.214,2.427-0.859,3.025C83.791,50.762,83.42,50.853,83.053,50.853z"/>
	<path style="fill:#EAE2C2;" d="M210.58,82.869c-3.738,0-6.675-0.544-8.147-0.885c-1.292-0.3-2.097-1.59-1.797-2.882   c0.299-1.291,1.584-2.097,2.882-1.797c3.208,0.744,14.451,2.602,24.493-4.702c8.967-6.524,13.482-17.98,11.5-29.187   c-2.619-14.816-15.954-23.827-27.773-25.071c-14.255-1.503-24.219,8.074-27.973,11.679c-9.69,9.301-13.445,21.296-12.821,24.096   c1.089-0.189,3.408-1.448,4.72-2.159c3.421-1.857,6.654-3.613,8.851-1.407c2.132,2.139,1.16,5.755-3.792,13.375l7.625,2.655   c1.253,0.436,1.914,1.806,1.478,3.058c-0.436,1.251-1.803,1.913-3.058,1.478l-10.556-3.677c-0.706-0.246-1.257-0.807-1.491-1.517   c-0.234-0.71-0.124-1.489,0.299-2.106c3.176-4.647,4.596-7.337,5.228-8.84c-0.762,0.37-1.615,0.834-2.292,1.201   c-3.623,1.967-7.37,3.997-10.045,1.855c-1.098-0.879-1.698-2.276-1.782-4.151c-0.284-6.291,5.399-18.773,14.311-27.328   c3.793-3.641,15.349-14.723,31.801-12.99c13.607,1.432,28.969,11.857,32.001,29.011c2.298,13.002-2.963,26.312-13.405,33.908   C223.788,81.613,216.26,82.869,210.58,82.869z"/>
	<path style="fill:#EAE2C2;" d="M139.86,54.283c-0.025-0.257-0.089-0.508-0.191-0.746c-1.335-4.724-5.845-8.089-11.235-7.301   c-5.552,0.705-9.521,5.545-8.864,10.812s5.691,8.964,11.244,8.259c5.572-0.6,9.155-5.191,9.078-10.245   C139.922,54.801,139.911,54.539,139.86,54.283z"/>
	<path style="fill:#E59F22;" d="M28.305,86.403c-0.608,0-1.214-0.238-1.669-0.711c-2.755-2.872-4.823-6.21-6.147-9.923   c-1.005-2.817-1.544-5.773-1.602-8.783c-0.025-1.277,0.991-2.332,2.268-2.357c0.015,0,0.031,0,0.046,0   c1.256,0,2.287,1.006,2.312,2.268c0.048,2.511,0.497,4.973,1.334,7.319c1.103,3.093,2.829,5.877,5.129,8.274   c0.884,0.922,0.854,2.386-0.068,3.27C29.457,86.189,28.881,86.403,28.305,86.403z"/>
	<path style="fill:#E59F22;" d="M21.558,89.08c-0.485,0-0.973-0.152-1.39-0.466c-3.173-2.391-5.816-5.331-7.854-8.74   c-2.099-3.51-3.456-7.343-4.033-11.392c-0.18-1.264,0.699-2.435,1.963-2.616c1.274-0.181,2.436,0.699,2.616,1.964   c0.49,3.437,1.642,6.691,3.424,9.671c1.73,2.893,3.974,5.389,6.667,7.419c1.02,0.769,1.224,2.219,0.456,3.239   C22.952,88.763,22.259,89.08,21.558,89.08z"/>
	<path style="fill:#E59F22;" d="M18.836,93.87c-0.274,0-0.553-0.049-0.825-0.153c-4.168-1.594-7.961-3.888-11.276-6.819   c-2.428-2.147-4.565-4.614-6.355-7.332c-0.701-1.067-0.406-2.501,0.661-3.203c1.066-0.702,2.5-0.406,3.204,0.661   c1.564,2.377,3.432,4.533,5.554,6.409c2.897,2.562,6.216,4.568,9.864,5.963c1.193,0.457,1.79,1.793,1.334,2.986   C20.645,93.303,19.767,93.87,18.836,93.87z"/>
	<path style="fill:#E59F22;" d="M31.241,91.563c-1.263,0-2.295-1.015-2.312-2.283c-0.017-1.277,1.005-2.326,2.283-2.342   c0.504-0.007,4.995-0.164,7.376-3.624c1.027-1.493,1.314-3.084,1.375-4.156c0.072-1.274,1.167-2.256,2.439-2.179   c1.275,0.072,2.251,1.164,2.179,2.439c-0.134,2.384-0.888,4.637-2.183,6.518c-3.623,5.266-9.904,5.611-11.126,5.627   C31.262,91.563,31.252,91.563,31.241,91.563z"/>
	<path style="fill:#E59F22;" d="M299.213,44.2c-4.501,0-8.551-1.889-10.851-5.227c-1.327-1.925-2.022-4.29-2.01-6.839   c0.006-1.273,1.04-2.301,2.313-2.301c0.004,0,0.007,0,0.011,0c1.277,0.006,2.307,1.047,2.301,2.324   c-0.005,1.115,0.198,2.746,1.193,4.191c1.815,2.634,5.563,3.797,9.54,2.963c1.257-0.267,2.477,0.538,2.738,1.789   c0.263,1.25-0.538,2.476-1.788,2.738C301.497,44.081,300.34,44.2,299.213,44.2z"/>
	<path style="fill:#E59F22;" d="M304.319,43.531c-0.275,0-0.554-0.05-0.826-0.154c-1.193-0.457-1.789-1.794-1.333-2.987   c1.012-2.644,2.002-6.816,0.966-11.678c-0.561-2.629-1.637-5.101-3.196-7.346c-0.729-1.049-0.47-2.49,0.579-3.219   c1.047-0.728,2.491-0.47,3.219,0.58c1.912,2.752,3.232,5.787,3.921,9.021c1.272,5.97,0.066,11.069-1.169,14.296   C306.127,42.965,305.25,43.531,304.319,43.531z"/>
	<path style="fill:#E59F22;" d="M310.189,39.261c-0.379,0-0.764-0.093-1.119-0.29c-1.117-0.619-1.521-2.027-0.902-3.144   c1.704-3.074,2.65-6.52,2.735-9.966c0.061-2.505-0.317-4.99-1.125-7.388c-0.408-1.21,0.242-2.522,1.453-2.93   c1.212-0.408,2.522,0.242,2.93,1.453c0.982,2.912,1.441,5.933,1.365,8.98c-0.103,4.188-1.248,8.37-3.313,12.094   C311.791,38.831,311.002,39.261,310.189,39.261z"/>
	<path style="fill:#E59F22;" d="M315.17,42.997c-0.378,0-0.76-0.092-1.114-0.288c-1.119-0.616-1.526-2.023-0.91-3.141   c1.495-2.715,2.757-5.581,3.748-8.519c0.896-2.653,1.584-5.405,2.045-8.179c0.211-1.259,1.398-2.114,2.661-1.902   c1.26,0.209,2.111,1.4,1.903,2.661c-0.502,3.018-1.251,6.012-2.226,8.9c-1.079,3.197-2.452,6.316-4.08,9.271   C316.776,42.565,315.985,42.997,315.17,42.997z"/>
	<path style="fill:#EAE2C2;" d="M127.622,121.258c-0.615,0-1.229-0.234-1.699-0.704c-0.938-0.938-0.937-2.459,0.001-3.396   l5.031-5.032c0.939-0.939,2.459-0.938,3.397,0s0.939,2.458,0.001,3.396l-5.032,5.032   C128.851,121.023,128.236,121.258,127.622,121.258z"/>
	<path style="fill:#EAE2C2;" d="M127.69,139.96c-0.416,0-0.838-0.108-1.221-0.336c-1.141-0.676-1.519-2.149-0.843-3.29l3.627-6.122   c0.676-1.141,2.15-1.518,3.291-0.842c1.141,0.676,1.519,2.149,0.843,3.29l-3.627,6.122C129.31,139.539,128.51,139.96,127.69,139.96   z"/>
	<path style="fill:#EAE2C2;" d="M140.664,147.794c-0.33,0-0.665-0.068-0.986-0.213c-1.209-0.546-1.747-1.968-1.201-3.177   l2.928-6.485c0.546-1.208,1.964-1.748,3.177-1.2c1.209,0.546,1.746,1.968,1.2,3.177l-2.928,6.485   C142.454,147.268,141.58,147.794,140.664,147.794z"/>
	<path style="fill:#EAE2C2;" d="M117.544,164.872c-0.451,0-0.908-0.127-1.313-0.393c-1.11-0.727-1.42-2.215-0.693-3.325l3.9-5.953   c0.727-1.109,2.215-1.42,3.325-0.692c1.11,0.727,1.42,2.215,0.693,3.325l-3.9,5.952   C119.094,164.49,118.327,164.872,117.544,164.872z"/>
	<path style="fill:#EAE2C2;" d="M150.496,113.027c-1.097,0-2.088-0.757-2.34-1.872l-1.568-6.942   c-0.292-1.294,0.52-2.579,1.813-2.872c1.291-0.29,2.579,0.52,2.872,1.814l1.568,6.94c0.292,1.294-0.519,2.58-1.813,2.872   C150.85,113.008,150.672,113.027,150.496,113.027z"/>
	<path style="fill:#EAE2C2;" d="M154.507,132.787c-0.137,0-0.277-0.012-0.417-0.036c-1.306-0.229-2.18-1.473-1.952-2.78l1.226-7.009   c0.228-1.306,1.468-2.182,2.78-1.952c1.306,0.228,2.181,1.472,1.953,2.779l-1.226,7.01   C156.666,131.966,155.652,132.787,154.507,132.787z"/>
	<path style="fill:#EAE2C2;" d="M170.261,126.125c-0.771,0-1.528-0.37-1.992-1.057l-3.984-5.897   c-0.742-1.099-0.453-2.592,0.646-3.334c1.097-0.742,2.591-0.453,3.334,0.646l3.984,5.896c0.742,1.099,0.453,2.592-0.645,3.334   C171.192,125.992,170.724,126.125,170.261,126.125z"/>
	<path style="fill:#EAE2C2;" d="M170.574,104.889c-0.559,0-1.121-0.194-1.576-0.59l-5.367-4.674   c-1.001-0.871-1.105-2.388-0.234-3.388c0.871-0.999,2.388-1.106,3.388-0.234l5.367,4.674c1.001,0.871,1.105,2.388,0.234,3.388   C171.911,104.61,171.245,104.889,170.574,104.889z"/>
	<path style="fill:#EAE2C2;" d="M186.784,117.219c-0.421,0-0.846-0.111-1.234-0.343l-6.101-3.661   c-1.138-0.683-1.507-2.158-0.824-3.295c0.682-1.137,2.158-1.506,3.295-0.824l6.103,3.661c1.137,0.683,1.506,2.158,0.824,3.295   C188.395,116.803,187.599,117.219,186.784,117.219z"/>
	<path style="fill:#EAE2C2;" d="M197.765,111.568c-0.691,0-1.377-0.296-1.852-0.87l-4.538-5.483   c-0.845-1.022-0.702-2.536,0.32-3.381c1.022-0.847,2.537-0.702,3.382,0.32l4.536,5.481c0.846,1.022,0.703,2.536-0.319,3.382   C198.847,111.387,198.304,111.568,197.765,111.568z"/>
	<path style="fill:#EAE2C2;" d="M184.455,140.487c-0.267,0-0.537-0.045-0.803-0.139l-6.706-2.38c-1.25-0.443-1.903-1.816-1.46-3.067   c0.444-1.249,1.816-1.903,3.067-1.46l6.706,2.38c1.25,0.443,1.903,1.816,1.46,3.067   C186.369,139.872,185.444,140.487,184.455,140.487z"/>
	<path style="fill:#EAE2C2;" d="M195.346,133.875c-0.471,0-0.946-0.138-1.362-0.425l-5.858-4.04   c-1.092-0.753-1.367-2.249-0.614-3.341c0.754-1.092,2.251-1.366,3.341-0.614l5.858,4.04c1.092,0.753,1.367,2.248,0.614,3.341   C196.859,133.512,196.109,133.875,195.346,133.875z"/>
	<path style="fill:#EAE2C2;" d="M199.774,153.583c-0.539,0-1.082-0.18-1.529-0.551l-5.482-4.537   c-1.022-0.846-1.165-2.36-0.319-3.382c0.846-1.021,2.36-1.163,3.381-0.319l5.482,4.537c1.022,0.845,1.165,2.359,0.32,3.381   C201.151,153.287,200.465,153.583,199.774,153.583z"/>
	<path style="fill:#EAE2C2;" d="M216.359,148.38c-0.484,0-0.971-0.145-1.394-0.447l-5.791-4.136   c-1.079-0.771-1.329-2.271-0.558-3.35c0.769-1.08,2.27-1.33,3.35-0.559l5.791,4.137c1.08,0.771,1.329,2.271,0.558,3.35   C217.846,148.03,217.108,148.38,216.359,148.38z"/>
	<path style="fill:#EAE2C2;" d="M222.636,177.217c-0.798,0-1.579-0.397-2.035-1.122l-3.792-6.022   c-0.707-1.123-0.37-2.606,0.752-3.313c1.124-0.706,2.606-0.368,3.313,0.752l3.792,6.022c0.707,1.122,0.37,2.605-0.752,3.313   C223.516,177.097,223.074,177.217,222.636,177.217z"/>
	<path style="fill:#EAE2C2;" d="M226.582,203.749c-0.881,0-1.73-0.486-2.15-1.328l-2.935-5.87c-0.593-1.186-0.112-2.629,1.074-3.223   c1.188-0.593,2.629-0.111,3.223,1.074l2.935,5.872c0.593,1.186,0.111,2.629-1.075,3.222   C227.309,203.667,226.943,203.749,226.582,203.749z"/>
	<path style="fill:#EAE2C2;" d="M235.117,229.365c-1.281,0-2.344-1.011-2.398-2.302l-0.267-6.403   c-0.055-1.326,0.974-2.445,2.298-2.5c1.302-0.062,2.444,0.974,2.5,2.298l0.267,6.405c0.055,1.326-0.975,2.444-2.299,2.5   C235.185,229.364,235.151,229.365,235.117,229.365z"/>
	<path style="fill:#EAE2C2;" d="M223.188,251.423c-0.021,0-0.043-0.001-0.065-0.001c-1.326-0.036-2.372-1.14-2.337-2.465   l0.191-7.115c0.036-1.326,1.122-2.334,2.466-2.336c1.326,0.036,2.371,1.14,2.336,2.466l-0.191,7.113   C225.553,250.388,224.484,251.423,223.188,251.423z"/>
	<path style="fill:#EAE2C2;" d="M238.664,196.322c-0.904,0-1.77-0.513-2.178-1.386l-3.01-6.449c-0.561-1.202-0.04-2.631,1.162-3.191   c1.204-0.563,2.631-0.04,3.191,1.162l3.01,6.448c0.561,1.202,0.041,2.63-1.161,3.192   C239.35,196.249,239.004,196.322,238.664,196.322z"/>
	<path style="fill:#EAE2C2;" d="M163.075,145.845c-0.104,0-0.208-0.007-0.313-0.021c-1.315-0.172-2.242-1.377-2.071-2.692   l0.801-6.137c0.172-1.315,1.378-2.241,2.693-2.071c1.315,0.172,2.242,1.377,2.071,2.692l-0.801,6.137   C165.297,144.964,164.264,145.845,163.075,145.845z"/>
	<path style="fill:#FFBD5C;" d="M255.041,262.528c-0.419,0-0.845-0.075-1.261-0.232c-1.837-0.697-2.762-2.751-2.066-4.589   c3.509-9.256,5.467-18.93,5.82-28.754c0.271-7.565-0.419-15.166-2.054-22.591c-0.422-1.919,0.791-3.817,2.71-4.24   c1.914-0.419,3.816,0.79,4.24,2.71c1.763,8.01,2.508,16.21,2.215,24.375c-0.38,10.601-2.492,21.038-6.276,31.022   C257.829,261.653,256.477,262.528,255.041,262.528z"/>
	<path style="fill:#FFBD5C;" d="M132.293,324.704c-1.122,0-2.205-0.608-2.761-1.671c-2.599-4.968-4.492-10.269-5.628-15.757   c-1.096-5.299-1.474-10.727-1.126-16.131c0.111-1.716,1.581-3.019,3.308-2.906c1.716,0.111,3.017,1.592,2.906,3.308   c-0.313,4.846,0.026,9.715,1.01,14.468c1.018,4.921,2.715,9.675,5.046,14.131c0.797,1.524,0.208,3.405-1.315,4.202   C133.272,324.589,132.779,324.704,132.293,324.704z"/>
	<path style="fill:#FFBD5C;" d="M245.08,326.482c-1.195,0-2.334-0.692-2.849-1.855c-1.723-3.897-2.881-8.014-3.441-12.235   c-0.624-4.707-0.495-9.467,0.382-14.147c0.316-1.69,1.942-2.809,3.633-2.486c1.69,0.316,2.803,1.943,2.486,3.633   c-0.755,4.032-0.866,8.131-0.329,12.182c0.482,3.635,1.478,7.179,2.963,10.535c0.695,1.572-0.016,3.411-1.588,4.106   C245.928,326.396,245.501,326.482,245.08,326.482z"/>
	<path style="fill:#FFBD5C;" d="M170.002,27.342c-0.773,0-1.55-0.251-2.204-0.767c-1.542-1.219-1.803-3.456-0.585-4.998   c3.98-5.035,8.754-9.163,14.19-12.268c14.164-8.091,28.576-6.846,35.906-5.381c1.927,0.385,3.177,2.259,2.793,4.185   c-0.384,1.927-2.255,3.175-4.185,2.793c-6.356-1.27-18.832-2.36-30.985,4.582c-4.641,2.651-8.724,6.185-12.138,10.502   C172.095,26.878,171.053,27.342,170.002,27.342z"/>
	<path style="fill:#DB6653;" d="M323.535,179.181c-0.933,0-1.834-0.508-2.292-1.394c-1.003-1.937-4.01-8.689-0.626-14.265   c2.708-4.464,7.859-5.385,13.313-6.36c4.19-0.75,8.479-0.813,12.747-0.191c1.41,0.205,2.386,1.515,2.18,2.925   c-0.205,1.41-1.515,2.386-2.924,2.18c-3.716-0.543-7.449-0.486-11.093,0.165c-5.31,0.949-8.383,1.601-9.812,3.957   c-2.084,3.435,0.495,8.636,0.796,9.218c0.655,1.266,0.161,2.822-1.104,3.477C324.34,179.087,323.934,179.181,323.535,179.181z"/>
	<path style="fill:#DB6653;" d="M309.3,257.279c-1.112,0-2.139-0.725-2.471-1.845c-0.406-1.366,0.372-2.802,1.737-3.207   c3.895-1.158,7.507-2.991,10.736-5.45c3.392-2.583,6.226-5.751,8.423-9.414c0.733-1.222,2.318-1.62,3.539-0.886   c1.222,0.733,1.618,2.318,0.886,3.539c-2.536,4.228-5.807,7.884-9.722,10.866c-3.728,2.838-7.897,4.955-12.392,6.291   C309.791,257.244,309.543,257.279,309.3,257.279z"/>
	<path style="fill:#DB6653;" d="M380.108,110.51c-0.819,0-1.624-0.389-2.125-1.113c-0.81-1.172-0.517-2.779,0.655-3.589   c1.423-0.983,2.937-1.839,4.5-2.543c2.712-1.223,5.606-2.012,8.6-2.346c1.409-0.162,2.691,0.861,2.85,2.277   c0.158,1.416-0.861,2.692-2.277,2.85c-2.458,0.274-4.831,0.921-7.053,1.923c-1.279,0.576-2.519,1.277-3.685,2.083   C381.125,110.362,380.614,110.51,380.108,110.51z"/>
</g>

</g>
</g>
</g>

              </svg>