<?xml version="1.0" encoding="UTF-8"?><svg version="1.1" xmlns="http://www.w3.org/2000/svg" xmlns:xlink="http://www.w3.org/1999/xlink" viewBox="0 0 1500 1500" width="1500" height="1500" x="0px" y="0px">
              
              <!-- ITEM 0 -->
<g transform="translate(249.0 250.0) scale(1.33875 1.3356451034317829) rotate(275.7874803367337 399.99999999999994 418.15)">
<g transform="translate(-0.0 -0.0)">

<g>
	<path fill="#10294C" d="M800,415.9c0-80.2-35.5-152.2-92-201.6c-17.6-15.4-29.7-35.9-35.5-58.5C649.4,66.3,566.9,0,468.7,0   c-48.4-0.1-95.3,16.3-133,46.6c-21.2,17.1-48,26-75.4,25.9h-0.5C116.4,72.6,0.1,191.4,0.1,338c0,83.2,37.5,157.4,96.1,206.1   c28.7,23.7,44.4,59.6,42.2,96.8c-0.2,2.8-0.3,5.7-0.3,8.6c0,103.2,114.8,186.8,256.4,186.8c121.2,0,222.7-61.3,249.5-143.7   c7.7-23.6,23-44.1,43.4-58.7C755.6,584.8,800,505.5,800,415.9z"/>
	<path fill="#F04E23" d="M329.7,377.1c-7-3.8,0-13.7,5.5-10.4C340.7,370.1,338.8,382,329.7,377.1z"/>
	<path fill="#F04E23" d="M501.5,446.8c7.1-3.6,11.2,7.9,5.3,10.4C500.9,459.8,492.2,451.5,501.5,446.8z"/>
	<path fill="#F04E23" d="M344,401.7c-4.3-4.5,1.6-12.2,4.8-6.2C352,401.6,347.6,405.4,344,401.7z"/>
	<path fill="#F04E23" d="M525.8,404c4,4.4-2.3,10.1-5.1,4.5C517.9,403,522.5,400.4,525.8,404z"/>
	<path fill="#F04E23" d="M406.016,524c4,4.4-2.3,10.1-5.1,4.5C398.116,523,402.716,520.4,406.016,524z"/>
	<path fill="#F04E23" d="M453.6,321.4c-5.3,2.8-9.2-6.3-3.1-7.7S457.9,319.2,453.6,321.4z"/>
	<circle fill="#FFB400" cx="687.6" cy="550.8" r="3.8"/>
	<circle fill="#FFB400" cx="382" cy="768.867" r="3.8"/>
	<circle fill="#FFB400" cx="607.5" cy="617.3" r="3.8"/>
	<circle fill="#FFB400" cx="70.1" cy="437.2" r="3.8"/>
	<circle fill="#FFB400" cx="204.5" cy="452.9" r="3.8"/>
	<circle fill="#FFB400" cx="59.9" cy="283.7" r="3.8"/>
	<circle fill="#FFB400" cx="332.5" cy="107" r="3.8"/>
	<circle fill="#FFB400" cx="360.2" cy="76.8" r="3.8"/>
	<circle fill="#FFB400" cx="178.5" cy="591.9" r="3.8"/>
	<circle fill="#FFB400" cx="297.2" cy="602.5" r="3.8"/>
	<circle fill="#FFB400" cx="477" cy="666.271" r="3.8"/>
	<circle fill="#FFB400" cx="659.2" cy="254" r="3.8"/>
	<circle fill="#FFB400" cx="560.4" cy="76.8" r="3.8"/>
	<circle fill="#FFB400" cx="757.1" cy="393.3" r="3.8"/>
	<circle fill="#FFB400" cx="577.4" cy="575.8" r="3.8"/>
	<circle fill="#FFB400" cx="406" cy="735.6" r="6"/>
	<circle fill="#FFB400" cx="679.3" cy="235.4" r="6"/>
	<circle fill="#FFB400" cx="643.4" cy="131.7" r="6"/>
	<circle fill="#FFB400" cx="361.2" cy="159.3" r="6"/>
	<circle fill="#FFB400" cx="194.4" cy="545.9" r="6"/>
	<circle fill="#FFB400" cx="70.8" cy="466.8" r="6"/>
	<circle fill="#FFB400" cx="261.2" cy="357.1" r="6"/>
	<circle fill="#FFB400" cx="509.626" cy="189.1" r="6"/>
	<circle fill="#FFB400" cx="112.3" cy="185.3" r="3.8"/>
	<circle fill="#FFB400" cx="121.1" cy="157.7" r="6"/>
</g>
<g>
	
		<ellipse transform="matrix(0.866 -0.5 0.5 0.866 -250.961 451.2062)" fill="#10294C" cx="716.46" cy="693.891" rx="41.399" ry="35.899"/>
	<circle fill="#FFB400" cx="699" cy="703.1" r="6"/>
	<circle fill="#FFB400" cx="714.8" cy="684.4" r="3.8"/>
</g>
<g>
	
		<ellipse transform="matrix(0.866 -0.5 0.5 0.866 22.1419 383.6611)" fill="#10294C" cx="726.974" cy="150.514" rx="30.599" ry="34.299"/>
	<circle fill="#FFB400" cx="716" cy="155.6" r="3.8"/>
</g>
<g>
	
		<ellipse transform="matrix(0.9598 -0.2807 0.2807 0.9598 -170.218 42.173)" fill="#10294C" cx="62.114" cy="615.304" rx="47.9" ry="55.3"/>
	<circle fill="#10294C" cx="100.5" cy="719" r="22.6"/>
	<circle fill="#FFB400" cx="57.6" cy="616" r="3.8"/>
	<circle fill="#FFB400" cx="84.7" cy="628" r="6"/>
</g>

</g>
</g>

<!-- ITEM 1 -->
<g transform="translate(859.0 147.0) scale(1.0344399542087914 1.0334721076636684) rotate(38.7328667127797 108.7545 153.3665)">
<g transform="translate(-0.0 -0.0)">
<title>stars</title><g id="Layer_2-i1" data-name="Layer 2"><g id="stars-i1"><path d="M217.009,236a32.852,32.852,0,0,0-7.9-1.86c-1.7-.2-3.39-.3-5.09-.33-.08-1.66-.21-3.32-.41-5a48.9,48.9,0,0,0-1.51-7.91.93.93,0,0,0-1.79,0,49.112,49.112,0,0,0-1.51,7.91c-.2,1.69-.33,3.38-.42,5.08-1.69.08-3.38.21-5.08.41a47.911,47.911,0,0,0-7.9,1.52,1,1,0,0,0-.63.63.931.931,0,0,0,.63,1.15,47.807,47.807,0,0,0,7.9,1.52c1.66.19,3.32.32,5,.41a41.277,41.277,0,0,0,.34,5.08,31.792,31.792,0,0,0,1.86,7.9.758.758,0,0,0,.44.44.78.78,0,0,0,1-.44,31.792,31.792,0,0,0,1.86-7.9,48.876,48.876,0,0,0,.33-5,42.115,42.115,0,0,0,5-.33,32.361,32.361,0,0,0,7.9-1.87.8.8,0,0,0,.44-.43A.79.79,0,0,0,217.009,236Z" fill="#fdb813"/><path d="M32.279,73.338a31.967,31.967,0,0,0-7.91-1.86,50.734,50.734,0,0,0-5.08-.34c-.09-1.66-.22-3.32-.41-5a47.807,47.807,0,0,0-1.52-7.9.911.911,0,0,0-.63-.63.921.921,0,0,0-1.146.616l0,.014a47.911,47.911,0,0,0-1.52,7.9c-.19,1.69-.33,3.39-.41,5.08-1.69.08-3.39.22-5.08.41a47.911,47.911,0,0,0-7.9,1.52,1,1,0,0,0-.63.63.92.92,0,0,0,.616,1.146l.014,0a47.807,47.807,0,0,0,7.9,1.52c1.66.19,3.32.32,5,.41q.043,2.547.34,5.08a32.057,32.057,0,0,0,1.86,7.91.758.758,0,0,0,.43.43.78.78,0,0,0,1-.43,32.836,32.836,0,0,0,1.86-7.91c.2-1.66.29-3.32.33-5a42.254,42.254,0,0,0,5-.33,32.872,32.872,0,0,0,7.91-1.86.79.79,0,0,0,0-1.45Z" fill="#fdb813"/><path d="M121.789,205.548a31.967,31.967,0,0,0-7.91-1.86,50.734,50.734,0,0,0-5.08-.34c-.09-1.66-.22-3.32-.41-5a47.807,47.807,0,0,0-1.52-7.9.911.911,0,0,0-.63-.63.921.921,0,0,0-1.146.616l0,.014a46.833,46.833,0,0,0-1.51,7.9c-.2,1.69-.34,3.39-.42,5.08-1.69.09-3.39.22-5.08.42a49.013,49.013,0,0,0-7.9,1.51,1,1,0,0,0-.63.63.92.92,0,0,0,.616,1.146l.014,0a47.807,47.807,0,0,0,7.9,1.52c1.66.19,3.32.33,5,.41a41.439,41.439,0,0,0,.34,5.09,31.98,31.98,0,0,0,1.86,7.9.758.758,0,0,0,.43.43.78.78,0,0,0,1-.43,32.9,32.9,0,0,0,1.86-7.9c.2-1.67.29-3.33.33-5a49.162,49.162,0,0,0,5-.33,32.442,32.442,0,0,0,7.91-1.86.79.79,0,0,0,0-1.45Z" fill="#fdb813"/><path d="M184.419,201.928a9.2,9.2,0,0,0-3.69-1.86,10.435,10.435,0,0,0-1.08-.22c-.06-.29-.12-.59-.2-.88a12.794,12.794,0,0,0-1.51-3.69,1.061,1.061,0,0,0-.34-.33,1,1,0,0,0-1.391.253.906.906,0,0,0-.049.077,12.569,12.569,0,0,0-1.52,3.69c-.09.35-.16.7-.23,1.05-.35.07-.7.14-1,.23a12.569,12.569,0,0,0-3.69,1.52,1.02,1.02,0,0,0-.33.33,1.05,1.05,0,0,0,.328,1.448l0,0a12.794,12.794,0,0,0,3.69,1.51c.29.08.59.14.88.2a10.435,10.435,0,0,0,.22,1.08,9.319,9.319,0,0,0,1.86,3.69l.11.11a1,1,0,0,0,1.34-.11,9.063,9.063,0,0,0,1.86-3.69c.08-.3.15-.6.2-.9a3.642,3.642,0,0,0,.9-.2,9.063,9.063,0,0,0,3.69-1.86,1.142,1.142,0,0,0,.11-.11A1,1,0,0,0,184.419,201.928Z" fill="#fdb813"/><path d="M148.419,91.478a12.569,12.569,0,0,0-3.69-1.52c-.29-.07-.59-.14-.88-.19a8.416,8.416,0,0,0-.22-1.09,8.994,8.994,0,0,0-1.86-3.68l-.11-.11a1,1,0,0,0-1.34.11,9.3,9.3,0,0,0-1.86,3.68c-.08.3-.14.61-.19.91a9.7,9.7,0,0,0-4.6,2.06l-.1.1a1,1,0,0,0,.1,1.34,9.222,9.222,0,0,0,3.69,1.87,10.45,10.45,0,0,0,1.08.21c.06.3.13.59.2.89a12.631,12.631,0,0,0,1.52,3.68,1,1,0,0,0,1.346.434.99.99,0,0,0,.434-.434,12.819,12.819,0,0,0,1.51-3.68c.09-.36.17-.71.23-1.06.35-.06.7-.14,1-.22a12.569,12.569,0,0,0,3.69-1.52.983.983,0,0,0,.33-.33A1.05,1.05,0,0,0,148.419,91.478Z" fill="#fdb813"/><path d="M45.149,156.758a10.435,10.435,0,0,0-1.08-.22c-.06-.29-.13-.59-.2-.88a12.542,12.542,0,0,0-1.52-3.69,1,1,0,0,0-.33-.33,1.05,1.05,0,0,0-1.448.327l0,0a12.822,12.822,0,0,0-1.51,3.69c-.09.35-.16.7-.23,1.05-.35.07-.7.14-1,.23a12.794,12.794,0,0,0-3.69,1.51,1.071,1.071,0,0,0-.33.34,1.05,1.05,0,0,0,.328,1.448l0,0a12.794,12.794,0,0,0,3.69,1.51c.29.08.59.14.88.2a8.268,8.268,0,0,0,.22,1.08,9.076,9.076,0,0,0,1.86,3.69l.11.1a.941.941,0,0,0,1.327-.084l.013-.016a9.2,9.2,0,0,0,1.86-3.69c.08-.3.14-.6.2-.9a3.642,3.642,0,0,0,.9-.2,9.063,9.063,0,0,0,3.69-1.86l.1-.11a1,1,0,0,0-.1-1.34A9.078,9.078,0,0,0,45.149,156.758Z" fill="#fdb813"/><path d="M141.739,296.478a10.621,10.621,0,0,0-1.09-.22,3.961,3.961,0,0,0-.19-.88,12.542,12.542,0,0,0-1.52-3.69,1,1,0,0,0-.33-.33,1.05,1.05,0,0,0-1.448.328l0,0a12.569,12.569,0,0,0-1.52,3.69c-.08.35-.16.7-.22,1.05-.35.07-.7.14-1.06.23a12.859,12.859,0,0,0-3.68,1.51,1.223,1.223,0,0,0-.34.34,1.06,1.06,0,0,0,.34,1.45,12.859,12.859,0,0,0,3.68,1.51c.3.08.59.14.89.2a10.4,10.4,0,0,0,.21,1.08,9.234,9.234,0,0,0,1.88,3.67l.1.1a.94.94,0,0,0,1.3-.1,9.215,9.215,0,0,0,1.87-3.69c.08-.3.14-.6.19-.9.3-.05.6-.12.91-.2a8.994,8.994,0,0,0,3.68-1.86l.11-.11a1,1,0,0,0-.11-1.34A8.994,8.994,0,0,0,141.739,296.478Z" fill="#fdb813"/><path d="M127.739,149.878a7.109,7.109,0,0,0,.93.49v.06a5.61,5.61,0,0,0,1.87,2.36,1.218,1.218,0,0,0,1.44,0,13.629,13.629,0,0,1,4-4,1.209,1.209,0,0,0,0-1.45,5.649,5.649,0,0,0-2.36-1.86h-.06a6.929,6.929,0,0,0-.49-.93,5.872,5.872,0,0,0-.92-1.18,1.271,1.271,0,0,0-1.78,0,5.945,5.945,0,0,0-.92,1.18,6.175,6.175,0,0,0-.58,1.14,6.923,6.923,0,0,0-1.15.58,6.463,6.463,0,0,0-1.18.93,1.28,1.28,0,0,0,0,1.78A5.92,5.92,0,0,0,127.739,149.878Z" fill="#fdb813"/><path d="M115.729,55.568a5.884,5.884,0,0,0-.93-.48.409.409,0,0,0,0-.07,5.416,5.416,0,0,0-1.86-2.35,1.2,1.2,0,0,0-1.45,0,5.378,5.378,0,0,0-1.79,2.2,5.429,5.429,0,0,0-2.2,1.79,1.2,1.2,0,0,0,0,1.45,5.537,5.537,0,0,0,2.36,1.86h.06a5.884,5.884,0,0,0,.48.93,6.334,6.334,0,0,0,.92,1.18,1.279,1.279,0,0,0,1.79,0,6.293,6.293,0,0,0,.92-1.18,6.114,6.114,0,0,0,.58-1.14,6.752,6.752,0,0,0,1.14-.58,6.031,6.031,0,0,0,1.18-.93,1.26,1.26,0,0,0,0-1.78A5.639,5.639,0,0,0,115.729,55.568Z" fill="#fdb813"/><path d="M78.669,2.478h-.06a5.129,5.129,0,0,0-.49-.93A5.652,5.652,0,0,0,77.2.368a1.26,1.26,0,0,0-1.78,0,5.686,5.686,0,0,0-.92,1.18,6.175,6.175,0,0,0-.58,1.14,6.2,6.2,0,0,0-1.15.58,6.684,6.684,0,0,0-1.18.92,1.28,1.28,0,0,0,0,1.78,6.312,6.312,0,0,0,1.18.93,5.927,5.927,0,0,0,.93.48.122.122,0,0,1,0,.06,5.487,5.487,0,0,0,1.87,2.36,1.191,1.191,0,0,0,1.44,0,5.461,5.461,0,0,0,1.8-2.2,5.5,5.5,0,0,0,2.2-1.79,1.209,1.209,0,0,0,0-1.45A5.437,5.437,0,0,0,78.669,2.478Z" fill="#fdb813"/><path d="M64.539,120.478h-.06a6.929,6.929,0,0,0-.49-.93,6.22,6.22,0,0,0-.92-1.18,1.28,1.28,0,0,0-1.78,0,6.75,6.75,0,0,0-.93,1.18,6.846,6.846,0,0,0-.58,1.15,6.175,6.175,0,0,0-1.14.58,5.974,5.974,0,0,0-1.18.92,1.271,1.271,0,0,0,0,1.78,7.2,7.2,0,0,0,2.11,1.41v.06a5.586,5.586,0,0,0,1.86,2.36,1.209,1.209,0,0,0,1.45,0,5.457,5.457,0,0,0,1.79-2.21,5.365,5.365,0,0,0,2.2-1.79,1.188,1.188,0,0,0,0-1.44A5.522,5.522,0,0,0,64.539,120.478Z" fill="#fdb813"/><path d="M34.4,241.218h-.06a6.991,6.991,0,0,0-.49-.94,6.22,6.22,0,0,0-.92-1.18,1.28,1.28,0,0,0-1.78,0,6.22,6.22,0,0,0-.92,1.18,6.524,6.524,0,0,0-.58,1.15,7.155,7.155,0,0,0-2.33,1.5,1.28,1.28,0,0,0,0,1.78,6.463,6.463,0,0,0,1.18.93,5.927,5.927,0,0,0,.93.48v.06a5.586,5.586,0,0,0,1.86,2.36,1.209,1.209,0,0,0,1.45,0,13.761,13.761,0,0,1,4-4,1.209,1.209,0,0,0,0-1.45A5.5,5.5,0,0,0,34.4,241.218Z" fill="#fdb813"/></g></g>
</g>
</g>

<!-- ITEM 2 -->
<g transform="translate(643.0 241.0) scale(9.004161853369835 8.996231642657476) rotate(347.43739944338796 31.5965 60.6365)">
<g transform="translate(-0.0 -0.0)">
<title>spaceship</title><g id="Layer_2-i2" data-name="Layer 2"><g id="spaceship-i2"><path d="M30.7,77.645c-4,6.6-10.2,10.2-10.9,9.9s-2.2-7.4.3-14.7l-2.1-.9c-.2-.1-.3-.2-.5-.2a20.619,20.619,0,0,0-1.2,2.6c-5.4,11.9-3.1,24.6-1.8,25.1,1.2.5,12.3-6,17.8-17.9.4-.8.8-1.8,1.2-2.6-.2-.1-.3-.1-.5-.2Z" fill="#f04e23"/><path d="M19.7,87.445c.8.4,6.9-3.2,10.9-9.9L20,72.645C17.6,80.045,19,87.145,19.7,87.445Z" fill="#ffb400"/><path d="M27.8,69.745c-4-1.8-7.7-3.3-10-5.8l-1.5,3.5a3.353,3.353,0,0,0,1.2,4.2c.2.1.3.2.5.2l2.1.9,10.6,4.9,2.1.9c.2.1.3.2.5.2a3.261,3.261,0,0,0,3.9-1.8l1.5-3.5C35.4,73.345,31.8,71.545,27.8,69.745Z" fill="#fff"/><path d="M31.3,25.645c-7.1-2.7-20.6,12.1-24,19.6-3.2,7.1,1.8,9.5,8.3,12.4,0-2.7.9-6.1,2.9-10.6A140.717,140.717,0,0,1,31.3,25.645Z" fill="#fff"/><path d="M58.9,38.345a149.309,149.309,0,0,1-7.8,23.7c-2,4.5-4,7.4-6.1,9.2,6.5,3,11.6,5.2,14.8-1.8C63.3,61.745,65.6,41.845,58.9,38.345Z" fill="#fff"/><path d="M51.1,61.845a149.309,149.309,0,0,0,7.8-23.7c4.2-16.9,6.3-35.1.5-37.8s-18.2,10.9-28.1,25.1a149.5,149.5,0,0,0-12.8,21.4c-2,4.5-2.9,7.9-2.9,10.6a8.655,8.655,0,0,0,2.3,6.3c2.3,2.5,6,4,10,5.8s7.6,3.6,10.9,3.8a8.514,8.514,0,0,0,6.2-2.4C47,69.245,49,66.345,51.1,61.845Zm-8.6-44a8.469,8.469,0,0,1,15.6,6.6l-.2.4c-1.9,4.2-5.8,3.5-10.1,1.6S40.6,22.045,42.5,17.845Zm-13.6,47.1a3.361,3.361,0,0,1-1.1-2.8,32.6,32.6,0,0,1,2.3-8.1c1.1-2.5,2.4-5,3.6-7.5s2.6-4.9,4-7.2c1.4-2.4,2.9-4.8,4.5-7a2.365,2.365,0,0,1,3.2-.5,2.09,2.09,0,0,1,.8,2.3c-.6,2.8-1.5,5.4-2.3,8a82.136,82.136,0,0,1-2.9,7.8c-1.1,2.6-2,5.2-3.2,7.6a32.567,32.567,0,0,1-4.6,7,2.673,2.673,0,0,1-4.3.4Z" fill="#00aee0"/><path d="M47.9,26.545c4.2,1.9,8.1,2.6,10.1-1.6a8.453,8.453,0,1,0-15.2-7.4l-.2.4C40.6,22.045,43.6,24.545,47.9,26.545Z" fill="#04294f"/><path d="M33.4,64.745a35.229,35.229,0,0,0,4.6-7c1.2-2.5,2.2-5.1,3.2-7.6s1.9-5.2,2.9-7.8a73.161,73.161,0,0,0,2.3-8,2.44,2.44,0,0,0-1.8-2.8,2.474,2.474,0,0,0-2.3.8,75.384,75.384,0,0,0-4.5,7c-1.3,2.4-2.8,4.8-4,7.2-1.2,2.5-2.5,4.9-3.6,7.5a27.913,27.913,0,0,0-2.3,8.1,2.8,2.8,0,0,0,1.1,2.8,2.9,2.9,0,0,0,4.4-.2Z" fill="#fff"/><path d="M6.5,105.045a13.388,13.388,0,0,0-2.7,3.1,14.79,14.79,0,0,0-1.9,3.5c-.5,1.2-1,2.5-1.4,3.8a13.974,13.974,0,0,0-.5,4.1,2.1,2.1,0,0,0,.4,1.1,1.749,1.749,0,0,0,2.5.2h0a13.807,13.807,0,0,0,2.8-3.1,14.79,14.79,0,0,0,1.9-3.5c.5-1.2,1-2.5,1.4-3.8a13.974,13.974,0,0,0,.5-4.1,1.774,1.774,0,0,0-1.8-1.7,2.144,2.144,0,0,0-1.2.4Z" fill="#f04e23"/><path d="M21.4,104.745a3.805,3.805,0,0,0-1.5.5,3.044,3.044,0,0,0-.8.8,2.537,2.537,0,0,0-.2,1.2,3.946,3.946,0,0,0,.6,1.5,3.223,3.223,0,0,0,2.9,1.3,2.7,2.7,0,0,0,1.5-.5,3.044,3.044,0,0,0,.8-.8,2.537,2.537,0,0,0,.2-1.2,3.946,3.946,0,0,0-.6-1.5A3.013,3.013,0,0,0,21.4,104.745Z" fill="#f04e23"/><path d="M.6,93.745a2.17,2.17,0,0,0,2.8,1.1h0a4.5,4.5,0,0,0,1.9-1.4,7.729,7.729,0,0,0,1.7-3.8,6.522,6.522,0,0,0-.2-2.4l-.1-.2a2.17,2.17,0,0,0-2.8-1.1,4.5,4.5,0,0,0-1.9,1.4,8.913,8.913,0,0,0-1.8,3.8,6.522,6.522,0,0,0,.2,2.4C.6,93.645.6,93.745.6,93.745Z" fill="#f04e23"/></g></g>
</g>
</g>

<!-- ITEM 3 -->
<g transform="translate(190.0 197.0) scale(1.1943550383758357 1.1964430072756669) rotate(0.0 252.43749999999997 432.95000000000005)">
<g transform="translate(-0.0 -0.0)">
<title>robot_1</title><g id="Layer_2-i3" data-name="Layer 2"><g id="robot_1-i3"><path d="M464.5,377c-.2.1-.5.1-.7.2s-.4.1-.6.2C463.7,377.3,464.1,377.1,464.5,377Z" fill="none"/><path d="M385.6,416.8c-.5.5-.9,1-1.4,1.6A10.7,10.7,0,0,1,385.6,416.8Z" fill="none"/><path d="M388.5,413.6c-.6.7-1.3,1.3-1.9,2C387.2,415,387.8,414.3,388.5,413.6Z" fill="none"/><path d="M423.9,390.1l-3.9,1.8A33.894,33.894,0,0,1,423.9,390.1Z" fill="none"/><path d="M443,383.2c3.2-1,6.5-1.9,9.7-2.9-2.8.8-5.7,1.6-8.6,2.5A4.875,4.875,0,0,0,443,383.2Z" fill="none"/><path d="M458,378.8c-1.4.4-2.7.8-4.1,1.1C455.2,379.6,456.6,379.2,458,378.8Z" fill="none"/><path d="M436.8,385.2c-.4.1-.8.3-1.2.4-.6.2-1.2.5-1.9.7A28.265,28.265,0,0,1,436.8,385.2Z" fill="none"/><path d="M383.4,419.3c-.6.8-1.3,1.6-1.9,2.4C382.1,420.9,382.7,420.1,383.4,419.3Z" fill="none"/><path d="M391,411.1l-.6.6h0l-.5.5Z" fill="none"/><path d="M460.4,336.2a12.455,12.455,0,0,0-1.5-1.9c0-.2.1-.3.1-.5a61.07,61.07,0,0,0-10-9.3.367.367,0,0,1-.1.3c-2.1-1.5-4.3-3-6.8-4.5V320a87.9,87.9,0,0,0-14.1-6.5c0,.1.1.1.1.2-2.6-.9-5.3-1.8-8.2-2.6V311a106.614,106.614,0,0,0-14.9-2.8l.1.1c-2.7-.3-5.4-.6-8.3-.7h0c-2.7-.1-5.4-.2-8.2-.1-3.4,14-10.8,24.6-19.7,27.8a1.034,1.034,0,0,1-.4.1c-.2.1-.4.1-.6.2h-.1c-4.1,1.3-19.1,6-37.2,11.4l-9.2,45.1a12,12,0,0,1-10.5,9.5c-4.4.4-10,1-16.3,1.5v43.4c11.3.5,21,1.2,28.4,1.9a56.178,56.178,0,0,0,1.5-5.5,25.549,25.549,0,0,1,2.5-1.4c.1-.5.3-1.1.4-1.6A146.088,146.088,0,0,1,343,406.8c.8-1.3,1.7-2.6,2.6-3.9a133.9,133.9,0,0,1,39-37.4q4.35-2.7,8.7-5.1h0c.1-.1.2-.1.3-.2,1.3-.7,2.6-1.4,3.8-2,1.4-.7,2.8-1.4,4.1-2a.1.1,0,0,0,.1-.1c4.3-2,8.5-3.8,12.7-5.5,3.4-1.3,6.8-2.5,10.1-3.7,3.1-1,6.1-2,9-2.9,5.4-1.6,10.6-3.1,15.2-4.3,2.2-.6,4.7-1.3,7.2-2,1.8-.5,3.6-1,5.2-1.6a.1.1,0,0,0-.1-.1A1.194,1.194,0,0,0,460.4,336.2Z" fill="none"/><path d="M379.8,424l-.9,1.2a20.278,20.278,0,0,1,1.3-1.8,2.092,2.092,0,0,0-.4.6Z" fill="none"/><path d="M231.8,535.8c-.5,2.9-1,6-1.5,9.2-.9,6.3-1.7,13.2-2.2,20.5-.2,2.9-.4,5.9-.5,9-.2,6.1-.2,12.4.2,18.9q.15,4.2.6,8.4c.6,6.8,1.6,13.7,2.9,20.6.5,2.6,1.1,5.2,1.7,7.8a163.592,163.592,0,0,0,6.1,19.6c.9,2.4,1.9,4.8,2.9,7.2,1.5,3.5,3.2,7,5,10.4,1,2,2.1,3.9,3.2,5.8,1.3,2.2,2.7,4.4,4.1,6.6a139.584,139.584,0,0,0,11.9,15.6c1.7,2,3.5,4,5.4,5.9,1.3,1.3,2.6,2.7,4,4,0-1.6-.1-3.1-.1-4.7-.1-3.2-.2-6.4-.2-9.7-.2-7.5-.3-15.3-.4-23.4,0-3.2-.1-6.4-.1-9.7,0-5.6-.1-11.3-.1-17.1v-7.1c0-3,.1-6,.2-8.9.2-7.9.6-15.4,1.1-22.6.2-2.7.4-5.3.6-7.9.8-8.9,1.8-17.1,2.9-24.8.4-2.7.8-5.4,1.3-8,1.5-8.5,3.1-16.3,4.9-23.3.8-3.1,1.6-6,2.4-8.9.6-2.1,1.2-4.2,1.8-6.1a45.676,45.676,0,0,1-43.5.8,35.082,35.082,0,0,1-13.7,6.3C232.5,532,232.1,533.8,231.8,535.8Z" fill="none"/><path d="M429.7,387.7c.3-.1.5-.2.8-.3a.6.6,0,0,1-.4.1C429.9,387.6,429.8,387.7,429.7,387.7Z" fill="none"/><path d="M378.9,425.3q-1.65,2.4-3.3,5.1h0a115.958,115.958,0,0,0-5.8,11.1A92.089,92.089,0,0,1,378.9,425.3Z" fill="none"/><path d="M368.5,444.3c.3-.7.6-1.5.9-2.2-.2.4-.3.7-.5,1.1A4.875,4.875,0,0,1,368.5,444.3Z" fill="none"/><path d="M417.8,392.9c-.9.5-1.9.9-2.8,1.4l-3.3,1.8a15.054,15.054,0,0,0-1.7,1c-3.2,1.9-6.4,3.9-9.6,6.2-.5.4-1,.8-1.6,1.2-.8.6-1.6,1.2-2.4,1.9h0c-1.4,1.1-2.7,2.3-4,3.5.4-.3.7-.7,1.1-1a108.755,108.755,0,0,1,26.1-16.8c-.5.2-.9.4-1.4.6Z" fill="none"/><path d="M19.2,280.8a19.163,19.163,0,0,0,19.1,19.1,19.481,19.481,0,0,0,2.5-.2c16.6-3.7,16.3-29.1,8.3-34.6a19.22,19.22,0,0,0-10.8-3.4c-3.2,0-10.5,1.1-13.2,4.2C20.7,269.8,19.2,276,19.2,280.8Z" fill="none"/><path d="M484.9,370c.1-.1.3-.1.4-.2l-1.2.6A2.01,2.01,0,0,1,484.9,370Z" fill="none"/><path d="M438,384.8c1.3-.4,2.6-.9,3.9-1.3C440.6,383.9,439.3,384.3,438,384.8Z" fill="none"/><path d="M474.5,374c.6-.2,1.2-.4,1.9-.6-.7.2-1.4.5-2.1.7C474.4,374.1,474.5,374.1,474.5,374Z" fill="none"/><path d="M312.3,550.1a40.2,40.2,0,0,1-6.9-.6,33.382,33.382,0,0,1-14.5-6.1,21.939,21.939,0,0,1-5-5.1c0-.1-.1-.1-.1-.2-1.8,7-3.4,14.7-4.9,23.3a2.862,2.862,0,0,1,2.6,2.2c1.6,5.7,9,10.4,18,11.5,8.2,1,15-1.1,18.6-4.1,1.5-8.8,3.1-16.6,4.9-23.4a23.528,23.528,0,0,1-4,1.4A34.539,34.539,0,0,1,312.3,550.1Z" fill="#ffb400"/><path d="M297.9,642.6h-1.7a33.975,33.975,0,0,1-15.2-4.1,23.87,23.87,0,0,1-6.2-5v7.1c0,5.8,0,11.5.1,17.1a2.94,2.94,0,0,1,1.4,1.5c2.3,5.4,10.3,9.3,19.4,9.3h.3c9.9,0,17.1-4.2,19.2-8.5-.1-6.3-.1-12.8-.1-19.5v-2.3a26.941,26.941,0,0,1-3.4,1.7A35.018,35.018,0,0,1,297.9,642.6Z" fill="#ffb400"/><path d="M294.9,706.5a34.491,34.491,0,0,1-14.7-3.1c2.6,2,5.2,4.1,7.9,6.1,3,2.2,5.9,4.5,8.9,6.6,3,2.2,6,4.2,9.1,6.3l5.1,3.3a12.628,12.628,0,0,0,4.5-5.1,2.836,2.836,0,0,1,.8-1.1c-.2-6.2-.5-12.8-.7-19.6-4.8,4-12,6.5-20,6.7A2.769,2.769,0,0,0,294.9,706.5Z" fill="#ffb400"/><path d="M280.9,795.3l.3,3a16.048,16.048,0,0,0-.3-3Z" fill="#ffb400"/><path d="M320.6,792.3c.2.3.3.6.5.9,0-.4-.1-.8-.1-1.2A1.38,1.38,0,0,1,320.6,792.3Z" fill="#ffb400"/><path d="M300.9,581.1c-9.5-1.1-17.4-5.6-21.2-11.7-1.1,7.7-2.1,15.9-2.9,24.8a3.119,3.119,0,0,1,3.1,2c1.9,5.6,9.5,10,18.6,10.7,8.1.6,14.6-1.7,18.1-4.7.7-8.4,1.6-16.2,2.6-23.4a32.868,32.868,0,0,1-13.3,2.6A39.529,39.529,0,0,1,300.9,581.1Z" fill="#ffb400"/><path d="M297.9,612.9c-9.6-.7-17.8-4.9-21.8-10.8-.5,7.1-.9,14.7-1.1,22.6a3,3,0,0,1,2.6,2c.9,2.5,3.2,4.9,6.4,6.7a29.273,29.273,0,0,0,12.5,3.3,29.762,29.762,0,0,0,12.8-2.1,16.862,16.862,0,0,0,5.8-3.9c.1-7.3.4-14.2.8-20.8a33.369,33.369,0,0,1-14.9,3.3C300,613,298.9,613,297.9,612.9Z" fill="#ffb400"/><path d="M295.5,674.6c-8.4-.1-15.8-2.8-20.6-7.2.1,8.1.2,15.9.4,23.4a3.915,3.915,0,0,1,.8,1c2.5,5.3,10.5,8.9,19.6,8.7,9-.2,17.1-4.1,19.3-9.2a1.555,1.555,0,0,1,.6-.8c-.2-6.9-.3-14.1-.4-21.6-4.8,3.6-11.7,5.7-19.3,5.7Z" fill="#ffb400"/><path d="M294.7,520.1a45.3,45.3,0,0,1-4.6,3c-.6,2-1.2,4-1.8,6.1a3.36,3.36,0,0,1,1,1.6,11.31,11.31,0,0,0,1.7,3.9,16.214,16.214,0,0,0,3.7,3.7,27.761,27.761,0,0,0,12,5,29.737,29.737,0,0,0,13-.4,18.44,18.44,0,0,0,4.7-1.9,11.83,11.83,0,0,0,3.1-2.6l.3-.3c1-3.2,1.9-6.2,2.9-8.9a33.409,33.409,0,0,1-10.5,1.6A34.286,34.286,0,0,1,294.7,520.1Z" fill="#ffb400"/><path d="M316.1,731a1.761,1.761,0,0,1-2.1.7c-.2-.1-.4-.1-.6-.2-.4.2-.7.4-1.1.6.8.4,1.6.9,2.4,1.3a28.931,28.931,0,0,1,0,5.1,37.451,37.451,0,0,1-4.6,14.8,32.989,32.989,0,0,1-10.5,11.9,22.988,22.988,0,0,1-5.2,2.6l5.4,2.9,9.4,5.1c3.1,1.7,6.3,3.4,9.4,5.2h0a1.711,1.711,0,0,1,.6,2.5,1.81,1.81,0,0,1-2,.8,75.156,75.156,0,0,1-10.4-3.6c-1.7-.7-3.3-1.5-5-2.3-1.6-.8-3.3-1.6-4.9-2.5-3.2-1.8-6.4-3.6-9.4-5.6a91.746,91.746,0,0,1-8.8-6.6,1.38,1.38,0,0,1-.3-.4c.6,8.6,1.1,16.1,1.6,22.4a2.66,2.66,0,0,1,1,1.1c2.9,5.1,11.2,8,20.3,7.1,8.9-.9,16.7-5.4,18.5-10.7a1.612,1.612,0,0,1,.4-.7c0-.6-.1-1.2-.1-1.8-1.5-.6-3-1.3-4.5-1.9a2.6,2.6,0,0,1,1.5-.4,12.5,12.5,0,0,0,4.2-.8,16.28,16.28,0,0,0,4.4-2.8,26.951,26.951,0,0,0,7.2-10.7,31.217,31.217,0,0,0,2.3-12.9,23.783,23.783,0,0,0-.8-5,14.27,14.27,0,0,0-1.7-3.5c-.1-.2-.3-.3-.4-.5-5.2-2.3-10.3-4.8-15.1-7.4-.1-1.9-.2-3.9-.3-5.9-.2.2-.4.3-.6.5A2.257,2.257,0,0,1,316.1,731Z" fill="#ffb400"/><path d="M272.4,845.3c20.6,0,35.6-.6,46.9-1.9h0a8.819,8.819,0,0,1-2.4-6,12.114,12.114,0,0,1,1.5-6.2,11.629,11.629,0,0,1,4.3-4.5,9.588,9.588,0,0,1,6.3-1.5h.1a83.259,83.259,0,0,0-7.9-32.1c-.2-.3-.3-.6-.5-.9-4.4,4-11.1,6.9-18.7,7.7-1.3.1-2.6.2-3.9.2-6.6,0-12.7-1.7-17-4.8.1,1,.2,2,.2,2.9a8.751,8.751,0,0,1-.3,2.4,47.944,47.944,0,0,1,6.8,27.4c-.1,2.2-1.9,2.7-4,2.7h-.2c-2.2-.1-3.9-.8-3.8-3a40.535,40.535,0,0,0-4.5-20.9,11.938,11.938,0,0,1-7.9-.4l-1.8-.6a48.991,48.991,0,0,1,.2,23c-.4,1.9-1.8,2-3.7,2a2.769,2.769,0,0,1-.9-.1c-2.2-.5-3.8-1.5-3.3-3.7a39.961,39.961,0,0,0-1.4-23.4,50.854,50.854,0,0,0-5.5-.4c-32.1-.1-35.1,24.5-34.3,38.3a7.721,7.721,0,0,0,4.6,2C231.1,844.2,252.1,845.3,272.4,845.3Zm35.8-37.2a9.7,9.7,0,1,1-9.7,9.7A9.709,9.709,0,0,1,308.2,808.1Z" fill="#f04e23"/><path d="M320.8,850.3c.1,0,.1,0,.2-.1h0A.349.349,0,0,0,320.8,850.3Z" fill="#f04e23"/><path d="M298,800.1c1.3,0,2.6-.1,3.9-.2,7.6-.8,14.3-3.6,18.7-7.7l.3-.3c-.3-2.8-.5-5.9-.8-9.4a4.348,4.348,0,0,0-.4.7c-1.8,5.3-9.6,9.8-18.5,10.7-9.1.9-17.4-2-20.3-7.1a5.241,5.241,0,0,0-1-1.1c.3,3.5.6,6.7.8,9.5a.1.1,0,0,1,.1.1C285.3,798.4,291.4,800.1,298,800.1Z" fill="#04294f"/><path d="M295.7,700.5c-9.1.2-17.2-3.4-19.6-8.7a2.539,2.539,0,0,0-.8-1c.1,3.3.2,6.5.2,9.7a15.1,15.1,0,0,0,2.6,1.8,1.929,1.929,0,0,0-1,.3,1.871,1.871,0,0,0-.4,2.5,58.237,58.237,0,0,0,7.8,8.6c.5.5,1.1,1,1.6,1.5,0,.2.1.3.1.5a12.31,12.31,0,0,1,.2,2,25.038,25.038,0,0,1-.6,5.1,35.926,35.926,0,0,1-5.6,11.9,27.148,27.148,0,0,1-9.7,8.4,16.715,16.715,0,0,1-5,1.5,18.484,18.484,0,0,1-2.3.1,14.159,14.159,0,0,1-2-.4,2.752,2.752,0,0,0-2.2.2c2.5,2.1,5.1,4.1,7.7,6.1a22.544,22.544,0,0,0,6.4-2,33.137,33.137,0,0,0,12-10.3,37.861,37.861,0,0,0,6.6-14.1c.3-1.4.5-2.7.7-3.9.3.3.7.5,1,.8,1.6,1.1,3.2,2.2,4.8,3.2,1.7,1,3.3,2,5,2.9a24.371,24.371,0,0,0,2.8,1.4c.3.2.7.4,1,.6a.349.349,0,0,0,.1.2c1.2,1.9,1.7,5,1.4,8.7a33,33,0,0,1-3.9,12.5,27.109,27.109,0,0,1-8.5,9.7,13.244,13.244,0,0,1-9,2.5,2.777,2.777,0,0,0-1.8.3c-2.5-1.5-4.9-3-7.3-4.6.1,1.1.1,2.2.2,3.3a1.726,1.726,0,0,0,.1,1.7c.1.1.2.3.3.4a80.76,80.76,0,0,0,8.8,6.6c3,2,6.2,3.9,9.4,5.6,1.6.9,3.2,1.7,4.9,2.5s3.3,1.6,5,2.3a75.156,75.156,0,0,0,10.4,3.6,1.756,1.756,0,0,0,2-.8,1.877,1.877,0,0,0-.6-2.5h0c-3.1-1.8-6.3-3.5-9.4-5.2l-9.4-5.1-5.3-3a22.988,22.988,0,0,0,5.2-2.6,34.952,34.952,0,0,0,10.5-11.9,37.953,37.953,0,0,0,4.6-14.8,21.731,21.731,0,0,0,0-5.1c-.8-.4-1.6-.9-2.4-1.3.4-.2.7-.4,1.1-.6a1.421,1.421,0,0,0,.6.2,1.761,1.761,0,0,0,2.1-.7,1.839,1.839,0,0,0,.2-1.6c.2-.2.4-.3.6-.5-.1-3.1-.3-6.2-.4-9.5a4.44,4.44,0,0,0-.8,1.1,11.924,11.924,0,0,1-4.5,5.1l-5.1-3.3c-3.1-2-6.1-4.1-9.1-6.3-3-2.1-6-4.3-8.9-6.6-2.6-2-5.3-4.1-7.9-6.1a34.166,34.166,0,0,0,14.7,3.1h.9c8-.2,15.2-2.7,20-6.7-.1-3.1-.2-6.2-.2-9.3a5.547,5.547,0,0,0-.6.8C312.8,696.4,304.6,700.3,295.7,700.5Z" fill="#04294f"/><path d="M295.8,668.5h-.3c-9.1-.1-17.1-3.9-19.4-9.3a2.94,2.94,0,0,0-1.4-1.5c0,3.3.1,6.5.1,9.7,4.8,4.4,12.3,7.1,20.6,7.2h.3c7.6,0,14.5-2.1,19.3-5.7,0-2.9-.1-5.8-.1-8.8C313,664.3,305.8,668.5,295.8,668.5Z" fill="#04294f"/><path d="M309.3,634.4a29.762,29.762,0,0,1-12.8,2.1,28.887,28.887,0,0,1-12.5-3.3c-3.2-1.8-5.4-4.1-6.4-6.7a3.041,3.041,0,0,0-2.6-2c-.1,2.9-.1,5.9-.2,8.9a22.312,22.312,0,0,0,6.2,5,35.322,35.322,0,0,0,15.2,4.1h1.7a34.18,34.18,0,0,0,13.7-2.7,35.924,35.924,0,0,0,3.4-1.7c0-2.6,0-5.2.1-7.7A14.65,14.65,0,0,1,309.3,634.4Z" fill="#04294f"/><path d="M298.4,606.9c-9.1-.7-16.7-5.1-18.6-10.7a2.961,2.961,0,0,0-3.1-2c-.2,2.6-.4,5.2-.6,7.9,4.1,5.9,12.3,10.1,21.8,10.8,1,.1,2.1.1,3.1.1a33.059,33.059,0,0,0,14.9-3.3c.2-2.6.3-5.1.5-7.6C312.9,605.2,306.4,607.5,298.4,606.9Z" fill="#04294f"/><path d="M301.6,575.1c-9-1.1-16.4-5.8-18-11.5a2.987,2.987,0,0,0-2.6-2.2c-.4,2.6-.9,5.3-1.3,8,3.8,6.1,11.8,10.5,21.2,11.7a38.663,38.663,0,0,0,4.8.3,32.868,32.868,0,0,0,13.3-2.6c.4-2.7.8-5.2,1.2-7.7C316.6,574,309.8,576.1,301.6,575.1Z" fill="#04294f"/><path d="M324.3,541.2a15.418,15.418,0,0,1-4.7,1.9,31.333,31.333,0,0,1-13,.4,28.288,28.288,0,0,1-12-5,18.515,18.515,0,0,1-3.7-3.7,10.33,10.33,0,0,1-1.7-3.9,2.475,2.475,0,0,0-1-1.6c-.8,2.8-1.6,5.8-2.4,8.9,0,.1.1.1.1.2a26.658,26.658,0,0,0,5,5.1,34.44,34.44,0,0,0,14.5,6.1,40.2,40.2,0,0,0,6.9.6,35.139,35.139,0,0,0,8.7-1.1c1.4-.4,2.7-.9,4-1.4.8-3.3,1.7-6.4,2.6-9.3l-.3.3A13.2,13.2,0,0,1,324.3,541.2Z" fill="#04294f"/><path d="M193.6,629.2c1.6,2.4,4.5,4.1,8,4.9a27.155,27.155,0,0,0,12.9-.5,34.11,34.11,0,0,0,11.8-5.7,15.587,15.587,0,0,0,4.9-5.7,185.5,185.5,0,0,1-2.9-20.6,25.305,25.305,0,0,1-3.6,2.5,39.7,39.7,0,0,1-14.8,4.8,33.662,33.662,0,0,1-4.4.3,31.542,31.542,0,0,1-11.3-2,19.829,19.829,0,0,1-6.2-3.6,237.4,237.4,0,0,0,3.3,24.4A2.676,2.676,0,0,1,193.6,629.2Z" fill="#ffb400"/><path d="M189.1,595.6a13.4,13.4,0,0,0,7.3,5.9,28.26,28.26,0,0,0,12.9,1.4,32.254,32.254,0,0,0,12.5-4,15.638,15.638,0,0,0,6-5.6c-.3-6.5-.4-12.8-.2-18.9a25.238,25.238,0,0,1-4.3,2.4,37.832,37.832,0,0,1-15.2,3H208a33.282,33.282,0,0,1-15.4-3.5,22,22,0,0,1-5.4-3.9c-.2,7-.2,14.2.1,21.6A3.143,3.143,0,0,1,189.1,595.6Z" fill="#ffb400"/><path d="M188.8,564.3a12.819,12.819,0,0,0,6.6,6.6,27.85,27.85,0,0,0,12.6,2.8h.1a33.192,33.192,0,0,0,12.8-2.5c3.4-1.5,5.8-3.4,6.9-5.5.1-.1.2-.3.3-.4.5-7.3,1.3-14.1,2.2-20.5a24.764,24.764,0,0,1-5.2,2.3,36.141,36.141,0,0,1-11,1.6,38.7,38.7,0,0,1-19.4-5.4,26.9,26.9,0,0,1-4.4-3.7c-1,7.2-1.9,15-2.5,23.2A4.923,4.923,0,0,1,188.8,564.3Z" fill="#ffb400"/><path d="M197.9,538.4a28.5,28.5,0,0,0,12.2,4.2,32.828,32.828,0,0,0,13-1.1c3.5-1.1,6.1-2.8,7.5-4.8a5.241,5.241,0,0,1,1.1-1c.3-1.9.7-3.8,1.1-5.5a35.487,35.487,0,0,1-7.3.8,34.686,34.686,0,0,1-30.2-17.6c-1.2,5-2.4,10.7-3.5,16.9a2.01,2.01,0,0,1,.4.8C192.8,533.9,194.9,536.4,197.9,538.4Z" fill="#ffb400"/><path d="M338.5,766.2a34.578,34.578,0,0,1-8.9,13.1,19.688,19.688,0,0,1-5,3.3c7.2,2.9,14.6,5.6,22.3,8.1a2.836,2.836,0,0,1,1.3-.4c2.6-.2,5.5-1.8,8-4.6a28.333,28.333,0,0,0,6.1-11.4,32.424,32.424,0,0,0,1-13c-.5-3.5-1.8-6.5-3.6-8.2-.2-.2-.3-.4-.5-.6-6.5-2.1-12.8-4.3-18.9-6.8a21.914,21.914,0,0,1,.7,5.3A34.053,34.053,0,0,1,338.5,766.2Z" fill="#ffb400"/><path d="M261.3,744.2a7.87,7.87,0,0,0,2,.4,9.064,9.064,0,0,0,2.3-.1,16.715,16.715,0,0,0,5-1.5,27.148,27.148,0,0,0,9.7-8.4,31.644,31.644,0,0,0,5.6-11.9,23.55,23.55,0,0,0,.6-5.1,12.31,12.31,0,0,0-.2-2,4.331,4.331,0,0,0-.1-.5c-.6-.5-1.1-1-1.6-1.5a58.237,58.237,0,0,1-7.8-8.6,1.776,1.776,0,0,1,.4-2.5,1.689,1.689,0,0,1,1-.3c-.9-.6-1.8-1.2-2.6-1.8,0,1.6.1,3.1.1,4.7-1.4-1.3-2.7-2.6-4-4a24.888,24.888,0,0,1-1.4,4.1,40.638,40.638,0,0,1-8.9,12.7,32.848,32.848,0,0,1-13.6,8.1,21.306,21.306,0,0,1-6,.9h-1.1a217.073,217.073,0,0,0,18.4,17.4A2.763,2.763,0,0,1,261.3,744.2Z" fill="#ffb400"/><path d="M203,662.2a13.435,13.435,0,0,0,8.7,3.7,26.345,26.345,0,0,0,12.7-2.6,33.23,33.23,0,0,0,10.7-7.5,16.359,16.359,0,0,0,3.9-6.1,158.144,158.144,0,0,1-6.1-19.6,24.348,24.348,0,0,1-2.9,2.6,38.881,38.881,0,0,1-14,6.8,36.907,36.907,0,0,1-9.2,1.2,28.419,28.419,0,0,1-6.6-.7,20.069,20.069,0,0,1-7-3,223.475,223.475,0,0,0,7.2,24.3A2.925,2.925,0,0,1,203,662.2Z" fill="#ffb400"/><path d="M236.7,719.8a11.919,11.919,0,0,0,2,.8,7.316,7.316,0,0,0,2.2.3,15.724,15.724,0,0,0,5.2-.6,24.849,24.849,0,0,0,11-6.7,35.265,35.265,0,0,0,7.6-10.8,27.028,27.028,0,0,0,1.5-4.9,6.729,6.729,0,0,0,.1-2v-.7a160.72,160.72,0,0,1-11.9-15.6,24.3,24.3,0,0,1-2,3.5,40.764,40.764,0,0,1-11,10.9,33.023,33.023,0,0,1-14.8,5.6,18.484,18.484,0,0,1-2.3.1,18.794,18.794,0,0,1-4.9-.6c-.1,0-.2-.1-.3-.1a203.657,203.657,0,0,0,15.2,20.7A2.893,2.893,0,0,1,236.7,719.8Z" fill="#ffb400"/><path d="M216.8,691.4a10.6,10.6,0,0,0,4,1.9,14.615,14.615,0,0,0,5.2.3,25.98,25.98,0,0,0,12-4.6,35.832,35.832,0,0,0,9.4-9.2,18.008,18.008,0,0,0,2.3-4.6,10.408,10.408,0,0,0,.6-2.2c-1.1-1.9-2.2-3.8-3.2-5.8-1.8-3.4-3.5-6.9-5-10.4a31.514,31.514,0,0,1-2.4,3,40.551,40.551,0,0,1-12.7,9,33.153,33.153,0,0,1-13.7,3.1,10.869,10.869,0,0,1-1.8-.1,20.223,20.223,0,0,1-7.5-1.9q3.3,7.95,7.5,15.9c.9,1.7,1.8,3.4,2.8,5.1A2.658,2.658,0,0,1,216.8,691.4Z" fill="#ffb400"/><path d="M287.2,762.7a13.111,13.111,0,0,0,9-2.5,27.01,27.01,0,0,0,8.5-9.7,33,33,0,0,0,3.9-12.5c.3-3.7-.2-6.8-1.4-8.7a.349.349,0,0,0-.1-.2c-.3-.2-.7-.4-1-.6-.9-.5-1.8-.9-2.8-1.4-1.7-.9-3.3-1.9-5-2.9-1.6-1.1-3.2-2.1-4.8-3.2a8.744,8.744,0,0,1-1-.8,17.777,17.777,0,0,1-.7,3.9,42.15,42.15,0,0,1-6.6,14.1,33.137,33.137,0,0,1-12,10.3,22.544,22.544,0,0,1-6.4,2c3.7,2.8,7.4,5.4,11.3,8,2.4,1.6,4.8,3.1,7.3,4.6A3.425,3.425,0,0,1,287.2,762.7Z" fill="#ffb400"/><path d="M363.4,761.2a30.725,30.725,0,0,1-1,13,28.333,28.333,0,0,1-6.1,11.4c-2.5,2.7-5.4,4.4-8,4.6a2.836,2.836,0,0,0-1.3.4c3,1,6,1.9,9.1,2.8a36.38,36.38,0,0,0,11.8-38.5h.1c-2.9-.8-5.7-1.7-8.6-2.6a2.651,2.651,0,0,0,.5.6A15.876,15.876,0,0,1,363.4,761.2Z" fill="#04294f"/><path d="M334.4,746.2a15.418,15.418,0,0,1,.8,5,32.932,32.932,0,0,1-2.3,12.9,26.951,26.951,0,0,1-7.2,10.7,16.28,16.28,0,0,1-4.4,2.8,8.986,8.986,0,0,1-4.2.8,2.41,2.41,0,0,0-1.5.4c1.5.7,3,1.3,4.5,1.9s3.1,1.3,4.6,1.9a30.824,30.824,0,0,0,5-3.3,33.813,33.813,0,0,0,8.9-13.1,38.114,38.114,0,0,0,2.7-15.3,28.321,28.321,0,0,0-.7-5.3c-2.8-1.1-5.5-2.3-8.2-3.5a1,1,0,0,0,.4.5A21.045,21.045,0,0,1,334.4,746.2Z" fill="#04294f"/><path d="M241.7,727a20.788,20.788,0,0,0,6-.9,32.848,32.848,0,0,0,13.6-8.1,40.638,40.638,0,0,0,8.9-12.7,24.888,24.888,0,0,0,1.4-4.1c-1.9-1.9-3.6-3.9-5.4-5.9v.7a12.75,12.75,0,0,1-.1,2,18.024,18.024,0,0,1-1.5,4.9,33.571,33.571,0,0,1-7.6,10.8,26.831,26.831,0,0,1-11,6.7,15.724,15.724,0,0,1-5.2.6,13,13,0,0,1-2.2-.3,11.919,11.919,0,0,1-2-.8,3.357,3.357,0,0,0-2.6-.1c2.1,2.5,4.2,4.9,6.4,7.2h1.3Z" fill="#04294f"/><path d="M224.2,699.7a17.7,17.7,0,0,0,2.3-.1,33.023,33.023,0,0,0,14.8-5.6,38.1,38.1,0,0,0,11-10.9,24.3,24.3,0,0,0,2-3.5c-1.4-2.2-2.8-4.4-4.1-6.6a10.408,10.408,0,0,1-.6,2.2,21.977,21.977,0,0,1-2.3,4.6,33.01,33.01,0,0,1-9.4,9.2,27.583,27.583,0,0,1-12,4.6,14.615,14.615,0,0,1-5.2-.3,10.6,10.6,0,0,1-4-1.9,2.951,2.951,0,0,0-2.7-.5c1.6,2.8,3.2,5.5,4.9,8.1.1,0,.2.1.3.1A20.74,20.74,0,0,0,224.2,699.7Z" fill="#04294f"/><path d="M213.2,671.9a34.814,34.814,0,0,0,13.7-3.1,39,39,0,0,0,12.7-9,31.514,31.514,0,0,0,2.4-3c-1-2.4-2-4.8-2.9-7.2a16.359,16.359,0,0,1-3.9,6.1,33.23,33.23,0,0,1-10.7,7.5,28.376,28.376,0,0,1-12.7,2.6,12.507,12.507,0,0,1-8.7-3.7,3.225,3.225,0,0,0-2.6-.9c1.1,2.9,2.2,5.8,3.4,8.7a22.993,22.993,0,0,0,7.5,1.9A10.869,10.869,0,0,0,213.2,671.9Z" fill="#04294f"/><path d="M206.8,640.7a36.907,36.907,0,0,0,9.2-1.2,39.7,39.7,0,0,0,14-6.8,25.241,25.241,0,0,0,2.9-2.6c-.6-2.6-1.2-5.2-1.7-7.8a18.907,18.907,0,0,1-4.9,5.7,32.424,32.424,0,0,1-11.8,5.7,27.155,27.155,0,0,1-12.9.5,13.287,13.287,0,0,1-8-4.9,3.214,3.214,0,0,0-2.3-1.3c.6,3,1.2,6.1,1.9,9.1a22.125,22.125,0,0,0,7,3A35.219,35.219,0,0,0,206.8,640.7Z" fill="#04294f"/><path d="M205.5,609.1a33.662,33.662,0,0,0,4.4-.3,37.974,37.974,0,0,0,14.8-4.8,32.66,32.66,0,0,0,3.6-2.5c-.3-2.8-.4-5.6-.6-8.4a15.638,15.638,0,0,1-6,5.6,31.72,31.72,0,0,1-12.5,4,27.263,27.263,0,0,1-12.9-1.4,13.4,13.4,0,0,1-7.3-5.9,2.979,2.979,0,0,0-1.8-1.5c.1,3.1.4,6.3.6,9.5A21.033,21.033,0,0,0,194,607,29.726,29.726,0,0,0,205.5,609.1Z" fill="#04294f"/><path d="M208,579.8h0a40.124,40.124,0,0,0,15.3-3,25.238,25.238,0,0,0,4.3-2.4c.1-3.1.3-6.1.5-9a1.38,1.38,0,0,0-.3.4c-1.1,2-3.5,4-6.9,5.5a33.192,33.192,0,0,1-12.8,2.5H208a27.85,27.85,0,0,1-12.6-2.8,14.027,14.027,0,0,1-6.6-6.6,2.586,2.586,0,0,0-1.1-1.4c-.2,3.1-.4,6.3-.5,9.5a22,22,0,0,0,5.4,3.9A34.546,34.546,0,0,0,208,579.8Z" fill="#04294f"/><path d="M194.6,543.5a38.7,38.7,0,0,0,19.4,5.4,39.517,39.517,0,0,0,11-1.6,24.764,24.764,0,0,0,5.2-2.3c.5-3.2,1-6.3,1.5-9.2a2.591,2.591,0,0,0-1.1,1c-1.3,1.9-4,3.6-7.5,4.8a32.828,32.828,0,0,1-13,1.1,27.232,27.232,0,0,1-12.2-4.2c-3-2-5.1-4.6-5.8-7.2a2.01,2.01,0,0,0-.4-.8c-.5,3-1,6.1-1.5,9.4A27.367,27.367,0,0,0,194.6,543.5Z" fill="#04294f"/><path d="M260.1,221.1a321.543,321.543,0,0,0,34.3-1.5c14-1.5,17.3-3.3,22.7-4.9a14.147,14.147,0,0,0,3.1-1.4A20.278,20.278,0,0,0,322,212l.4-.4.1-.1c3.3-3.2,6.1-8.9,6.8-17.9,0,0,3.9-47.4,5.3-68.3a207.6,207.6,0,0,0,.1-28.4,12.9,12.9,0,0,0,3.8-2.8l32.7-34.9a6.36,6.36,0,0,0,.3-8.2l-1-1.2a6.13,6.13,0,0,1,.3-8.2l12.4-13.2a6.753,6.753,0,0,0,.2-9.1l-4.8-5.6h0a2.613,2.613,0,0,0-3.8-.3L313.2,65.3A14.058,14.058,0,0,0,311.5,85l7.1,8.5A13.337,13.337,0,0,0,332,97.9l-.3.5a12.416,12.416,0,0,1-11,6.7,13.093,13.093,0,0,1-10.2-4.8l-2-2.4a137.235,137.235,0,0,1,0,20.3h0c-.8,16.9-.3,27.5-6.1,31.3-9.9,6.4-44.5,6.9-74.9,3.4-20.4-2.4-37.8-8.2-15.8-5.9,19.3,2,65,4.9,78.6,0h0a6.272,6.272,0,0,0,2.4-3.6,1.483,1.483,0,0,0,.1-.7v-.1a222.6,222.6,0,0,0,1.5-47.2,6.851,6.851,0,0,0-7.4-6.3,351.4,351.4,0,0,1-39,.8,356.314,356.314,0,0,1-37.6-2.7c-1.5-.2-3-.4-4.4-.6-.5-.1-.9-.1-1.4-.2-1-.2-1.9-.3-2.8-.5l-3.3-.6c-.4-.1-.7-.1-1-.2l-2.7-.6a.367.367,0,0,1-.3-.1c-2.6-.6-4.9-1.1-7-1.7-.5-.1-1-.3-1.5-.4s-1-.3-1.5-.4h-.1c-.4-.1-.9-.3-1.3-.4-.9-.3-1.8-.6-2.6-.8h-.1a6.843,6.843,0,0,0-8.8,5.3c-.1.6-.2,1.3-.3,2v.1c-2.1,13.6-1.7,33.8.1,45.6a7.053,7.053,0,0,0,4.5,5.5c2.1.8,4.5,1.6,7.3,2.4.3,3.3.5,6.8.8,10.3,2.5,1.4,10.5,3.6,12.4,4,6.5,1.3,13.7,4.1,32.7,5.6,7.6.6,17,1,29,1,6.6,0,12.5-.1,17.6-.3h.1a7.569,7.569,0,0,0,1.5-.1c16-.2,15.5,14.3,15.5,20.4s.5,21.7-15,22.9c-.9,0-1.9.1-2.8.1h0c-5,.2-10.5.3-16.8.3-12,0-21.5-.4-29-1-19-1.5-26.2-4.4-32.7-5.6a37.2,37.2,0,0,1-8.9-3.8c.9,8.2,3.5,13.3,6.6,16.4l.1.1.4.4a5.936,5.936,0,0,0,1.8,1.3,14.147,14.147,0,0,0,3.1,1.4c5.4,1.6,8.7,3.4,22.7,4.9,2.9.3,6,.6,9.6.8v-.3C239.2,220.7,248.4,221.1,260.1,221.1ZM338.6,55.4l39.8-36.6a1.981,1.981,0,1,1,2.7,2.9L342.8,57l4.4,5.1,17.3-16.9a1.98,1.98,0,0,1,2.8,2.8L348.4,66.5a1.974,1.974,0,0,1-1.4.6h-.1a1.75,1.75,0,0,1-1.4-.7l-7-8.2A2.018,2.018,0,0,1,338.6,55.4Zm-8.3,31.2c-4.4,0-7.9-4.6-7.9-10.3S326,66,330.3,66c4.4,0,7.9,4.6,7.9,10.3S334.7,86.6,330.3,86.6ZM185.8,131.7a7.845,7.845,0,0,1-5.5-6.7,203.85,203.85,0,0,1-.4-24.9,7.75,7.75,0,0,1,9.5-7.1,186.725,186.725,0,0,0,19.8,3.6,366.319,366.319,0,0,0,38.6,2.8c4.6.1,9.1.2,13.3.2,5.7,0,11.1-.1,16.1-.3a7.753,7.753,0,0,1,8.1,7.5,212.364,212.364,0,0,1-.9,25.3,7.814,7.814,0,0,1-7.3,7c-5.4.3-11.2.4-17.5.4-4,0-8.4-.1-12.8-.2a354.524,354.524,0,0,1-36.5-2.6A145.533,145.533,0,0,1,185.8,131.7Z" fill="#f04e23"/><path d="M185.6,73.1a19.91,19.91,0,0,1,7.4.4,161.7,161.7,0,0,0,29.3,5.6,344.015,344.015,0,0,0,37.6,1.7c14.2,0,25.6-.5,35-1.4a14.018,14.018,0,0,1,4.5-14.3L320,47.7c-16.9-24.8-44.1-27.8-61.6-27.8-2.1,0-4.3,0-6.6.2C229.2,21.3,196.9,29.3,185.6,73.1Z" fill="#f04e23"/><path d="M327.3,513.9a1.188,1.188,0,0,0,1-1.2h0c-.2-5.8-.8-11.6-1.3-17.4l-1.7-17.2h0a1.273,1.273,0,0,0-1.1-1.1,1.244,1.244,0,0,0-1.4,1.1,53.06,53.06,0,0,0-.4,8.9c0,2.9.3,5.9.5,8.8q.45,4.35,1.2,8.7a82.271,82.271,0,0,0,1.9,8.6,1.22,1.22,0,0,0,.9.8H314.5c0-27.3,2.1-42.5,4.5-52.5a34.889,34.889,0,0,0-33.8,34.8,34.5,34.5,0,0,0,9.5,23.9A34.965,34.965,0,0,0,320,531a36.038,36.038,0,0,0,10.5-1.6c.5-.2,1-.3,1.5-.5q-2.25-7.8-3.9-15Z" fill="#04294f"/><path d="M225.5,531a35.038,35.038,0,0,0,21-7.1,52.665,52.665,0,0,1-5.9-3.7,43.226,43.226,0,0,1-5.1-4.5c-3.7-3.8-7.4-7.9-11.2-12.5a137.817,137.817,0,0,1-20.7-34.1A34.828,34.828,0,0,0,225.5,531Z" fill="#04294f"/><path d="M335.7,289.7c0,25.7,12.3,46.5,27.4,46.5a16.844,16.844,0,0,0,4.5-.6h.1c.2-.1.4-.1.6-.2a1.577,1.577,0,0,1,.4-.1c8.9-3.2,16.3-13.8,19.7-27.8a147.083,147.083,0,0,0-18.1,1.5c-.6.1-1.3.2-1.9.3s-1.3.2-1.9.3a20.165,20.165,0,0,1-11.2-1.3c-3.4-4.1-5.6-10.9-5.6-18.5s2.2-14.4,5.6-18.6a21.335,21.335,0,0,1,4.5-1.3c2.7-.5,5.4-.9,8-1.2v-.3a1.38,1.38,0,0,1,.4.3h.2a19.217,19.217,0,0,0-1.8,3.5,36.435,36.435,0,0,0-2.3,15.5,40.33,40.33,0,0,0,3.6,15,25.614,25.614,0,0,0,3.9,6.1c2.7-.4,5.4-.6,8.1-.8a3.447,3.447,0,0,0-1.2-1.2c-1.9-1-3.8-3.4-5.3-6.6a34.867,34.867,0,0,1-3-12.8,28.813,28.813,0,0,1,1.9-12.8c1.3-3.2,3.2-5.6,5.4-6.7,3.2-.2,6.4-.4,9.5-.4-4-12.3-11.2-21.2-19.7-23.5h0c-.2-.1-.4-.1-.6-.2a15.534,15.534,0,0,0-3.7-.4C348,243.2,335.7,264,335.7,289.7Z" fill="#04294f"/><path d="M367.7,335.6c.2-.1.4-.1.6-.2A3.933,3.933,0,0,0,367.7,335.6Z" fill="#00aee0"/><path d="M304.8,354.4c8.7-2.5,17.5-5,25.7-7.5,18-5.4,33-10.1,37.2-11.4a17.4,17.4,0,0,1-4.5.6c-15.1,0-27.4-20.8-27.4-46.5s12.3-46.5,27.4-46.5a22.061,22.061,0,0,1,3.7.4c-33.3-8.8-41.4-10.8-72.5-11.3v4.4c4.4,1.5,6,3.3,6,5.4,0,4.6-11,8.3-37.2,8.3S226,246.6,226,242c0-2.1,1.5-4,6-5.4v-4c-39.3,2.3-61.5,10.2-63.8,11.1H168c-9.8,2.8-17.9,14.5-21.2,30.1a79.811,79.811,0,0,0-1.6,15.8,74.84,74.84,0,0,0,2.3,18.7,59.374,59.374,0,0,0,3.7,10.3c3.5,7.5,8.4,13.1,14,15.8.1,0,.4.2,1,.4.1.1.2.1.3.2,4.7,2.1,21,9.3,38.5,16.3,19.2,7.7,39.9,15.1,48.3,15.1C260.4,366.4,282.1,360.8,304.8,354.4Zm6.1-19.1c-2,.6-3.8,1.1-5.2,1.6a4.085,4.085,0,0,1-4.5-1.5,36.445,36.445,0,0,1-6.7-16.6,4.1,4.1,0,0,1,3.7-4.6,32.435,32.435,0,0,1,7.1.1,4.139,4.139,0,0,1,3.6,3.3,33.137,33.137,0,0,0,4.4,11.8A4.076,4.076,0,0,1,310.9,335.3Zm18.3-4.4c-1.7.5-3.2,1-4.4,1.3a3.523,3.523,0,0,1-3.8-1.3,32.754,32.754,0,0,1-5.7-14,3.444,3.444,0,0,1,3.1-3.9,39.551,39.551,0,0,1,6,0,3.5,3.5,0,0,1,3,2.8,27.355,27.355,0,0,0,3.7,9.9A3.4,3.4,0,0,1,329.2,330.9Zm-147.7.8c-2.7-1.2-5.3-2.3-6.5-2.8a4.44,4.44,0,0,1-1.1-.8c-3.3-4.2-3.9-8.3-4.3-11.9a2.768,2.768,0,0,1,2.6-3.1,17.676,17.676,0,0,1,6.3.6,2.849,2.849,0,0,1,1.9,2.2c1,5.5,1.5,6.8,4.6,11.7A2.819,2.819,0,0,1,181.5,331.7Zm20.7,4.7c-3.3-1.4-6.4-2.8-7.7-3.4a2.56,2.56,0,0,1-1.3-1c-4-5.1-4.7-9.9-5.2-14.3a3.327,3.327,0,0,1,3.1-3.7,19.8,19.8,0,0,1,7.6.7,3.37,3.37,0,0,1,2.3,2.7c1.1,6.5,1.8,8.1,5.4,14A3.412,3.412,0,0,1,202.2,336.4ZM241,271.9c-3.2-.2-6.4-.4-9.6-.7-6.4-.5-12.8-1.3-19.1-2.2s-12.7-1.9-19-3c-3.2-.5-6.3-1.2-9.4-1.8s-6.3-1.3-9.4-2.1a1.8,1.8,0,0,1-1.3-2.1,1.735,1.735,0,0,1,1.9-1.3h0l9.4,1.3,9.5,1.2c6.3.8,12.6,1.6,18.9,2.2q9.45,1.05,18.9,1.8c3.2.3,6.3.4,9.5.6,3.1.1,6.3.3,9.4.3,12.6.2,25.3-.4,38-1,12.7-.7,25.4-1.6,38.1-2.5h0a1.883,1.883,0,0,1,2,1.7,1.714,1.714,0,0,1-1.6,1.9q-19.05,2.7-38.1,4.2c-6.4.5-12.8,1-19.2,1.3-3.2.2-6.4.2-9.6.4-3.2,0-6.4.1-9.6.1S244.2,272,241,271.9Z" fill="#f04e23"/><path d="M285.8,403.6c7-.5,9.9-4.4,11-9.7l8.1-39.5c-22.7,6.4-44.4,12-51.8,12-8.4,0-29.1-7.4-48.3-15.1l8.8,41.2a12.029,12.029,0,0,0,10,9.4c4.6.7,10.9,1.4,18.3,2,5.5.4,11.6.7,18.1.7C268,404.6,277.2,404.2,285.8,403.6Zm-.3-39.7a2.651,2.651,0,0,1,.6-.5c.2-.1.5-.3.7-.4a1.884,1.884,0,0,1,.8-.2,3.972,3.972,0,0,1,3.6,1.1,4.2,4.2,0,0,1,1.2,2.8,3.631,3.631,0,0,1-1.2,2.8,4.417,4.417,0,0,1-2.8,1.2,2.2,2.2,0,0,1-.8-.1c-.3-.1-.5-.1-.8-.2a2.506,2.506,0,0,1-.7-.4c-.2-.2-.4-.3-.6-.5a4.417,4.417,0,0,1-1.2-2.8A3.784,3.784,0,0,1,285.5,363.9Zm-4.7,18.8a4.04,4.04,0,1,1,4,4.9,1.949,1.949,0,0,1-.8-.1A3.957,3.957,0,0,1,280.8,382.7Zm-8.4,5.9a4,4,0,0,1,.4,8h-.2a4,4,0,0,1-.2-8Zm-52.2-18.5a1.612,1.612,0,0,1-.7-.4c-.2-.2-.4-.3-.6-.5a3.949,3.949,0,0,1-1.2-2.8,3.631,3.631,0,0,1,1.2-2.8,2.651,2.651,0,0,1,.6-.5,1.612,1.612,0,0,1,.7-.4,1.854,1.854,0,0,1,.7-.2,4.3,4.3,0,0,1,1.6,0c.3.1.5.1.8.2a2.506,2.506,0,0,1,.7.4,2.651,2.651,0,0,1,.6.5,3.949,3.949,0,0,1,1.2,2.8,3.631,3.631,0,0,1-1.2,2.8,2.651,2.651,0,0,1-.6.5c-.2.1-.5.3-.7.4a2.353,2.353,0,0,1-.8.2,3.25,3.25,0,0,1-1.6,0A1.854,1.854,0,0,1,220.2,370.1Zm6.1,17a2.769,2.769,0,0,1-.9.1,4,4,0,1,1,4-4.8A3.91,3.91,0,0,1,226.3,387.1Zm15.9,5.3a4.009,4.009,0,0,1-4,3.6h-.4a4.02,4.02,0,1,1,4.4-3.6Zm13.2,4.7h0a3.971,3.971,0,0,1-4-4.1,4.05,4.05,0,1,1,8.1.1A4.166,4.166,0,0,1,255.4,397.1Z" fill="#ffb400"/><path d="M244.9,451.6c3.6,1.2,10.9,2.8,23.3,2.8s19.7-1.6,23.3-2.8a4.752,4.752,0,0,0,3-4.6V403.1c6.3-.5,12-1,16.3-1.5a11.9,11.9,0,0,0,10.5-9.5l9.2-45.1c-8.2,2.5-17,5-25.7,7.5L296.7,394c-1.1,5.3-4,9.2-11,9.7-8.6.6-17.7,1-25.8,1-6.5,0-12.6-.3-18.1-.7v43A4.978,4.978,0,0,0,244.9,451.6Z" fill="#04294f"/><path d="M166,334.9a3.519,3.519,0,0,0-1-.4A10.375,10.375,0,0,0,166,334.9Z" fill="#00aee0"/><path d="M78.4,414.1c4.6-8.6,5.2-16.6,3.4-21.1a25.157,25.157,0,0,1-5.5-4.2c-3.6,5.5-10.6,10.4-19.1,13.2a42.564,42.564,0,0,1-13.3,2.2,32.389,32.389,0,0,1-7.2-.8c7,11,15.8,19.6,26.2,25.2C67.7,427.4,73.9,422.5,78.4,414.1Z" fill="#ffb400"/><path d="M127.8,386.6c-8.6-5.6-17-6.7-21.5-5a20.318,20.318,0,0,1-3.4,7.6c5.1,3.8,9.5,10.4,12.1,18.5,2.6,8,2.8,15.9.9,21.9a53.082,53.082,0,0,0,7.4-4.6,57.31,57.31,0,0,0,17.6-21.2C140.4,399,136.1,392.1,127.8,386.6Z" fill="#ffb400"/><path d="M55.4,396.2c8.9-2.9,14.8-8,16.8-12.3a56.648,56.648,0,0,1-7.3-15.2c-4.6,4-11.6,7-19.5,8.1a44.423,44.423,0,0,1-6.3.4,34.089,34.089,0,0,1-14.5-2.9A117.121,117.121,0,0,0,30,390.1l1.8,3.9a3.508,3.508,0,0,1,.8.5C35.9,398,44.8,399.6,55.4,396.2Z" fill="#ffb400"/><path d="M125.8,329.2c-9.5-1.9-17.3-.2-21.2,2.8a108.532,108.532,0,0,0-.1,22.1c5.6-3.6,14-5.3,23-4.3a39.109,39.109,0,0,1,17.7,6,74.387,74.387,0,0,1-.8-15.4C142.2,336.1,135.6,331.2,125.8,329.2Z" fill="#ffb400"/><path d="M126.9,355.8c-10.4-1.1-18.4,1.8-21.5,5.5l.9,5.4a42.747,42.747,0,0,1,.8,8.5c6.8-1.3,15.8,1,24,6.4a40.43,40.43,0,0,1,13.2,13.6,71.428,71.428,0,0,0,2.5-29.4C144.6,361.6,137.3,357,126.9,355.8Z" fill="#ffb400"/><path d="M147.3,308.4a73.682,73.682,0,0,1-2.3-18.7,79.041,79.041,0,0,1,1.6-15.8,60.5,60.5,0,0,0-26,18.3l-.1.1c6.3.5,13.5,3.7,19.9,9A41.859,41.859,0,0,1,147.3,308.4Z" fill="#ffb400"/><path d="M136.6,305.9c-7.8-6.5-15.9-8.5-20.6-7.3a71.7,71.7,0,0,0-10.1,26c5.7-2.3,13.3-2.8,21.2-1.2,7.5,1.5,14,4.7,18.4,8.7a40.948,40.948,0,0,1,2.3-7.7C147.8,319.5,144.2,312.2,136.6,305.9Z" fill="#ffb400"/><path d="M109.2,409.5c-2.6-8-7-13.6-11-16.1a15.2,15.2,0,0,1-9.6,1.9c.8,6.3-.8,14.2-4.8,21.7-3.6,6.6-8.4,11.9-13.4,14.9a57.593,57.593,0,0,0,20.4,3.8,53.309,53.309,0,0,0,16.3-2.5,3.508,3.508,0,0,1,.5-.8C111,429.1,112.6,420.1,109.2,409.5Z" fill="#ffb400"/><path d="M44.6,370.7c8.9-1.2,15.5-5,18.4-8.8A109.137,109.137,0,0,1,60.3,344c-5.1,3.4-12.3,5.6-20.3,5.8H39c-7.3,0-14-1.7-18.9-4.6a176.951,176.951,0,0,0,2.5,20.2C25.5,369.2,33.9,372.2,44.6,370.7Z" fill="#ffb400"/><path d="M290.8,242.4c-4.3,1.2-13,2.8-27.7,2.8-14.8,0-23.4-1.6-27.7-2.8a4.8,4.8,0,0,1-3.5-4.6v-1c-4.4,1.5-6,3.3-6,5.4,0,4.6,11,8.3,37.2,8.3s37.2-3.7,37.2-8.3c0-2.1-1.5-4-6-5.4v1A4.686,4.686,0,0,1,290.8,242.4Z" fill="#04294f"/><path d="M231.9,237.7a4.63,4.63,0,0,0,3.5,4.6c4.3,1.2,13,2.8,27.7,2.8,14.8,0,23.4-1.6,27.7-2.8a4.8,4.8,0,0,0,3.5-4.6V219.6a320.162,320.162,0,0,1-34.3,1.5c-11.7,0-20.9-.4-28.2-1v17.6Z" fill="#ffb400"/><path d="M372.3,274.4a30.56,30.56,0,0,0-1.9,12.8,35.353,35.353,0,0,0,3,12.8c1.5,3.2,3.4,5.6,5.3,6.6a2.779,2.779,0,0,1,1.2,1.2c-2.6.2-5.3.5-8.1.8a22.847,22.847,0,0,1-3.9-6.1,40.33,40.33,0,0,1-3.6-15,36.681,36.681,0,0,1,2.3-15.5,19.217,19.217,0,0,1,1.8-3.5h-.2c-.1-.1-.3-.2-.4-.3v.3c-2.6.3-5.3.7-8,1.2a21.335,21.335,0,0,0-4.5,1.3c-3.4,4.1-5.6,10.9-5.6,18.6,0,7.6,2.2,14.4,5.6,18.5a19.309,19.309,0,0,0,11.2,1.3c.6-.1,1.3-.2,1.9-.3.7-.1,1.3-.2,1.9-.3a148.686,148.686,0,0,1,18.1-1.5c2.8,0,5.6,0,8.2.1a28.911,28.911,0,0,1-2.1-5,40.766,40.766,0,0,1-1.7-15.3A35.533,35.533,0,0,1,397,272a23.953,23.953,0,0,1,3.5-4.7c3.3.2,6.4.5,9.5.9a2.4,2.4,0,0,1-1.2.7c-2.5.8-4.8,2.9-6.6,6a31.08,31.08,0,0,0-3.5,12.5,34.893,34.893,0,0,0,1.5,13.1c1.1,3.4,2.6,6,4.3,7.2.1.1.2.2.3.2a106.614,106.614,0,0,1,14.9,2.8,36.193,36.193,0,0,1-1.2-5.2,41.743,41.743,0,0,1,.7-15.3,34.892,34.892,0,0,1,6.5-14.3,24.8,24.8,0,0,1,4.1-3.9q4.65,1.2,9,2.7a1.884,1.884,0,0,1-.8.2c-2.7.3-5.4,2-7.6,4.8a27.322,27.322,0,0,0-5.3,11.8,38.753,38.753,0,0,0-.6,13.2c.5,3.6,1.5,6.4,2.9,7.8.2.2.3.5.5.7a84.04,84.04,0,0,1,14.1,6.5v-.2a26.51,26.51,0,0,1,.2-6.2,46.835,46.835,0,0,1,4.3-14.6,32.6,32.6,0,0,1,9.8-12.4,25.611,25.611,0,0,1,3.9-2.2c2.5,1.4,5,2.9,7.4,4.4a11,11,0,0,0-3.1.4,14.17,14.17,0,0,0-4.6,2.3,25.87,25.87,0,0,0-7.9,10.1,40.213,40.213,0,0,0-3.7,12.7,29.711,29.711,0,0,0-.2,5,7.483,7.483,0,0,0,.7,3.2,2.539,2.539,0,0,1,.2,1.9,53.663,53.663,0,0,1,10,9.3,32.2,32.2,0,0,1,2.6-7,50.529,50.529,0,0,1,8.8-12.4,30.958,30.958,0,0,1,13.4-8.5c1.1-.3,2.1-.5,3.2-.7a70.243,70.243,0,0,1,5,6.1,14.489,14.489,0,0,0-6.5.3c-3.6,1-7.4,3.5-10.8,6.9A45.48,45.48,0,0,0,467,329a27.46,27.46,0,0,0-2.1,5.6c-2,.5-3.5.8-4.1.9a.1.1,0,0,0,.1.1s1.3-.3,3.6-.8a21.049,21.049,0,0,1,5.1,5.2,33.1,33.1,0,0,1,5.7,14.7,38.109,38.109,0,0,1-.8,15.5c-.4,1.3-.8,2.5-1.3,3.7a5.638,5.638,0,0,0,1.2-.4c.7-.2,1.4-.5,2.1-.7.3-.1.5-.2.8-.3.9-.3,1.9-.7,2.8-1,.5-.2.9-.4,1.4-.6s.9-.4,1.3-.6c.5-.2.9-.4,1.4-.6l1.2-.6a43.5,43.5,0,0,0,8.9-5.7,31.8,31.8,0,0,0,7-8.5,26.957,26.957,0,0,0,2.8-7.8h0a23.356,23.356,0,0,0,.4-2.6,28.823,28.823,0,0,0-.3-8.1c-3.7-20.9-21.1-41.2-46.8-54.4-15.4-7.9-38.9-16-70.3-15.4-3.1.1-6.2.2-9.5.4A19.062,19.062,0,0,0,372.3,274.4Z" fill="#ffb400"/><path d="M433.3,344a23.021,23.021,0,0,1,3.8,3.3,32.6,32.6,0,0,1,7.4,13.9,39.188,39.188,0,0,1,1.1,15.5,26.316,26.316,0,0,1-1.6,6c2.9-.9,5.8-1.7,8.6-2.5.2,0,.3-.1.5-.1.2-.1.5-.1.7-.2,1.4-.4,2.8-.8,4.1-1.1,1.7-.5,3.5-1,5.2-1.4.2-.1.4-.1.6-.2l.4-.4c1.9-1.4,3.4-4.1,4.4-7.7a33.465,33.465,0,0,0,.7-13.1,27.852,27.852,0,0,0-4.6-12.1,12.952,12.952,0,0,0-7.5-5.5,2.751,2.751,0,0,1-1.5-.8c-2.4.7-4.9,1.4-7.2,2C443.9,341,438.7,342.4,433.3,344Z" fill="#ffb400"/><path d="M400.5,403.2a98.016,98.016,0,0,1,9.6-6.2,2.506,2.506,0,0,1,.5-1.9c1.3-1.9,1.9-4.9,1.9-8.6a34.482,34.482,0,0,0-2.9-12.8,25.877,25.877,0,0,0-7.7-10.3,13.416,13.416,0,0,0-8.6-3.1q-4.35,2.4-8.7,5.1a135.153,135.153,0,0,0-39,37.4c.8-1.2,1.7-2.4,2.5-3.5,1.1,0,2.2,0,3.3.1a29.6,29.6,0,0,1,14.7,6.3A46.5,46.5,0,0,1,376.5,417a27.368,27.368,0,0,1,2.9,5.6c.2.5.3.9.5,1.4.1-.2.3-.3.4-.5.4-.6.9-1.2,1.3-1.8.6-.8,1.3-1.6,1.9-2.4.3-.3.5-.7.8-1,.5-.5.9-1.1,1.4-1.6.3-.4.7-.7,1-1.1.6-.7,1.3-1.4,1.9-2a19.2,19.2,0,0,0,1.4-1.5l.5-.5a2.854,2.854,0,0,1-.3-2.7c.7-2,.6-5.1-.2-8.6a36.633,36.633,0,0,0-5.5-12,24.685,24.685,0,0,0-9.6-8.5,13.273,13.273,0,0,0-7.9-1.3c2.2-1.9,4.4-3.8,6.7-5.5a19.465,19.465,0,0,1,3.8,1.4,31.934,31.934,0,0,1,12,10.5,41.327,41.327,0,0,1,6.4,14,33.022,33.022,0,0,1,.9,7.3c.8-.6,1.6-1.3,2.4-1.9A8.116,8.116,0,0,1,400.5,403.2Z" fill="#ffb400"/><path d="M393.4,360.2c1.3-.7,2.6-1.4,3.8-2C396,358.8,394.7,359.5,393.4,360.2Z" fill="#ffb400"/><path d="M326.9,441.4h0a9.83,9.83,0,0,1,.5-1.6c.5-1.6,1.1-3.1,1.6-4.6a18.644,18.644,0,0,1,6.1-2.7,30.233,30.233,0,0,1,16,.5,45.293,45.293,0,0,1,13.8,6.7,26.1,26.1,0,0,1,4.2,3.6c.2-.4.3-.7.5-1.1l.3-.6a96.2,96.2,0,0,1,5.8-11.1,2.951,2.951,0,0,1-1.1-2.2,10.326,10.326,0,0,0-.8-3.3,25.255,25.255,0,0,0-2.4-4.5,41.649,41.649,0,0,0-8.9-9.8,24.045,24.045,0,0,0-11.7-5.1,15.646,15.646,0,0,0-5.3.3,10.887,10.887,0,0,0-2.5,1h0A148.141,148.141,0,0,0,327.4,440,2.919,2.919,0,0,0,326.9,441.4Z" fill="#ffb400"/><path d="M401.5,356a.1.1,0,0,0-.1.1,25,25,0,0,1,4.1,2.5,31.98,31.98,0,0,1,9.5,12.7,42.588,42.588,0,0,1,3.5,15.1,32.671,32.671,0,0,1-.6,6.5,2.186,2.186,0,0,0,.5-.3c.5-.2.9-.4,1.4-.6.1,0,.2-.1.3-.1l3.9-1.8a4.875,4.875,0,0,1,.7-.3c.6-.3,1.3-.5,1.9-.8a3.552,3.552,0,0,0,.9-.4c.5-.2,1.1-.4,1.6-.6a4.875,4.875,0,0,1,.7-.3c.1-.1.3-.1.4-.2a.6.6,0,0,1,.4-.1l1.5-.6c.6-.2,1.1-.4,1.7-.6s1.2-.5,1.9-.7a3.147,3.147,0,0,1,.8-1.5c1.7-1.7,2.9-4.6,3.4-8.2a32.69,32.69,0,0,0-.9-13.1,27.558,27.558,0,0,0-6-11.4c-2.5-2.7-5.4-4.3-8.2-4.5h-.2c-3.3,1.1-6.7,2.3-10.1,3.7C410,352.2,405.8,354,401.5,356Z" fill="#ffb400"/><path d="M405,308.3h0c-.2-.1-.2-.2-.3-.3-1.7-1.2-3.2-3.8-4.3-7.2a37.106,37.106,0,0,1-1.5-13.1,28.187,28.187,0,0,1,3.5-12.5c1.8-3.1,4.1-5.3,6.6-6a2.4,2.4,0,0,0,1.2-.7c-3.1-.4-6.2-.7-9.5-.9a21.311,21.311,0,0,0-3.5,4.7,34.16,34.16,0,0,0-4.2,15.1,40.766,40.766,0,0,0,1.7,15.3,32.648,32.648,0,0,0,2.1,5h0C399.6,307.8,402.3,308,405,308.3Z" fill="#04294f"/><path d="M428.1,313.8c0-.1-.1-.1-.1-.2a3.039,3.039,0,0,0-.5-.7c-1.4-1.5-2.4-4.3-2.9-7.8a38.753,38.753,0,0,1,.6-13.2,28.543,28.543,0,0,1,5.3-11.8c2.3-2.8,5-4.5,7.6-4.8a2.353,2.353,0,0,0,.8-.2q-4.2-1.5-9-2.7a21.585,21.585,0,0,0-4.1,3.9,34.3,34.3,0,0,0-6.5,14.3,44.242,44.242,0,0,0-.7,15.3,36.193,36.193,0,0,0,1.2,5.2v.1A81.228,81.228,0,0,1,428.1,313.8Z" fill="#04294f"/><path d="M448.9,324.8c0-.1.1-.2.1-.3a3.132,3.132,0,0,0-.2-1.9,9.475,9.475,0,0,1-.7-3.2,21.923,21.923,0,0,1,.2-5,43.091,43.091,0,0,1,3.7-12.7,26.814,26.814,0,0,1,7.9-10.1,15.264,15.264,0,0,1,4.6-2.3,11.479,11.479,0,0,1,3.1-.4c-2.4-1.5-4.8-3-7.4-4.4a25.611,25.611,0,0,0-3.9,2.2,31.854,31.854,0,0,0-9.8,12.4,46.835,46.835,0,0,0-4.3,14.6,33.375,33.375,0,0,0-.2,6.2v.5A54.842,54.842,0,0,1,448.9,324.8Z" fill="#04294f"/><path d="M460.4,336.2a1.577,1.577,0,0,0,.4-.1c.6-.1,2.1-.5,4.1-.9a27.46,27.46,0,0,1,2.1-5.6,47.556,47.556,0,0,1,7.7-10.9,25.026,25.026,0,0,1,10.8-6.9,12.114,12.114,0,0,1,6.5-.3,70.243,70.243,0,0,0-5-6.1,13.2,13.2,0,0,0-3.2.7,30.958,30.958,0,0,0-13.4,8.5,48.707,48.707,0,0,0-8.8,12.4,27.714,27.714,0,0,0-2.6,7c0,.2-.1.3-.1.5A4.978,4.978,0,0,1,460.4,336.2Z" fill="#04294f"/><path d="M401.8,363.4a25.877,25.877,0,0,1,7.7,10.3,34.482,34.482,0,0,1,2.9,12.8c.1,3.7-.6,6.7-1.9,8.6a2.746,2.746,0,0,0-.5,1.9,15.054,15.054,0,0,0,1.7-1l3.3-1.8c.9-.5,1.9-.9,2.8-1.4a26.623,26.623,0,0,0,.6-6.5,38.687,38.687,0,0,0-3.5-15.1,33.951,33.951,0,0,0-9.5-12.7,25,25,0,0,0-4.1-2.5c-1.4.7-2.8,1.3-4.1,2s-2.6,1.3-3.8,2c-.1.1-.2.1-.3.2h0A13.818,13.818,0,0,1,401.8,363.4Z" fill="#04294f"/><path d="M345.3,437.9c-1.3-.2-2.6-.3-3.9-.4-5.6-.2-11.4,2.3-14.6,3.9h0c-1.5.8-2.5,1.4-2.5,1.4-.4,1.8-.9,3.6-1.5,5.5-7.4-.7-17.1-1.4-28.4-1.9v.5a4.571,4.571,0,0,1-3,4.6c-3.6,1.2-10.9,2.8-23.3,2.8s-19.7-1.6-23.3-2.8a4.752,4.752,0,0,1-3-4.6v-.6c-15.6.7-28.4,1.8-36.2,2.6-4.6.5-7.7,4.4-6.5,8.2.6,2,1.4,4.4,2.4,7.1.6,1.5,1.2,3.2,2,4.9a137.817,137.817,0,0,0,20.7,34.1c3.8,4.6,7.6,8.7,11.2,12.5a35.748,35.748,0,0,0,5.1,4.5,52.665,52.665,0,0,0,5.9,3.7,45.452,45.452,0,0,0,48.1-3.8,34.814,34.814,0,0,1,24.3-58.7c-2.4,10-4.5,25.1-4.5,52.5h12.4a1.22,1.22,0,0,1-.9-.8c-.8-2.9-1.4-5.7-1.9-8.6s-.9-5.8-1.2-8.7a86.517,86.517,0,0,1-.5-8.8,67.028,67.028,0,0,1,.4-8.9A1.32,1.32,0,0,1,324,477a1.273,1.273,0,0,1,1.1,1.1h0l1.7,17.2c.5,5.8,1.1,11.5,1.3,17.4h0a1.188,1.188,0,0,1-1,1.2h.8q1.65,7.2,3.9,15c2.8,9.7,6.4,20.2,10.9,31.5l17.2-13.2s-1.2-3.3-3-8.7l14.2-10.9-1.9-5.7,12.3-9.5s-17.3-41.8-12.2-64c-.7-.5-1.4-1-2.1-1.4-7.6-4.9-14.8-7.9-21.3-9A2.18,2.18,0,0,0,345.3,437.9Zm-56.5,30c-3.2.4-6.4.6-9.6.8s-6.4.3-9.6.4-6.4,0-9.6,0c-3.2-.1-6.4-.2-9.6-.4a179.14,179.14,0,0,1-19.2-2.2c-3.2-.5-6.4-1.2-9.5-2-1.6-.4-3.1-.9-4.7-1.4-.8-.3-1.6-.6-2.3-.9a16.564,16.564,0,0,1-2.4-1.1,1.709,1.709,0,0,1-.8-2.3,1.818,1.818,0,0,1,2.1-.9l.2.1c.6.2,1.4.4,2.1.6a15.536,15.536,0,0,0,2.3.5c1.5.3,3,.6,4.6.8,1.5.2,3.1.5,4.6.7l2.3.3,2.3.3c1.6.2,3.1.3,4.7.5,1.6.1,3.1.3,4.7.4l4.7.4,4.7.3c3.1.2,6.3.3,9.5.5l9.5.4c3.2.1,6.3.2,9.5.3s6.3.2,9.5.4h0a1.792,1.792,0,0,1,1.7,1.9A1.914,1.914,0,0,1,288.8,467.9ZM355.1,485a1.115,1.115,0,0,1,1.3.8h0c1.1,2.9,2.1,5.9,3.2,8.8,1,2.9,2.1,5.9,3.1,8.8s2.1,5.8,3.2,8.8l3.3,8.7h0a1.189,1.189,0,0,1-.7,1.5,1.237,1.237,0,0,1-1.4-.4,57.287,57.287,0,0,1-4.6-8.4c-1.4-2.9-2.6-5.8-3.7-8.8s-2.1-6-2.9-9.1-1.5-6.2-2-9.3A1.613,1.613,0,0,1,355.1,485Zm-2.3,41.1,4.1,12.2h0a1.189,1.189,0,0,1-.7,1.5,1.158,1.158,0,0,1-1.4-.6c-2-3.9-3.7-7.8-5.3-11.8s-3.1-8.1-4.5-12.1c-1.3-4.1-2.6-8.2-3.7-12.4s-2-8.4-2.8-12.6a1.174,1.174,0,0,1,1-1.4,1.226,1.226,0,0,1,1.4.8h0c2.7,8.1,5.3,16.3,8,24.4C350.1,518,351.4,522.1,352.8,526.1Z" fill="#f04e23"/><path d="M40,349.8c8-.2,15.2-2.3,20.3-5.8-.1-1.9-.3-3.8-.3-5.7-3.7,2.5-10.3,5.7-20.5,5.7-9.6,0-16-2.5-19.8-4.6.1,2,.2,3.9.3,5.8,4.9,2.9,11.6,4.6,18.9,4.6Z" fill="#04294f"/><path d="M45.4,376.7c7.9-1.1,14.9-4.1,19.5-8.1-.7-2.1-1.3-4.3-1.9-6.7-3,3.8-9.5,7.5-18.4,8.8-10.7,1.5-19-1.5-22-5.3.6,3,1.2,6,2,8.8a34.411,34.411,0,0,0,14.5,2.9A33.878,33.878,0,0,0,45.4,376.7Z" fill="#04294f"/><path d="M57.3,401.9c8.5-2.8,15.5-7.7,19.1-13.2a34.253,34.253,0,0,1-4.1-4.9c-2.1,4.4-7.9,9.5-16.8,12.3-10.6,3.4-19.5,1.8-22.9-1.6a2.177,2.177,0,0,0-.8-.5c1.6,3.3,3.3,6.3,5.1,9.3a32.389,32.389,0,0,0,7.2.8A42.907,42.907,0,0,0,57.3,401.9Z" fill="#04294f"/><path d="M83.8,417c4-7.5,5.7-15.4,4.8-21.7a20.023,20.023,0,0,1-6.4-2.1.758.758,0,0,0-.4-.2c1.8,4.5,1.2,12.5-3.4,21.1-4.5,8.4-10.7,13.3-15.4,14.5a.349.349,0,0,1,.2.1,64.321,64.321,0,0,0,7.1,3.2C75.4,428.8,80.2,423.6,83.8,417Z" fill="#04294f"/><path d="M115,407.7c-2.6-8-7-14.7-12.1-18.5a17.183,17.183,0,0,1-3.3,3.3,5.67,5.67,0,0,1-1.3.8c4,2.6,8.4,8.1,11,16.1,3.4,10.6,1.7,19.5-1.6,22.9a2.177,2.177,0,0,0-.5.8,51.853,51.853,0,0,0,8.9-3.6C117.8,423.6,117.5,415.7,115,407.7Z" fill="#04294f"/><path d="M131.1,381.6c-8.2-5.4-17.2-7.7-24-6.4a26.908,26.908,0,0,1-.8,6.5c4.5-1.8,12.9-.7,21.5,5,8.3,5.4,12.6,12.3,13.1,17.1a73.287,73.287,0,0,0,3.4-8.6A39.549,39.549,0,0,0,131.1,381.6Z" fill="#04294f"/><path d="M104.5,354.2c.2,2.4.5,4.7.8,7.1,3.1-3.7,11.2-6.6,21.5-5.5,10.4,1.1,17.6,5.7,19.9,10a48.675,48.675,0,0,0-1-6.5c-.2-1.2-.4-2.3-.6-3.5-4.6-3.1-10.8-5.2-17.7-6C118.5,348.9,110.1,350.6,104.5,354.2Z" fill="#04294f"/><path d="M105.8,324.5q-.75,3.6-1.2,7.5c3.8-3,11.6-4.7,21.2-2.8,9.8,2,16.4,6.8,18.6,11.1a53.856,53.856,0,0,1,1-8.3c-4.4-4-10.9-7.2-18.4-8.7C119.1,321.7,111.5,322.3,105.8,324.5Z" fill="#04294f"/><path d="M140.4,301.3c-6.4-5.3-13.6-8.4-19.9-9a72.63,72.63,0,0,0-4.6,6.3c4.7-1.1,12.8.9,20.6,7.3,7.6,6.3,11.2,13.6,11.2,18.5a24.329,24.329,0,0,1,3.3-5.7,59.374,59.374,0,0,1-3.7-10.3A41.859,41.859,0,0,0,140.4,301.3Z" fill="#04294f"/><path d="M60,338.3a17.1,17.1,0,0,0,3.6-3.1c0-10.7,1.7-24.7,6.1-32.6.4-.6.9-1.3,1.3-1.9h0c.3-.5.5-.9.8-1.4h0a5.286,5.286,0,0,0,.8-1.4c22.7-41.5-4.3-86-5.5-87.8L54,218.7a55.924,55.924,0,0,1,5.7,6.3c1.8,2.3,3.4,4.6,5,7.1a70.765,70.765,0,0,1,4.1,7.7,46.965,46.965,0,0,1,2.9,8.2,1.184,1.184,0,0,1-.9,1.5,1.28,1.28,0,0,1-1.4-.6h0c-1.3-2.5-2.5-5-3.9-7.4s-2.7-4.8-4.2-7.2-3-4.7-4.5-7.1l-4.7-7h0a1.193,1.193,0,0,1,.2-1.5,126.214,126.214,0,0,0-11.4-12.2L28.2,220.9A219.985,219.985,0,0,1,44,242.2a.844.844,0,0,1,.7-.2,34.889,34.889,0,0,1,7.9,1,39.146,39.146,0,0,1,7.5,2.6,32.921,32.921,0,0,1,6.8,4.4,23.561,23.561,0,0,1,5.1,6.3,1.165,1.165,0,0,1-.5,1.6,1.212,1.212,0,0,1-1.5-.2l-.1-.1a35.013,35.013,0,0,0-5.4-4.8,48.322,48.322,0,0,0-6.2-3.7,57.2,57.2,0,0,0-6.8-2.8c-2.3-.8-4.8-1.5-7.1-2.1h-.1a1.115,1.115,0,0,1-.8-1.3,45.533,45.533,0,0,0-5.3-.4,37.768,37.768,0,0,0-18.3,4.7L25,265.9c2.7-3,9.9-4.2,13.2-4.2A18.976,18.976,0,0,1,49,265.1c8,5.6,8.3,30.9-8.3,34.6a21.052,21.052,0,0,1-2.5.2,19.163,19.163,0,0,1-19.1-19.1c0-4.8,1.5-11,5.9-14.9l-15-11A37.952,37.952,0,0,0,0,280.7a36.7,36.7,0,0,0,2.1,12.4h0A24.884,24.884,0,0,0,3.2,296c5.9,14.8,11.8,28.7,12.4,40.3a19.825,19.825,0,0,0,4.2,3.1c3.7,2.1,10.1,4.6,19.8,4.6C49.7,344.1,56.3,340.9,60,338.3Z" fill="#f04e23"/><path d="M195.7,182.9c1.5.4,3,.8,4.8,1.3V172.3c-2.2-.5-4.1-1.1-5.9-1.6-2.3-.6-4.2-1.2-6.1-1.6a12.815,12.815,0,0,1-3.7-1.4l.9,12a12.511,12.511,0,0,0,3.6,1.5C191.4,181.7,193.4,182.3,195.7,182.9Z" fill="#04294f"/><path d="M231.9,188.8v-12c-.9-.1-1.8-.1-2.7-.2a160.985,160.985,0,0,1-24.7-3.4v12a159.932,159.932,0,0,0,25,3.5C230.3,188.7,231.1,188.8,231.9,188.8Z" fill="#04294f"/><path d="M263.3,189.2v-12c-4.2.1-8.2.2-12.1.2q-8.1,0-15.3-.3v12C244.1,189.4,253.3,189.4,263.3,189.2Z" fill="#04294f"/><path d="M194.6,186.8c1.8.5,3.7,1,5.9,1.6v7.2c.6.2,1.3.3,1.9.5.7.2,1.4.3,2.1.5v-7.3a179.117,179.117,0,0,0,24.7,3.4c.9.1,1.8.1,2.7.2v7.8c1.3.1,2.6.2,4,.3v-7.8q7.2.3,15.3.3c3.9,0,7.9-.1,12.1-.2v8.2c1.4,0,2.7,0,4-.1v-8.3c6.6-.2,12.9-.6,18.8-1h0a13.664,13.664,0,0,0,1.9-.2,25.248,25.248,0,0,0,.6-4.1,24.583,24.583,0,0,1-2.8.2h0c-5.7.4-12,.8-18.5,1V176.9c6.6-.2,12.9-.6,18.8-1h0c.8-.1,1.6-.1,2.5-.2a19.2,19.2,0,0,0-.9-4c-.6.1-1.2.1-1.9.2h0c-5.7.4-12,.8-18.5,1v-7c-1.3,0-2.7,0-4,.1v7c-10,.3-19.2.2-27.4-.2v-7.4c-1.4-.1-2.7-.2-4-.2v7.4c-.8,0-1.6-.1-2.4-.1a159.932,159.932,0,0,1-25-3.5v-7.6c-1.5-.3-2.8-.7-4-1V168c-1.7-.4-3.3-.9-4.8-1.3-2.3-.6-4.3-1.2-6.4-1.6a11.457,11.457,0,0,1-4.9-2.5l.4,5.1a16.569,16.569,0,0,0,3.7,1.4c1.9.4,3.8.9,6.1,1.6,1.8.5,3.7,1,5.9,1.6v11.9c-1.7-.4-3.3-.9-4.8-1.3-2.3-.6-4.3-1.2-6.4-1.6a12.511,12.511,0,0,1-3.6-1.5l.4,4.7a10.884,10.884,0,0,0,2.4.7C190.4,185.6,192.4,186.2,194.6,186.8Zm41.3-9.8q7.2.3,15.3.3c3.9,0,7.9-.1,12.1-.2v12c-10,.3-19.2.2-27.4-.2V177Zm-31.4-3.8a179.117,179.117,0,0,0,24.7,3.4c.9.1,1.8.1,2.7.2v12c-.8,0-1.6-.1-2.4-.1a159.932,159.932,0,0,1-25-3.5v-12Z" fill="#ffb400"/><path d="M229.1,204.4c7.6.6,17,1,29,1q9.45,0,16.8-.3h0c1,0,1.9-.1,2.8-.1,15.5-1.3,15-16.9,15-22.9,0-6.1.5-20.7-15.5-20.4a7.569,7.569,0,0,0-1.5.1h-.1c-5.2.2-11,.3-17.6.3-12,0-21.5-.4-29-1-19-1.5-26.2-4.4-32.7-5.6-1.9-.4-9.9-2.6-12.4-4-.2-.1-.4-.3-.6-.4l.9,11.6a11.457,11.457,0,0,0,4.9,2.5c2,.4,4,1,6.4,1.6,1.5.4,3,.8,4.8,1.3v-7.6c1.2.3,2.6.6,4,1v7.6a159.932,159.932,0,0,0,25,3.5,19.269,19.269,0,0,0,2.4.1v-7.4c1.3.1,2.7.2,4,.2v7.4c8.2.4,17.3.4,27.4.2v-7c1.4,0,2.7,0,4-.1v7c6.5-.2,12.7-.5,18.5-1h0a13.664,13.664,0,0,0,1.9-.2,25.851,25.851,0,0,1,.9,4c-.8.1-1.6.1-2.5.2h0c-5.8.4-12.2.8-18.8,1v12.1c6.5-.2,12.7-.5,18.5-1h0c1-.1,1.9-.2,2.8-.2a25.248,25.248,0,0,1-.6,4.1c-.6.1-1.2.1-1.9.2h0c-5.8.4-12.2.8-18.8,1v8.3c-1.3,0-2.7,0-4,.1v-8.2c-4.2.1-8.2.2-12.1.2q-8.1,0-15.3-.3v7.8c-1.4-.1-2.7-.2-4-.3V193c-.9-.1-1.8-.1-2.7-.2a160.985,160.985,0,0,1-24.7-3.4v7.3a15.985,15.985,0,0,0-2.1-.5c-.7-.2-1.3-.3-1.9-.5v-7.2c-2.2-.5-4.1-1.1-5.9-1.6-2.3-.6-4.2-1.2-6.1-1.6a21.718,21.718,0,0,1-2.4-.7l.8,10.1c.2.1.4.3.6.4a37.2,37.2,0,0,0,8.9,3.8C202.9,200.1,210.2,202.9,229.1,204.4Z" fill="#04294f"/><ellipse cx="330.3" cy="76.3" rx="7.9" ry="10.3" fill="#04294f"/><path d="M345.5,66.4a2.1,2.1,0,0,0,1.4.7h.1a1.974,1.974,0,0,0,1.4-.6l18.9-18.4a1.98,1.98,0,0,0-2.8-2.8L347.2,62.2l-4.4-5.1,38.3-35.3a1.981,1.981,0,0,0-2.7-2.9L338.6,55.5a2.029,2.029,0,0,0-.2,2.8Z" fill="#04294f"/><path d="M504.8,345h0a.215.215,0,0,0-.2-.2.349.349,0,0,0-.2.1v.1a23.356,23.356,0,0,1-.4,2.6h0a26.957,26.957,0,0,1-2.8,7.8,31.8,31.8,0,0,1-7,8.5,46.392,46.392,0,0,1-8.9,5.7c-.1.1-.3.1-.4.2a2.994,2.994,0,0,0-.8.4c-.5.2-.9.4-1.4.6-.4.2-.9.4-1.3.6-.5.2-.9.4-1.4.6-.9.3-1.8.7-2.8,1-.3.1-.5.2-.8.3-.6.2-1.2.4-1.9.6-.1,0-.1,0-.2.1a5.638,5.638,0,0,0-1.2.4,31.915,31.915,0,0,0,1.3-3.7,38.207,38.207,0,0,0,.8-15.5,33.1,33.1,0,0,0-5.7-14.7,22.93,22.93,0,0,0-5.1-5.2c-2.3.5-3.6.8-3.6.8-1.6.5-3.4,1-5.2,1.6a2.751,2.751,0,0,0,1.5.8,12.952,12.952,0,0,1,7.5,5.5,27.852,27.852,0,0,1,4.6,12.1,31.775,31.775,0,0,1-.7,13.1c-1,3.5-2.5,6.3-4.4,7.7-.1.1-.3.2-.4.4.2-.1.5-.1.7-.2a6.468,6.468,0,0,0-1.3.4c-1.7.5-3.5,1-5.2,1.4-1.4.4-2.8.8-4.1,1.1-.2.1-.5.1-.7.2-.2,0-.3.1-.5.1-3.2.9-6.5,1.9-9.7,2.9.4-.1.7-.2,1.1-.3a26.316,26.316,0,0,0,1.6-6,39.064,39.064,0,0,0-1.1-15.5,33.1,33.1,0,0,0-7.4-13.9,23.021,23.021,0,0,0-3.8-3.3c-2.9.9-5.9,1.8-9,2.9h.2c2.8.2,5.7,1.8,8.2,4.5a26.446,26.446,0,0,1,6,11.4,32.574,32.574,0,0,1,.9,13.1c-.5,3.6-1.7,6.5-3.4,8.2a3.147,3.147,0,0,0-.8,1.5c.4-.1.8-.3,1.2-.4-1,.4-2.1.7-3.1,1.1-.6.2-1.1.4-1.7.6l-1.5.6c-.3.1-.5.2-.8.3a4.875,4.875,0,0,1-.7.3c-.5.2-1.1.4-1.6.6a3.552,3.552,0,0,0-.9.4c-.6.3-1.3.5-1.9.8a4.875,4.875,0,0,1-.7.3l-3.9,1.8c-.1,0-.2.1-.3.1a108.755,108.755,0,0,0-26.1,16.8c-.4.3-.7.7-1.1,1,1.3-1.2,2.6-2.4,4-3.5h0a24.657,24.657,0,0,0-.9-7.3,41.327,41.327,0,0,0-6.4-14,31.205,31.205,0,0,0-12-10.5,24.639,24.639,0,0,0-3.8-1.4c-2.3,1.8-4.5,3.6-6.7,5.5a13.388,13.388,0,0,1,7.9,1.3,26.152,26.152,0,0,1,9.6,8.5,35.752,35.752,0,0,1,5.5,12c.9,3.6.9,6.6.2,8.6a3.2,3.2,0,0,0,.3,2.7h0l.6-.6-1.1,1.1a19.2,19.2,0,0,0-1.4,1.5c-.6.7-1.3,1.3-1.9,2-.3.4-.7.7-1,1.1-.5.5-.9,1.1-1.4,1.6a8.744,8.744,0,0,0-.8,1c-.6.8-1.3,1.6-1.9,2.4a20.278,20.278,0,0,0-1.3,1.8c-.4.6-.9,1.2-1.3,1.8l.9-1.2h0a12.129,12.129,0,0,0-.5-1.4,33.51,33.51,0,0,0-2.9-5.6,44.53,44.53,0,0,0-10.4-11.3,29.6,29.6,0,0,0-14.7-6.3,18.212,18.212,0,0,0-3.3-.1c-.9,1.2-1.7,2.3-2.5,3.5-.9,1.3-1.7,2.6-2.6,3.9h0a10.887,10.887,0,0,1,2.5-1,13.464,13.464,0,0,1,5.3-.3A24.045,24.045,0,0,1,362,411a37.609,37.609,0,0,1,8.9,9.8,25.255,25.255,0,0,1,2.4,4.5,10.955,10.955,0,0,1,.8,3.3,2.656,2.656,0,0,0,1.1,2.2h0q1.65-2.7,3.3-5.1a103.262,103.262,0,0,0-9.1,16.2l-.3.6c-.3.7-.6,1.4-.9,2.2a10.375,10.375,0,0,1,.4-1,26.1,26.1,0,0,0-4.2-3.6,45.293,45.293,0,0,0-13.8-6.7,30.233,30.233,0,0,0-16-.5,22.262,22.262,0,0,0-6.1,2.7c-.6,1.5-1.1,3.1-1.6,4.6a9.363,9.363,0,0,0-.4,1.6c3.2-1.7,9-4.2,14.6-3.9,1.3.1,2.6.2,3.9.4.3,0,.5.1.8.1,6.6,1.1,13.8,4.1,21.3,9,.3-.8.6-1.5.9-2.3,0,.1,0,.1.1.2.1,0,.2,0,.2-.1h0a146.679,146.679,0,0,1,12.8-17.8,89.8,89.8,0,0,1,7.3-7.8,104.044,104.044,0,0,1,8-6.9c.7-.6,1.4-1.1,2.1-1.6s1.4-1.1,2.1-1.5c.7-.5,1.4-1,2.2-1.5.7-.5,1.5-1,2.2-1.4a83.432,83.432,0,0,1,9.2-5.2c3.1-1.6,6.3-3.2,9.6-4.6s6.6-2.7,10-3.9c6.7-2.6,13.6-4.7,20.6-6.8l10.6-3.3c1.8-.6,3.6-1.1,5.4-1.8,1.8-.6,3.6-1.3,5.3-2a72.437,72.437,0,0,0,10.6-4.9,48.187,48.187,0,0,0,9.6-7.2,21.976,21.976,0,0,0,2-2.3c.6-.8,1.3-1.6,1.8-2.4a24.675,24.675,0,0,0,2.9-5.3,23.074,23.074,0,0,0,1.6-5.7A17.883,17.883,0,0,0,504.8,345Zm-62.9,38.5c-1.3.4-2.6.8-3.9,1.3C439.3,384.3,440.6,383.9,441.9,383.5Z" fill="#04294f"/><path d="M371.9,857.8a237.921,237.921,0,0,1-24.2,1c-8.8,0-15.4-.3-19.5-.6a8.944,8.944,0,0,1-4.5-1.5c.8,1.5,1.6,2.9,2.3,4a9.57,9.57,0,0,0,7.6,4.6c4.1.3,10.8.6,19.5.6a237.921,237.921,0,0,0,24.2-1c23.7-7.9,45.2-67.6,18.6-95.9C413.8,799.2,393.8,850.5,371.9,857.8Z" fill="#04294f"/><path d="M319.5,843.4a18.72,18.72,0,0,1,.5-5.3,17.2,17.2,0,0,1,1.9-4.9,26.063,26.063,0,0,1,3.1-4.3,22.324,22.324,0,0,1,4-3.5h0v-.1c0-.1,0-.1-.1-.1h-.1a9.588,9.588,0,0,0-6.3,1.5,11.629,11.629,0,0,0-4.3,4.5,11,11,0,0,0-1.5,6.2,8.641,8.641,0,0,0,2.4,6h0c-11.3,1.3-26.3,1.9-46.9,1.9-20.3,0-41.3-1.1-51.3-1.7a6.952,6.952,0,0,1-4.6-2h0c0,.6.1,1.1.1,1.6v.1c0,.5.1,1,.1,1.5a7.169,7.169,0,0,0,6.7,6.4c9.6.6,29.6,1.6,48.9,1.6,20.6,0,35.3-.7,46.2-2a4.253,4.253,0,0,0,1.1-.2c.1,0,.2-.1.3-.1a6.89,6.89,0,0,0,.8-.3c.1,0,.1,0,.2-.1h0c0,.1,0,.1.1.2a46.94,46.94,0,0,1-1.3-6.9Z" fill="#04294f"/><path d="M356.1,793.5h0a5.034,5.034,0,0,1,3.8,3.9,47.067,47.067,0,0,1,28.3,7.8c1.9,1.2,1.9,3,.8,4.9-.8,1.2-1.6,2.5-2.9,2.5a4.559,4.559,0,0,1-2.2-.6,39.485,39.485,0,0,0-25.3-6.4,37.36,37.36,0,0,1-3.4,6.6,47.632,47.632,0,0,1,24.2,12.3c1.6,1.5,1,3.5-.5,5.2-.8.9-1.1,1.8-2.2,1.8a3.864,3.864,0,0,1-2.7-1.1c-13.2-12.1-27.4-11.2-31.9-10.5-.2,0-.3.1-.5.1-.2.1-.4.1-.6.2l-.9.3c-.2.1-.4.1-.6.2-.3.1-.7.2-1,.3-.1,0-.3.1-.4.1-.5.2-.9.3-1.4.5h-.1c-.4.2-.8.3-1.2.5-.1.1-.3.1-.4.2a2.01,2.01,0,0,0-.8.4c-.2.1-.3.1-.5.2s-.5.2-.7.3-.3.1-.5.2-.5.2-.7.3a.758.758,0,0,1-.4.2,2.092,2.092,0,0,0-.6.4.758.758,0,0,1-.4.2c-.2.1-.4.3-.6.4-.1.1-.2.1-.3.2-.2.1-.3.2-.5.3h0a22.324,22.324,0,0,0-4,3.5,18.83,18.83,0,0,0-3.1,4.3,17.2,17.2,0,0,0-1.9,4.9,18.72,18.72,0,0,0-.5,5.3h.1a29,29,0,0,0,1.5,7.1c0,.1,0,.1.1.2,0,.1.1.3.1.4s.1.2.1.3a.758.758,0,0,0,.2.4c0,.1.1.2.1.3.1.1.1.3.2.4a.349.349,0,0,0,.1.2c.1.1.1.3.2.4a.349.349,0,0,0,.1.2c.1.1.1.3.2.4,0,.1.1.1.1.2.1.1.1.3.2.4a.1.1,0,0,0,.1.1,15.054,15.054,0,0,0,1.1,2.2h0a10.023,10.023,0,0,0,4.5,1.5c4.1.3,10.8.6,19.5.6a237.921,237.921,0,0,0,24.2-1c21.9-7.3,41.8-58.6,24-88.7h0c-.2-.3-.5-.5-.7-.8-7.3-7.7-15.1-11.3-27.3-13.2h-.1C367.9,755,375.6,776.9,356.1,793.5Zm27.2-23.3a9.7,9.7,0,1,1-9.7,9.7A9.709,9.709,0,0,1,383.3,770.2Z" fill="#f04e23"/><path d="M246.8,139.4c4.5.1,8.8.2,12.8.2,6.3,0,12.2-.1,17.5-.4a7.814,7.814,0,0,0,7.3-7,212.364,212.364,0,0,0,.9-25.3,7.694,7.694,0,0,0-8.1-7.5c-5,.2-10.4.3-16.1.3-4.2,0-8.7-.1-13.3-.2a366.319,366.319,0,0,1-38.6-2.8,196.834,196.834,0,0,1-19.8-3.6,7.75,7.75,0,0,0-9.5,7.1,203.85,203.85,0,0,0,.4,24.9,7.7,7.7,0,0,0,5.5,6.7,153.876,153.876,0,0,0,24.5,5C220.6,138.1,232.9,139,246.8,139.4Zm16.7-32.8c10,0,10,9.3,10,13.6s0,13.6-10,13.6-10-9.3-10-13.6S253.5,106.6,263.5,106.6ZM209.3,119l-4,1.8c-1.4.5-2.7,1.1-4.1,1.6s-2.7,1-4.1,1.5-2.8.9-4.2,1.3a1.842,1.842,0,0,1-2.2-1.4,1.912,1.912,0,0,1,.7-2c1.2-.9,2.5-1.6,3.7-2.4,1.3-.7,2.5-1.5,3.8-2.1,1.3-.7,2.6-1.3,3.9-2l.1-.1c-1.3-1.3-2.5-2.7-3.8-4.1-1.1-1.2-2.2-2.5-3.2-3.7-1-1.3-2.1-2.6-3-3.9a1.776,1.776,0,0,1,.4-2.5,1.988,1.988,0,0,1,2.1,0c1.4,1,2.6,2,3.9,3,1.3,1.1,2.5,2.1,3.7,3.2,2.5,2.2,4.8,4.4,7.1,6.7h0a2.9,2.9,0,0,1,0,4.2A1.8,1.8,0,0,1,209.3,119Z" fill="#04294f"/><path d="M180.5,80.4h0l2.7.9c.4.1.8.3,1.3.4h.1c.5.1,1,.3,1.5.4s1,.3,1.5.4c2.1.6,4.4,1.2,7,1.7a.367.367,0,0,1,.3.1c.9.2,1.7.4,2.7.6.3.1.7.1,1,.2,1.1.2,2.1.4,3.3.6.9.2,1.9.3,2.8.5.5.1.9.1,1.4.2,1.4.2,2.9.4,4.4.6a356.314,356.314,0,0,0,37.6,2.7,350.74,350.74,0,0,0,39-.8,6.851,6.851,0,0,1,7.4,6.3,215.973,215.973,0,0,1-1.5,47.2v.1c0,.2-.1.5-.1.7a6.6,6.6,0,0,1-2.4,3.6l.1-.1h-.1c-13.6,4.8-59.3,2-78.6,0-22.1-2.3-4.6,3.5,15.8,5.9,30.3,3.6,65,3.1,74.9-3.4,5.8-3.8,5.3-14.4,6.1-31.3h0a152.443,152.443,0,0,0,0-20.3l2,2.4a13.416,13.416,0,0,0,10.2,4.8,12.532,12.532,0,0,0,11-6.7l.3-.5a13.2,13.2,0,0,1-13.4-4.4l-7.1-8.5A14.058,14.058,0,0,1,313.4,65L375,13.1a2.684,2.684,0,0,1,3.8.3c-1.6-1.8-3.4-2.1-6.3-2.1h-8.2a3,3,0,0,0-1.8.6L320.2,47.6,299.4,65.2a14.018,14.018,0,0,0-4.5,14.3c-9.3.9-20.8,1.4-35,1.4a369.822,369.822,0,0,1-37.6-1.7A153.34,153.34,0,0,1,193,73.6a19.91,19.91,0,0,0-7.4-.4c11.3-43.8,43.6-51.8,66.1-52.9l3.3-3.5a6.753,6.753,0,0,0,.2-9.1l-4.8-5.6h0C248.8.3,247,0,244.1,0h-8.2a3,3,0,0,0-1.8.6l-62.7,53a14.058,14.058,0,0,0-1.7,19.7l4.7,5.6c-2.7,3.5-2.8,7.3-3,8.8.1-.7.2-1.3.3-2A6.781,6.781,0,0,1,180.5,80.4Z" fill="#04294f"/><ellipse cx="263.5" cy="120.2" rx="10" ry="13.6" fill="#ffb400"/><path d="M210.2,114.1h0c-2.3-2.3-4.7-4.6-7.2-6.7-1.2-1.1-2.5-2.2-3.7-3.2-1.3-1-2.6-2.1-3.9-3a1.986,1.986,0,0,0-2.1,0,1.776,1.776,0,0,0-.4,2.5c1,1.4,2,2.6,3,3.9,1.1,1.3,2.1,2.5,3.2,3.7,1.2,1.4,2.5,2.7,3.8,4.1l-.1.1c-1.3.7-2.6,1.3-3.9,2s-2.6,1.4-3.8,2.1c-1.3.8-2.5,1.5-3.7,2.4a1.908,1.908,0,0,0,1.5,3.4c1.4-.4,2.8-.8,4.2-1.3s2.8-1,4.1-1.5c1.4-.5,2.7-1.1,4.1-1.6l4-1.8a2.837,2.837,0,0,0,.9-.6A3.253,3.253,0,0,0,210.2,114.1Z" fill="#ffb400"/><path d="M222.5,370.3c.3-.1.5-.1.8-.2a2.506,2.506,0,0,0,.7-.4c.2-.2.4-.3.6-.5a3.949,3.949,0,0,0,1.2-2.8,3.631,3.631,0,0,0-1.2-2.8,2.651,2.651,0,0,0-.6-.5,2.506,2.506,0,0,0-.7-.4,2.353,2.353,0,0,0-.8-.2,4.3,4.3,0,0,0-1.6,0,6.373,6.373,0,0,0-.7.2,1.612,1.612,0,0,0-.7.4,2.651,2.651,0,0,0-.6.5,3.949,3.949,0,0,0-1.2,2.8,3.631,3.631,0,0,0,1.2,2.8,2.651,2.651,0,0,0,.6.5,4.348,4.348,0,0,0,.7.4,1.854,1.854,0,0,0,.7.2,3.25,3.25,0,0,0,1.6,0Z" fill="#04294f"/><path d="M283.9,387.5a2.485,2.485,0,0,0,.8.1,3.959,3.959,0,0,0,3.9-3.2,4.04,4.04,0,1,0-7.9-1.7A4.1,4.1,0,0,0,283.9,387.5Z" fill="#04294f"/><path d="M238.6,388a4.02,4.02,0,1,0-.8,8h.4a4.009,4.009,0,0,0,.4-8Z" fill="#04294f"/><path d="M224.6,379.3a4.086,4.086,0,0,0-3.1,4.8,3.95,3.95,0,0,0,3.9,3.1,2.769,2.769,0,0,0,.9-.1,3.992,3.992,0,0,0-1.7-7.8Z" fill="#04294f"/><path d="M272.6,396.6h.2a4,4,0,1,0-4.2-3.8A3.971,3.971,0,0,0,272.6,396.6Z" fill="#04294f"/><path d="M255.5,389a4.05,4.05,0,1,0-.1,8.1h.1a4.012,4.012,0,0,0,4-4A4.1,4.1,0,0,0,255.5,389Z" fill="#04294f"/><path d="M286.1,370.1c.2.1.5.3.7.4a1.884,1.884,0,0,0,.8.2,2.2,2.2,0,0,0,.8.1,3.631,3.631,0,0,0,2.8-1.2,4.417,4.417,0,0,0,1.2-2.8,3.631,3.631,0,0,0-1.2-2.8,3.972,3.972,0,0,0-3.6-1.1c-.3.1-.5.1-.8.2a2.506,2.506,0,0,0-.7.4c-.2.2-.4.3-.6.5a4.2,4.2,0,0,0-1.2,2.8,3.631,3.631,0,0,0,1.2,2.8A2.651,2.651,0,0,1,286.1,370.1Z" fill="#04294f"/><path d="M288.7,464.3h0c-3.2-.2-6.4-.3-9.6-.4s-6.3-.2-9.5-.3l-9.5-.4c-3.2-.2-6.3-.2-9.5-.5l-4.7-.3-4.7-.4c-1.6-.1-3.1-.3-4.7-.4s-3.1-.3-4.7-.5l-2.3-.3-2.3-.3c-1.6-.2-3.1-.4-4.6-.7s-3.1-.5-4.6-.8a18.915,18.915,0,0,1-2.3-.5c-.7-.2-1.5-.4-2.1-.6l-.2-.1a1.818,1.818,0,0,0-2.1.9,1.681,1.681,0,0,0,.8,2.3c.9.4,1.6.7,2.4,1.1.8.3,1.6.6,2.3.9,1.6.5,3.1,1,4.7,1.4,3.2.8,6.3,1.5,9.5,2a179.14,179.14,0,0,0,19.2,2.2c3.2.2,6.4.3,9.6.4h9.6c3.2-.1,6.4-.2,9.6-.4s6.4-.5,9.6-.8a1.735,1.735,0,0,0,1.6-1.7A1.415,1.415,0,0,0,288.7,464.3Z" fill="#04294f"/><circle cx="383.3" cy="779.9" r="5.7" fill="#00aee0"/><path d="M383.3,789.6a9.7,9.7,0,1,0-9.7-9.7A9.709,9.709,0,0,0,383.3,789.6Zm0-15.4a5.7,5.7,0,0,1,5.7,5.7,5.7,5.7,0,1,1-11.4,0A5.7,5.7,0,0,1,383.3,774.2Z" fill="#fff"/><circle cx="308.2" cy="817.8" r="5.7" fill="#00aee0"/><path d="M308.2,827.5a9.7,9.7,0,1,0-9.7-9.7A9.709,9.709,0,0,0,308.2,827.5Zm0-15.4a5.7,5.7,0,1,1,0,11.4,5.635,5.635,0,0,1-5.7-5.7A5.7,5.7,0,0,1,308.2,812.1Z" fill="#fff"/><path d="M358.9,504.8c1.1,3,2.3,5.9,3.7,8.8a68.5,68.5,0,0,0,4.6,8.4,1.237,1.237,0,0,0,1.4.4,1.189,1.189,0,0,0,.7-1.5h0l-3.3-8.7c-1.1-2.9-2.2-5.8-3.2-8.8-1.1-2.9-2.1-5.9-3.1-8.8s-2-5.9-3.2-8.8h0a1.213,1.213,0,0,0-1.3-.8,1.174,1.174,0,0,0-1,1.4,73.274,73.274,0,0,0,2,9.3C356.9,498.8,357.9,501.8,358.9,504.8Z" fill="#04294f"/><path d="M340.7,489.6a1.243,1.243,0,0,0-2.4.6c.8,4.2,1.7,8.5,2.8,12.6,1.1,4.2,2.4,8.3,3.7,12.4,1.4,4.1,2.8,8.1,4.5,12.1,1.6,4,3.4,7.9,5.3,11.8a1.2,1.2,0,0,0,1.4.6,1.189,1.189,0,0,0,.7-1.5h0L352.6,526c-1.3-4.1-2.7-8.1-4-12.2-2.6-7.9-5.1-16.1-7.9-24.2Z" fill="#04294f"/><path d="M44.4,244.1h0c2.4.6,4.9,1.4,7.2,2.2a57.2,57.2,0,0,1,6.8,2.8,35.04,35.04,0,0,1,6.2,3.7,35.013,35.013,0,0,1,5.4,4.8l.1.1a1.212,1.212,0,0,0,1.5.2,1.191,1.191,0,0,0,.5-1.6A20.816,20.816,0,0,0,67,250a32.921,32.921,0,0,0-6.8-4.4,41.67,41.67,0,0,0-7.5-2.6,34.889,34.889,0,0,0-7.9-1,1.445,1.445,0,0,0-.7.2,2.092,2.092,0,0,0-.4.6v.1A.949.949,0,0,0,44.4,244.1Z" fill="#04294f"/><path d="M52.1,220.1h0l4.7,7c1.5,2.3,3,4.7,4.5,7.1s2.9,4.8,4.2,7.2c1.4,2.4,2.6,4.9,3.9,7.4h0a1.158,1.158,0,0,0,1.4.6,1.258,1.258,0,0,0,.9-1.5,46.965,46.965,0,0,0-2.9-8.2,81.412,81.412,0,0,0-4.1-7.7,83.049,83.049,0,0,0-5-7.1,67.528,67.528,0,0,0-5.7-6.3l-.1-.1a1.071,1.071,0,0,0-1.4-.1l-.1.1A1.248,1.248,0,0,0,52.1,220.1Z" fill="#04294f"/><path d="M260.4,272.1c3.2-.1,6.4-.2,9.6-.4,6.4-.3,12.8-.8,19.2-1.3,12.7-1.1,25.4-2.4,38.1-4.2a1.934,1.934,0,0,0,1.6-1.9,1.883,1.883,0,0,0-2-1.7h0c-12.7,1-25.4,1.8-38.1,2.5-12.7.6-25.4,1.2-38,1-3.2,0-6.3-.2-9.4-.3-3.1-.2-6.3-.4-9.5-.6q-9.45-.75-18.9-1.8c-6.3-.7-12.6-1.4-18.9-2.2l-9.5-1.2-9.4-1.3h0a1.676,1.676,0,0,0-1.9,1.3,1.8,1.8,0,0,0,1.3,2.1c3.1.8,6.2,1.4,9.4,2.1,3.1.6,6.3,1.3,9.4,1.8,6.3,1.1,12.6,2.1,19,3,6.3.9,12.7,1.6,19.1,2.2,3.2.3,6.4.5,9.6.7,3.2.1,6.5.3,9.7.3C253.9,272.2,257.1,272.2,260.4,272.1Z" fill="#04294f"/><path d="M324.5,313.1a23.792,23.792,0,0,0-6,0,3.38,3.38,0,0,0-3.1,3.9,31.5,31.5,0,0,0,5.7,14,3.523,3.523,0,0,0,3.8,1.3c1.2-.4,2.7-.8,4.4-1.3a3.485,3.485,0,0,0,2-5.1,28.108,28.108,0,0,1-3.7-9.9A3.717,3.717,0,0,0,324.5,313.1Z" fill="#04294f"/><path d="M308.8,317.5a4.036,4.036,0,0,0-3.6-3.3,40.223,40.223,0,0,0-7.1-.1,4.1,4.1,0,0,0-3.7,4.6,37.192,37.192,0,0,0,6.7,16.6,3.937,3.937,0,0,0,4.5,1.5c1.4-.4,3.2-1,5.2-1.6a4.023,4.023,0,0,0,2.3-6A31.918,31.918,0,0,1,308.8,317.5Z" fill="#04294f"/><path d="M201,317.4a3.37,3.37,0,0,0-2.3-2.7,19.8,19.8,0,0,0-7.6-.7,3.381,3.381,0,0,0-3.1,3.7c.5,4.4,1.2,9.2,5.2,14.3a3.249,3.249,0,0,0,1.3,1c1.4.6,4.5,1.9,7.7,3.4a3.371,3.371,0,0,0,4.2-4.9C202.8,325.6,202.2,324,201,317.4Z" fill="#04294f"/><path d="M180.4,315.9a2.849,2.849,0,0,0-1.9-2.2,17.972,17.972,0,0,0-6.3-.6,2.768,2.768,0,0,0-2.6,3.1c.4,3.7,1,7.7,4.3,11.9a2.836,2.836,0,0,0,1.1.8c1.2.5,3.7,1.6,6.5,2.8a2.808,2.808,0,0,0,3.5-4.1C181.9,322.7,181.4,321.3,180.4,315.9Z" fill="#04294f"/></g></g>
</g>
</g>

<!-- ITEM 4 -->
<g transform="translate(1310.0 528.0) scale(1.218769043266301 1.2193047127544945) rotate(0.0 35.2815 35.266)">
<g transform="translate(-0.0 -0.0)">
<title>star</title><g id="Layer_2-i4" data-name="Layer 2"><g id="star-i4"><path d="M69.494,33.95a68.907,68.907,0,0,0-17.029-4.005,109.264,109.264,0,0,0-10.937-.732c-.194-3.574-.474-7.147-.883-10.764A103,103,0,0,0,37.373,1.441,1.961,1.961,0,0,0,36.016.084a1.981,1.981,0,0,0-2.467,1.327l-.008.03a103,103,0,0,0-3.273,17.008c-.409,3.638-.71,7.3-.883,10.936-3.638.173-7.3.474-10.936.883A103,103,0,0,0,1.441,33.541,2.151,2.151,0,0,0,.084,34.9a1.98,1.98,0,0,0,1.327,2.467l.03.009a103,103,0,0,0,17.008,3.272c3.574.409,7.147.689,10.764.883a109.264,109.264,0,0,0,.732,10.937A68.907,68.907,0,0,0,33.95,69.494a1.633,1.633,0,0,0,.925.926,1.679,1.679,0,0,0,2.153-.926,70.8,70.8,0,0,0,4.005-17.029c.43-3.574.624-7.148.71-10.765a91.1,91.1,0,0,0,10.765-.71,70.8,70.8,0,0,0,17.029-4.005,1.7,1.7,0,0,0,0-3.121Z" fill="#fdb813"/></g></g>
</g>
</g>

<!-- ITEM 5 -->
<g transform="translate(1103.0 179.0) scale(1.1861578141594142 1.1834396690281124) rotate(0.0 108.7545 153.3665)">
<g transform="translate(-0.0 -0.0)">
<title>stars</title><g id="Layer_2-i5" data-name="Layer 2"><g id="stars-i5"><path d="M217.009,236a32.852,32.852,0,0,0-7.9-1.86c-1.7-.2-3.39-.3-5.09-.33-.08-1.66-.21-3.32-.41-5a48.9,48.9,0,0,0-1.51-7.91.93.93,0,0,0-1.79,0,49.112,49.112,0,0,0-1.51,7.91c-.2,1.69-.33,3.38-.42,5.08-1.69.08-3.38.21-5.08.41a47.911,47.911,0,0,0-7.9,1.52,1,1,0,0,0-.63.63.931.931,0,0,0,.63,1.15,47.807,47.807,0,0,0,7.9,1.52c1.66.19,3.32.32,5,.41a41.277,41.277,0,0,0,.34,5.08,31.792,31.792,0,0,0,1.86,7.9.758.758,0,0,0,.44.44.78.78,0,0,0,1-.44,31.792,31.792,0,0,0,1.86-7.9,48.876,48.876,0,0,0,.33-5,42.115,42.115,0,0,0,5-.33,32.361,32.361,0,0,0,7.9-1.87.8.8,0,0,0,.44-.43A.79.79,0,0,0,217.009,236Z" fill="#fdb813"/><path d="M32.279,73.338a31.967,31.967,0,0,0-7.91-1.86,50.734,50.734,0,0,0-5.08-.34c-.09-1.66-.22-3.32-.41-5a47.807,47.807,0,0,0-1.52-7.9.911.911,0,0,0-.63-.63.921.921,0,0,0-1.146.616l0,.014a47.911,47.911,0,0,0-1.52,7.9c-.19,1.69-.33,3.39-.41,5.08-1.69.08-3.39.22-5.08.41a47.911,47.911,0,0,0-7.9,1.52,1,1,0,0,0-.63.63.92.92,0,0,0,.616,1.146l.014,0a47.807,47.807,0,0,0,7.9,1.52c1.66.19,3.32.32,5,.41q.043,2.547.34,5.08a32.057,32.057,0,0,0,1.86,7.91.758.758,0,0,0,.43.43.78.78,0,0,0,1-.43,32.836,32.836,0,0,0,1.86-7.91c.2-1.66.29-3.32.33-5a42.254,42.254,0,0,0,5-.33,32.872,32.872,0,0,0,7.91-1.86.79.79,0,0,0,0-1.45Z" fill="#fdb813"/><path d="M121.789,205.548a31.967,31.967,0,0,0-7.91-1.86,50.734,50.734,0,0,0-5.08-.34c-.09-1.66-.22-3.32-.41-5a47.807,47.807,0,0,0-1.52-7.9.911.911,0,0,0-.63-.63.921.921,0,0,0-1.146.616l0,.014a46.833,46.833,0,0,0-1.51,7.9c-.2,1.69-.34,3.39-.42,5.08-1.69.09-3.39.22-5.08.42a49.013,49.013,0,0,0-7.9,1.51,1,1,0,0,0-.63.63.92.92,0,0,0,.616,1.146l.014,0a47.807,47.807,0,0,0,7.9,1.52c1.66.19,3.32.33,5,.41a41.439,41.439,0,0,0,.34,5.09,31.98,31.98,0,0,0,1.86,7.9.758.758,0,0,0,.43.43.78.78,0,0,0,1-.43,32.9,32.9,0,0,0,1.86-7.9c.2-1.67.29-3.33.33-5a49.162,49.162,0,0,0,5-.33,32.442,32.442,0,0,0,7.91-1.86.79.79,0,0,0,0-1.45Z" fill="#fdb813"/><path d="M184.419,201.928a9.2,9.2,0,0,0-3.69-1.86,10.435,10.435,0,0,0-1.08-.22c-.06-.29-.12-.59-.2-.88a12.794,12.794,0,0,0-1.51-3.69,1.061,1.061,0,0,0-.34-.33,1,1,0,0,0-1.391.253.906.906,0,0,0-.049.077,12.569,12.569,0,0,0-1.52,3.69c-.09.35-.16.7-.23,1.05-.35.07-.7.14-1,.23a12.569,12.569,0,0,0-3.69,1.52,1.02,1.02,0,0,0-.33.33,1.05,1.05,0,0,0,.328,1.448l0,0a12.794,12.794,0,0,0,3.69,1.51c.29.08.59.14.88.2a10.435,10.435,0,0,0,.22,1.08,9.319,9.319,0,0,0,1.86,3.69l.11.11a1,1,0,0,0,1.34-.11,9.063,9.063,0,0,0,1.86-3.69c.08-.3.15-.6.2-.9a3.642,3.642,0,0,0,.9-.2,9.063,9.063,0,0,0,3.69-1.86,1.142,1.142,0,0,0,.11-.11A1,1,0,0,0,184.419,201.928Z" fill="#fdb813"/><path d="M148.419,91.478a12.569,12.569,0,0,0-3.69-1.52c-.29-.07-.59-.14-.88-.19a8.416,8.416,0,0,0-.22-1.09,8.994,8.994,0,0,0-1.86-3.68l-.11-.11a1,1,0,0,0-1.34.11,9.3,9.3,0,0,0-1.86,3.68c-.08.3-.14.61-.19.91a9.7,9.7,0,0,0-4.6,2.06l-.1.1a1,1,0,0,0,.1,1.34,9.222,9.222,0,0,0,3.69,1.87,10.45,10.45,0,0,0,1.08.21c.06.3.13.59.2.89a12.631,12.631,0,0,0,1.52,3.68,1,1,0,0,0,1.346.434.99.99,0,0,0,.434-.434,12.819,12.819,0,0,0,1.51-3.68c.09-.36.17-.71.23-1.06.35-.06.7-.14,1-.22a12.569,12.569,0,0,0,3.69-1.52.983.983,0,0,0,.33-.33A1.05,1.05,0,0,0,148.419,91.478Z" fill="#fdb813"/><path d="M45.149,156.758a10.435,10.435,0,0,0-1.08-.22c-.06-.29-.13-.59-.2-.88a12.542,12.542,0,0,0-1.52-3.69,1,1,0,0,0-.33-.33,1.05,1.05,0,0,0-1.448.327l0,0a12.822,12.822,0,0,0-1.51,3.69c-.09.35-.16.7-.23,1.05-.35.07-.7.14-1,.23a12.794,12.794,0,0,0-3.69,1.51,1.071,1.071,0,0,0-.33.34,1.05,1.05,0,0,0,.328,1.448l0,0a12.794,12.794,0,0,0,3.69,1.51c.29.08.59.14.88.2a8.268,8.268,0,0,0,.22,1.08,9.076,9.076,0,0,0,1.86,3.69l.11.1a.941.941,0,0,0,1.327-.084l.013-.016a9.2,9.2,0,0,0,1.86-3.69c.08-.3.14-.6.2-.9a3.642,3.642,0,0,0,.9-.2,9.063,9.063,0,0,0,3.69-1.86l.1-.11a1,1,0,0,0-.1-1.34A9.078,9.078,0,0,0,45.149,156.758Z" fill="#fdb813"/><path d="M141.739,296.478a10.621,10.621,0,0,0-1.09-.22,3.961,3.961,0,0,0-.19-.88,12.542,12.542,0,0,0-1.52-3.69,1,1,0,0,0-.33-.33,1.05,1.05,0,0,0-1.448.328l0,0a12.569,12.569,0,0,0-1.52,3.69c-.08.35-.16.7-.22,1.05-.35.07-.7.14-1.06.23a12.859,12.859,0,0,0-3.68,1.51,1.223,1.223,0,0,0-.34.34,1.06,1.06,0,0,0,.34,1.45,12.859,12.859,0,0,0,3.68,1.51c.3.08.59.14.89.2a10.4,10.4,0,0,0,.21,1.08,9.234,9.234,0,0,0,1.88,3.67l.1.1a.94.94,0,0,0,1.3-.1,9.215,9.215,0,0,0,1.87-3.69c.08-.3.14-.6.19-.9.3-.05.6-.12.91-.2a8.994,8.994,0,0,0,3.68-1.86l.11-.11a1,1,0,0,0-.11-1.34A8.994,8.994,0,0,0,141.739,296.478Z" fill="#fdb813"/><path d="M127.739,149.878a7.109,7.109,0,0,0,.93.49v.06a5.61,5.61,0,0,0,1.87,2.36,1.218,1.218,0,0,0,1.44,0,13.629,13.629,0,0,1,4-4,1.209,1.209,0,0,0,0-1.45,5.649,5.649,0,0,0-2.36-1.86h-.06a6.929,6.929,0,0,0-.49-.93,5.872,5.872,0,0,0-.92-1.18,1.271,1.271,0,0,0-1.78,0,5.945,5.945,0,0,0-.92,1.18,6.175,6.175,0,0,0-.58,1.14,6.923,6.923,0,0,0-1.15.58,6.463,6.463,0,0,0-1.18.93,1.28,1.28,0,0,0,0,1.78A5.92,5.92,0,0,0,127.739,149.878Z" fill="#fdb813"/><path d="M115.729,55.568a5.884,5.884,0,0,0-.93-.48.409.409,0,0,0,0-.07,5.416,5.416,0,0,0-1.86-2.35,1.2,1.2,0,0,0-1.45,0,5.378,5.378,0,0,0-1.79,2.2,5.429,5.429,0,0,0-2.2,1.79,1.2,1.2,0,0,0,0,1.45,5.537,5.537,0,0,0,2.36,1.86h.06a5.884,5.884,0,0,0,.48.93,6.334,6.334,0,0,0,.92,1.18,1.279,1.279,0,0,0,1.79,0,6.293,6.293,0,0,0,.92-1.18,6.114,6.114,0,0,0,.58-1.14,6.752,6.752,0,0,0,1.14-.58,6.031,6.031,0,0,0,1.18-.93,1.26,1.26,0,0,0,0-1.78A5.639,5.639,0,0,0,115.729,55.568Z" fill="#fdb813"/><path d="M78.669,2.478h-.06a5.129,5.129,0,0,0-.49-.93A5.652,5.652,0,0,0,77.2.368a1.26,1.26,0,0,0-1.78,0,5.686,5.686,0,0,0-.92,1.18,6.175,6.175,0,0,0-.58,1.14,6.2,6.2,0,0,0-1.15.58,6.684,6.684,0,0,0-1.18.92,1.28,1.28,0,0,0,0,1.78,6.312,6.312,0,0,0,1.18.93,5.927,5.927,0,0,0,.93.48.122.122,0,0,1,0,.06,5.487,5.487,0,0,0,1.87,2.36,1.191,1.191,0,0,0,1.44,0,5.461,5.461,0,0,0,1.8-2.2,5.5,5.5,0,0,0,2.2-1.79,1.209,1.209,0,0,0,0-1.45A5.437,5.437,0,0,0,78.669,2.478Z" fill="#fdb813"/><path d="M64.539,120.478h-.06a6.929,6.929,0,0,0-.49-.93,6.22,6.22,0,0,0-.92-1.18,1.28,1.28,0,0,0-1.78,0,6.75,6.75,0,0,0-.93,1.18,6.846,6.846,0,0,0-.58,1.15,6.175,6.175,0,0,0-1.14.58,5.974,5.974,0,0,0-1.18.92,1.271,1.271,0,0,0,0,1.78,7.2,7.2,0,0,0,2.11,1.41v.06a5.586,5.586,0,0,0,1.86,2.36,1.209,1.209,0,0,0,1.45,0,5.457,5.457,0,0,0,1.79-2.21,5.365,5.365,0,0,0,2.2-1.79,1.188,1.188,0,0,0,0-1.44A5.522,5.522,0,0,0,64.539,120.478Z" fill="#fdb813"/><path d="M34.4,241.218h-.06a6.991,6.991,0,0,0-.49-.94,6.22,6.22,0,0,0-.92-1.18,1.28,1.28,0,0,0-1.78,0,6.22,6.22,0,0,0-.92,1.18,6.524,6.524,0,0,0-.58,1.15,7.155,7.155,0,0,0-2.33,1.5,1.28,1.28,0,0,0,0,1.78,6.463,6.463,0,0,0,1.18.93,5.927,5.927,0,0,0,.93.48v.06a5.586,5.586,0,0,0,1.86,2.36,1.209,1.209,0,0,0,1.45,0,13.761,13.761,0,0,1,4-4,1.209,1.209,0,0,0,0-1.45A5.5,5.5,0,0,0,34.4,241.218Z" fill="#fdb813"/></g></g>
</g>
</g>

<!-- ITEM 6 -->
<g transform="translate(761.0 162.0) scale(1.1620821110213568 1.1625928656496343) rotate(342.93156913485734 35.281499999999994 35.266)">
<g transform="translate(-0.0 -0.0)">
<title>star</title><g id="Layer_2-i6" data-name="Layer 2"><g id="star-i6"><path d="M69.494,33.95a68.907,68.907,0,0,0-17.029-4.005,109.264,109.264,0,0,0-10.937-.732c-.194-3.574-.474-7.147-.883-10.764A103,103,0,0,0,37.373,1.441,1.961,1.961,0,0,0,36.016.084a1.981,1.981,0,0,0-2.467,1.327l-.008.03a103,103,0,0,0-3.273,17.008c-.409,3.638-.71,7.3-.883,10.936-3.638.173-7.3.474-10.936.883A103,103,0,0,0,1.441,33.541,2.151,2.151,0,0,0,.084,34.9a1.98,1.98,0,0,0,1.327,2.467l.03.009a103,103,0,0,0,17.008,3.272c3.574.409,7.147.689,10.764.883a109.264,109.264,0,0,0,.732,10.937A68.907,68.907,0,0,0,33.95,69.494a1.633,1.633,0,0,0,.925.926,1.679,1.679,0,0,0,2.153-.926,70.8,70.8,0,0,0,4.005-17.029c.43-3.574.624-7.148.71-10.765a91.1,91.1,0,0,0,10.765-.71,70.8,70.8,0,0,0,17.029-4.005,1.7,1.7,0,0,0,0-3.121Z" fill="#fdb813"/></g></g>
</g>
</g>

<!-- ITEM 7 -->
<g transform="translate(1235.0 648.0) scale(0.4676671910207899 0.4678727386150967) rotate(15.062082029004983 35.2815 35.266)">
<g transform="translate(-0.0 -0.0)">
<title>star</title><g id="Layer_2-i7" data-name="Layer 2"><g id="star-i7"><path d="M69.494,33.95a68.907,68.907,0,0,0-17.029-4.005,109.264,109.264,0,0,0-10.937-.732c-.194-3.574-.474-7.147-.883-10.764A103,103,0,0,0,37.373,1.441,1.961,1.961,0,0,0,36.016.084a1.981,1.981,0,0,0-2.467,1.327l-.008.03a103,103,0,0,0-3.273,17.008c-.409,3.638-.71,7.3-.883,10.936-3.638.173-7.3.474-10.936.883A103,103,0,0,0,1.441,33.541,2.151,2.151,0,0,0,.084,34.9a1.98,1.98,0,0,0,1.327,2.467l.03.009a103,103,0,0,0,17.008,3.272c3.574.409,7.147.689,10.764.883a109.264,109.264,0,0,0,.732,10.937A68.907,68.907,0,0,0,33.95,69.494a1.633,1.633,0,0,0,.925.926,1.679,1.679,0,0,0,2.153-.926,70.8,70.8,0,0,0,4.005-17.029c.43-3.574.624-7.148.71-10.765a91.1,91.1,0,0,0,10.765-.71,70.8,70.8,0,0,0,17.029-4.005,1.7,1.7,0,0,0,0-3.121Z" fill="#fdb813"/></g></g>
</g>
</g>

<!-- ITEM 8 -->
<g transform="translate(776.0 391.0) scale(0.5668693224494423 0.5671184710486021) rotate(344.96959463318194 35.2815 35.26599999999999)">
<g transform="translate(-0.0 -0.0)">
<title>star</title><g id="Layer_2-i8" data-name="Layer 2"><g id="star-i8"><path d="M69.494,33.95a68.907,68.907,0,0,0-17.029-4.005,109.264,109.264,0,0,0-10.937-.732c-.194-3.574-.474-7.147-.883-10.764A103,103,0,0,0,37.373,1.441,1.961,1.961,0,0,0,36.016.084a1.981,1.981,0,0,0-2.467,1.327l-.008.03a103,103,0,0,0-3.273,17.008c-.409,3.638-.71,7.3-.883,10.936-3.638.173-7.3.474-10.936.883A103,103,0,0,0,1.441,33.541,2.151,2.151,0,0,0,.084,34.9a1.98,1.98,0,0,0,1.327,2.467l.03.009a103,103,0,0,0,17.008,3.272c3.574.409,7.147.689,10.764.883a109.264,109.264,0,0,0,.732,10.937A68.907,68.907,0,0,0,33.95,69.494a1.633,1.633,0,0,0,.925.926,1.679,1.679,0,0,0,2.153-.926,70.8,70.8,0,0,0,4.005-17.029c.43-3.574.624-7.148.71-10.765a91.1,91.1,0,0,0,10.765-.71,70.8,70.8,0,0,0,17.029-4.005,1.7,1.7,0,0,0,0-3.121Z" fill="#fdb813"/></g></g>
</g>
</g>

<!-- ITEM 9 -->
<g transform="translate(1346.0 703.0) scale(0.6660714538780947 0.6663642034821075) rotate(15.140480075919623 35.2815 35.266)">
<g transform="translate(-0.0 -0.0)">
<title>star</title><g id="Layer_2-i9" data-name="Layer 2"><g id="star-i9"><path d="M69.494,33.95a68.907,68.907,0,0,0-17.029-4.005,109.264,109.264,0,0,0-10.937-.732c-.194-3.574-.474-7.147-.883-10.764A103,103,0,0,0,37.373,1.441,1.961,1.961,0,0,0,36.016.084a1.981,1.981,0,0,0-2.467,1.327l-.008.03a103,103,0,0,0-3.273,17.008c-.409,3.638-.71,7.3-.883,10.936-3.638.173-7.3.474-10.936.883A103,103,0,0,0,1.441,33.541,2.151,2.151,0,0,0,.084,34.9a1.98,1.98,0,0,0,1.327,2.467l.03.009a103,103,0,0,0,17.008,3.272c3.574.409,7.147.689,10.764.883a109.264,109.264,0,0,0,.732,10.937A68.907,68.907,0,0,0,33.95,69.494a1.633,1.633,0,0,0,.925.926,1.679,1.679,0,0,0,2.153-.926,70.8,70.8,0,0,0,4.005-17.029c.43-3.574.624-7.148.71-10.765a91.1,91.1,0,0,0,10.765-.71,70.8,70.8,0,0,0,17.029-4.005,1.7,1.7,0,0,0,0-3.121Z" fill="#fdb813"/></g></g>
</g>
</g>

<!-- ITEM 10 -->
<g transform="translate(682.0 333.0) scale(0.3968085257146096 0.39698292973402144) rotate(0.0 35.2815 35.266000000000005)">
<g transform="translate(-0.0 -0.0)">
<title>star</title><g id="Layer_2-i10" data-name="Layer 2"><g id="star-i10"><path d="M69.494,33.95a68.907,68.907,0,0,0-17.029-4.005,109.264,109.264,0,0,0-10.937-.732c-.194-3.574-.474-7.147-.883-10.764A103,103,0,0,0,37.373,1.441,1.961,1.961,0,0,0,36.016.084a1.981,1.981,0,0,0-2.467,1.327l-.008.03a103,103,0,0,0-3.273,17.008c-.409,3.638-.71,7.3-.883,10.936-3.638.173-7.3.474-10.936.883A103,103,0,0,0,1.441,33.541,2.151,2.151,0,0,0,.084,34.9a1.98,1.98,0,0,0,1.327,2.467l.03.009a103,103,0,0,0,17.008,3.272c3.574.409,7.147.689,10.764.883a109.264,109.264,0,0,0,.732,10.937A68.907,68.907,0,0,0,33.95,69.494a1.633,1.633,0,0,0,.925.926,1.679,1.679,0,0,0,2.153-.926,70.8,70.8,0,0,0,4.005-17.029c.43-3.574.624-7.148.71-10.765a91.1,91.1,0,0,0,10.765-.71,70.8,70.8,0,0,0,17.029-4.005,1.7,1.7,0,0,0,0-3.121Z" fill="#fdb813"/></g></g>
</g>
</g>

              </svg>