<svg fill="#000000" xmlns="http://www.w3.org/2000/svg" viewBox="0 0 50 50" width="250px" height="250px"><path d="M 25 2 C 12.316406 2 2 12.316406 2 25 C 2 37.683594 12.316406 48 25 48 C 37.683594 48 48 37.683594 48 25 C 48 12.316406 37.683594 2 25 2 Z M 25 7 C 34.941406 7 43 15.058594 43 25 C 43 34.941406 34.941406 43 25 43 C 15.058594 43 7 34.941406 7 25 C 7 15.058594 15.058594 7 25 7 Z M 25.90625 9.03125 C 25.113281 10.964844 24.214844 14.179688 24.03125 19.09375 C 24.347656 19.042969 24.671875 19 25 19 C 25.355469 19 25.691406 19.035156 26.03125 19.09375 C 26.234375 13.945313 27.242188 10.867188 27.96875 9.28125 C 27.292969 9.152344 26.609375 9.070313 25.90625 9.03125 Z M 21.71875 9.34375 C 21.03125 9.488281 20.371094 9.675781 19.71875 9.90625 C 19.726563 11.996094 20.132813 15.292969 21.84375 19.90625 C 22.40625 19.554688 23.019531 19.304688 23.6875 19.15625 C 21.902344 14.3125 21.652344 11.085938 21.71875 9.34375 Z M 31.9375 10.59375 C 30.464844 12.074219 28.425781 14.6875 26.375 19.15625 C 27.039063 19.3125 27.660156 19.578125 28.21875 19.9375 C 30.375 15.257813 32.472656 12.8125 33.75 11.625 C 33.171875 11.242188 32.566406 10.898438 31.9375 10.59375 Z M 16 11.78125 C 15.421875 12.175781 14.863281 12.628906 14.34375 13.09375 C 15.152344 15.023438 16.785156 17.898438 20.125 21.5 C 20.519531 20.953125 21.011719 20.480469 21.5625 20.09375 C 18.066406 16.308594 16.609375 13.417969 16 11.78125 Z M 36.90625 14.34375 C 34.976563 15.152344 32.101563 16.785156 28.5 20.125 C 29.046875 20.519531 29.519531 21.011719 29.90625 21.5625 C 33.691406 18.0625 36.582031 16.609375 38.21875 16 C 37.824219 15.421875 37.371094 14.863281 36.90625 14.34375 Z M 11.625 16.25 C 11.242188 16.828125 10.898438 17.433594 10.59375 18.0625 C 12.078125 19.535156 14.6875 21.574219 19.15625 23.625 C 19.3125 22.960938 19.578125 22.339844 19.9375 21.78125 C 15.257813 19.625 12.8125 17.527344 11.625 16.25 Z M 40.09375 19.71875 C 38.003906 19.726563 34.707031 20.132813 30.09375 21.84375 C 30.441406 22.40625 30.695313 23.019531 30.84375 23.6875 C 35.6875 21.902344 38.914063 21.652344 40.65625 21.71875 C 40.511719 21.03125 40.324219 20.371094 40.09375 19.71875 Z M 25 21 C 22.789063 21 21 22.789063 21 25 C 21 27.210938 22.789063 29 25 29 C 27.210938 29 29 27.210938 29 25 C 29 22.789063 27.210938 21 25 21 Z M 9.28125 22.03125 C 9.152344 22.707031 9.070313 23.390625 9.03125 24.09375 C 10.964844 24.886719 14.179688 25.785156 19.09375 25.96875 C 19.042969 25.652344 19 25.328125 19 25 C 19 24.644531 19.035156 24.308594 19.09375 23.96875 C 13.945313 23.765625 10.867188 22.757813 9.28125 22.03125 Z M 30.90625 24.03125 C 30.957031 24.347656 31 24.671875 31 25 C 31 25.355469 30.964844 25.691406 30.90625 26.03125 C 36.054688 26.234375 39.132813 27.242188 40.71875 27.96875 C 40.847656 27.292969 40.929688 26.609375 40.96875 25.90625 C 39.035156 25.113281 35.820313 24.21875 30.90625 24.03125 Z M 19.15625 26.3125 C 14.3125 28.097656 11.085938 28.347656 9.34375 28.28125 C 9.488281 28.96875 9.675781 29.625 9.90625 30.28125 C 11.996094 30.273438 15.304688 29.859375 19.90625 28.15625 C 19.558594 27.59375 19.304688 26.976563 19.15625 26.3125 Z M 30.84375 26.375 C 30.6875 27.039063 30.417969 27.660156 30.0625 28.21875 C 34.742188 30.375 37.1875 32.472656 38.375 33.75 C 38.757813 33.171875 39.101563 32.566406 39.40625 31.9375 C 37.921875 30.464844 35.3125 28.425781 30.84375 26.375 Z M 20.09375 28.4375 C 16.308594 31.9375 13.417969 33.394531 11.78125 34 C 12.175781 34.578125 12.628906 35.136719 13.09375 35.65625 C 15.023438 34.851563 17.898438 33.214844 21.5 29.875 C 20.953125 29.480469 20.480469 28.988281 20.09375 28.4375 Z M 29.875 28.5 C 29.480469 29.046875 28.988281 29.519531 28.4375 29.90625 C 31.9375 33.691406 33.394531 36.582031 34 38.21875 C 34.574219 37.824219 35.136719 37.371094 35.65625 36.90625 C 34.851563 34.976563 33.21875 32.105469 29.875 28.5 Z M 21.78125 30.0625 C 19.625 34.742188 17.527344 37.1875 16.25 38.375 C 16.828125 38.757813 17.433594 39.101563 18.0625 39.40625 C 19.535156 37.925781 21.574219 35.3125 23.625 30.84375 C 22.960938 30.6875 22.339844 30.417969 21.78125 30.0625 Z M 28.15625 30.09375 C 27.59375 30.445313 26.980469 30.695313 26.3125 30.84375 C 28.097656 35.6875 28.347656 38.914063 28.28125 40.65625 C 28.96875 40.511719 29.628906 40.324219 30.28125 40.09375 C 30.273438 38.003906 29.867188 34.707031 28.15625 30.09375 Z M 23.96875 30.90625 C 23.765625 36.054688 22.757813 39.132813 22.03125 40.71875 C 22.707031 40.847656 23.390625 40.929688 24.09375 40.96875 C 24.886719 39.035156 25.785156 35.820313 25.96875 30.90625 C 25.652344 30.957031 25.328125 31 25 31 C 24.644531 31 24.308594 30.964844 23.96875 30.90625 Z"/></svg>